<svg width="17" height="17" viewBox="0 0 17 17" fill="none" xmlns="http://www.w3.org/2000/svg">
<g clip-path="url(#clip0_3_1833)">
<path fill-rule="evenodd" clip-rule="evenodd" d="M2.04098 2.04102C0.913779 2.04102 0 2.9548 0 4.082V12.5861C0 13.5254 0.761483 14.2869 1.70082 14.2869H14.627C15.5664 14.2869 16.3279 13.5254 16.3279 12.5861V4.082C16.3279 2.9548 15.4141 2.04102 14.2869 2.04102H2.04098ZM1.80574 3.44344C1.87905 3.41642 1.95829 3.40167 2.04098 3.40167H14.2869C14.3696 3.40167 14.4488 3.41642 14.5221 3.44344L8.59474 8.29312C8.34413 8.49816 7.98374 8.49816 7.73313 8.29312L1.80574 3.44344ZM1.36066 4.83733V11.5352L5.55745 8.27107L1.36066 4.83733ZM14.5394 12.9263H1.78846L6.63753 9.15477L6.87151 9.34621C7.62334 9.96134 8.70453 9.96134 9.45636 9.34621L9.69034 9.15477L14.5394 12.9263ZM14.9672 11.5352V4.83733L10.7704 8.27107L14.9672 11.5352Z" fill="white"/>
</g>
<defs>
<clipPath id="clip0_3_1833">
<rect width="16.3279" height="16.3279" fill="white"/>
</clipPath>
</defs>
</svg>
