<svg width="30" height="30" viewBox="0 0 30 30" fill="none" xmlns="http://www.w3.org/2000/svg">
<path d="M15 30C23.2843 30 30 23.2843 30 15C30 6.71573 23.2843 0 15 0C6.71573 0 0 6.71573 0 15C0 23.2843 6.71573 30 15 30Z" fill="#60CB8E"/>
<path fill-rule="evenodd" clip-rule="evenodd" d="M7.5 15C7.5 10.8579 10.8579 7.5 15 7.5C19.1421 7.5 22.5 10.8579 22.5 15C22.5 19.1421 19.1421 22.5 15 22.5C10.8579 22.5 7.5 19.1421 7.5 15ZM15 6C10.0294 6 6 10.0294 6 15C6 19.9706 10.0294 24 15 24C19.9706 24 24 19.9706 24 15C24 10.0294 19.9706 6 15 6ZM18.5758 13.043C18.8412 12.725 18.7986 12.2521 18.4805 11.9867C18.1625 11.7213 17.6896 11.7639 17.4242 12.082L13.3784 16.9301L11.7675 15.3946C11.4676 15.1088 10.9929 15.1202 10.7071 15.42C10.4213 15.7199 10.4327 16.1946 10.7325 16.4804L12.9235 18.5687C13.0737 18.7118 13.2765 18.7864 13.4836 18.7746C13.6908 18.7628 13.8838 18.6656 14.0168 18.5063L18.5758 13.043Z" fill="white"/>
</svg>
