<svg width="24" height="24" viewBox="0 0 24 24" fill="none" xmlns="http://www.w3.org/2000/svg">
<path fill-rule="evenodd" clip-rule="evenodd" d="M3.47296 4.16957C3.0915 4.53032 3 4.81128 3 5C3 5.18872 3.0915 5.46968 3.47296 5.83043C3.85653 6.19317 4.46523 6.56591 5.30032 6.89995C6.96497 7.56581 9.33323 8 12 8C14.6668 8 17.035 7.56581 18.6997 6.89995C19.5348 6.56591 20.1435 6.19317 20.527 5.83043C20.9085 5.46968 21 5.18872 21 5C21 4.81128 20.9085 4.53032 20.527 4.16957C20.1435 3.80683 19.5348 3.43409 18.6997 3.10005C17.035 2.43419 14.6668 2 12 2C9.33323 2 6.96497 2.43419 5.30032 3.10005C4.46523 3.43409 3.85653 3.80683 3.47296 4.16957ZM21 7.97538C20.5351 8.27022 20.0089 8.53034 19.4425 8.7569C17.4878 9.53876 14.8561 10 12 10C9.14392 10 6.51218 9.53876 4.55754 8.7569C3.99114 8.53034 3.46486 8.27022 3 7.97538V12C3 12.1887 3.0915 12.4697 3.47296 12.8304C3.85653 13.1932 4.46523 13.5659 5.30032 13.9C6.96497 14.5658 9.33323 15 12 15C14.6668 15 17.035 14.5658 18.6997 13.9C19.5348 13.5659 20.1435 13.1932 20.527 12.8304C20.9085 12.4697 21 12.1887 21 12V7.97538ZM23 12V5C23 4.08415 22.5319 3.31282 21.9013 2.71646C21.2728 2.1221 20.417 1.63292 19.4425 1.2431C17.4878 0.461239 14.8561 0 12 0C9.14392 0 6.51218 0.461239 4.55754 1.2431C3.58299 1.63292 2.72723 2.1221 2.09874 2.71646C1.46814 3.31282 1 4.08415 1 5V12V19C1 19.9159 1.46814 20.6872 2.09874 21.2835C2.72723 21.8779 3.58299 22.3671 4.55754 22.7569C6.51218 23.5388 9.14392 24 12 24C14.8561 24 17.4878 23.5388 19.4425 22.7569C20.417 22.3671 21.2728 21.8779 21.9013 21.2835C22.5319 20.6872 23 19.9159 23 19V12ZM21 14.9754C20.5351 15.2702 20.0089 15.5303 19.4425 15.7569C17.4878 16.5388 14.8561 17 12 17C9.14392 17 6.51218 16.5388 4.55754 15.7569C3.99114 15.5303 3.46486 15.2702 3 14.9754V19C3 19.1887 3.0915 19.4697 3.47296 19.8304C3.85653 20.1932 4.46523 20.5659 5.30032 20.9C6.96497 21.5658 9.33323 22 12 22C14.6668 22 17.035 21.5658 18.6997 20.9C19.5348 20.5659 20.1435 20.1932 20.527 19.8304C20.9085 19.4697 21 19.1887 21 19V14.9754Z" fill="#6F5FA7"/>
</svg>
