<svg width="6" height="6" viewBox="0 0 6 6" fill="none" xmlns="http://www.w3.org/2000/svg">
<path fill-rule="evenodd" clip-rule="evenodd" d="M4.95666 1.38511C5.40085 1.72331 5.46364 2.35743 5.09407 2.77287L3.25009 4.84578L1.40614 2.7731C1.03651 2.35762 1.09929 1.72341 1.54354 1.38516C1.99821 1.03898 2.65828 1.14941 2.96976 1.62376L3.07425 1.7829C3.13681 1.87817 3.26641 1.90575 3.36372 1.8445C3.3942 1.82532 3.41789 1.79969 3.43414 1.77061L3.53047 1.62384C3.84186 1.14941 4.50197 1.03891 4.95666 1.38511ZM3.25014 1.30217C2.78195 0.710445 1.90217 0.592507 1.28637 1.06138C0.652259 1.54418 0.562644 2.44945 1.09025 3.0425L3.0925 5.29311C3.16848 5.37852 3.30079 5.38745 3.38802 5.31305C3.39936 5.30338 3.40937 5.29279 3.41805 5.28148L5.40998 3.04226C5.9375 2.44925 5.84788 1.54408 5.21383 1.06132C4.59803 0.592453 3.71826 0.710434 3.25014 1.30217Z" fill="#252429"/>
</svg>
