<svg width="1258" height="325" viewBox="0 0 1258 325" fill="none" xmlns="http://www.w3.org/2000/svg">
<g clip-path="url(#clip0)">
<path d="M222.689 77.9618H350.108C355.309 77.9618 360.51 78.6119 365.711 79.262C348.158 33.1049 303.301 0.599854 251.293 0.599854H123.873C56.2628 0.599854 1.00427 55.2083 0.354168 122.169C-0.295932 184.578 47.8115 237.236 108.271 245.688C102.42 231.386 99.1695 215.783 99.8196 199.531C100.47 132.57 155.728 77.9618 222.689 77.9618Z" fill="#6F5FA7"/>
<path d="M366.356 79.2627C371.556 92.9148 374.807 108.517 374.807 124.12V247.639H126.468C120.618 247.639 114.117 246.989 108.266 246.339C127.119 292.496 173.276 325.001 225.284 325.001H473.622V201.482C473.622 138.422 426.815 87.0639 366.356 79.2627Z" fill="#FDD395"/>
<path d="M374.812 247.637V124.118C374.812 108.516 371.561 92.9135 366.36 79.2614C361.159 78.6113 355.959 77.9612 350.758 77.9612H222.688C155.078 77.9612 100.469 132.57 99.1689 199.53C99.1689 215.783 101.769 231.385 107.62 245.687C113.471 246.337 119.322 246.987 125.823 246.987H374.812V247.637Z" fill="url(#paint0_linear)"/>
<path d="M592.591 255.44C565.287 255.44 550.335 241.138 550.335 211.233V83.8132H586.741V210.583C586.741 217.084 590.641 221.635 600.393 221.635V255.44H592.591Z" fill="#6F5FA7"/>
<path d="M621.197 253.489V141.021H656.303V146.872C660.853 142.972 669.955 138.421 682.307 138.421C697.909 138.421 708.311 146.222 712.861 150.773C716.762 147.522 727.164 138.421 746.667 138.421C774.621 138.421 796.074 157.274 796.074 181.978V254.139H759.669V189.129C759.669 180.027 754.468 170.926 742.766 170.926C733.015 170.926 725.863 178.727 725.863 189.129V253.489H689.458V189.129C689.458 180.027 684.907 170.926 673.855 170.926C664.104 170.926 657.603 178.727 657.603 189.129V253.489H621.197Z" fill="#6F5FA7"/>
<path d="M812.978 226.184L844.832 215.783C846.133 221.634 850.683 224.884 857.184 224.884C863.035 224.884 866.936 222.934 866.936 219.033C866.936 215.783 864.335 213.182 858.485 212.532C832.481 208.632 816.228 199.53 816.228 174.176C816.228 154.673 832.481 138.421 857.834 138.421C881.888 138.421 894.89 151.423 898.791 166.375L867.586 174.827C866.936 171.576 863.685 168.976 857.834 168.976C853.284 168.976 850.033 171.576 850.033 174.176C850.033 177.427 852.634 179.377 858.485 180.027C888.389 184.578 902.041 195.63 902.041 217.083C902.041 239.186 885.789 256.739 856.534 256.739C829.88 256.089 816.228 241.787 812.978 226.184Z" fill="#6F5FA7"/>
<path d="M1016.46 144.272H1033.36V254.79C1033.36 287.945 1011.26 312.649 976.804 312.649C955.351 312.649 935.198 302.247 925.446 284.694L941.049 274.943C947.55 287.295 961.852 295.096 976.804 295.096C1001.51 295.096 1016.46 277.543 1016.46 254.139V238.537C1006.71 249.589 992.407 256.09 976.804 256.09C944.949 256.09 918.945 232.036 918.945 198.881C918.945 165.076 944.949 141.022 976.804 141.022C992.407 141.022 1006.71 147.523 1016.46 158.575V144.272ZM1016.46 199.531C1016.46 176.127 998.908 159.225 976.804 159.225C954.701 159.225 937.148 176.127 937.148 199.531C937.148 222.935 954.701 239.837 976.804 239.837C998.908 239.187 1016.46 222.935 1016.46 199.531Z" fill="#6F5FA7"/>
<path d="M1063.91 199.53C1063.91 165.725 1089.92 141.671 1121.77 141.671C1153.63 141.671 1179.63 165.725 1179.63 199.53C1179.63 232.685 1153.63 256.739 1121.77 256.739C1089.92 256.089 1063.91 232.685 1063.91 199.53ZM1161.43 199.53C1161.43 176.126 1143.88 159.224 1121.77 159.224C1099.67 159.224 1082.12 176.126 1082.12 199.53C1082.12 222.933 1099.67 239.836 1121.77 239.836C1143.88 239.186 1161.43 222.933 1161.43 199.53Z" fill="#6F5FA7"/>
<path d="M1206.29 242.438C1206.29 234.637 1212.79 228.786 1219.94 228.786C1227.74 228.786 1233.59 234.637 1233.59 242.438C1233.59 250.239 1227.74 256.09 1219.94 256.09C1212.79 256.09 1206.29 249.589 1206.29 242.438Z" fill="#FDD395"/>
<path d="M1216.04 150.123V131.27H1209.54V126.069H1229.05V131.27H1222.54V150.123H1216.04Z" fill="#6F5FA7"/>
<path d="M1242.05 150.123L1236.85 137.121V150.123H1231V126.069H1237.5L1244 141.671L1250.5 126.069H1257V150.123H1251.15V137.121L1245.95 150.123H1242.05Z" fill="#6F5FA7"/>
</g>
<defs>
<linearGradient id="paint0_linear" x1="99.4075" y1="162.718" x2="374.682" y2="162.718" gradientUnits="userSpaceOnUse">
<stop stop-color="#FDD395"/>
<stop offset="1" stop-color="#6F5FA7"/>
</linearGradient>
<clipPath id="clip0">
<rect width="1257.29" height="324.4" fill="white" transform="translate(0.352539 0.599854)"/>
</clipPath>
</defs>
</svg>
