<svg width="17" height="17" viewBox="0 0 17 17" fill="none" xmlns="http://www.w3.org/2000/svg">
<g clip-path="url(#clip0)">
<path fill-rule="evenodd" clip-rule="evenodd" d="M6.3747 7.79167C5.9835 7.79167 5.66637 8.1088 5.66637 8.5C5.66637 8.8912 5.9835 9.20833 6.3747 9.20833L14.5816 9.20833L12.2491 11.5408C11.9725 11.8174 11.9725 12.2659 12.2491 12.5425C12.5258 12.8192 12.9742 12.8192 13.2509 12.5425L16.7925 9.00087C16.9254 8.86803 17 8.68786 17 8.5C17 8.31214 16.9254 8.13197 16.7925 7.99913L13.2509 4.45747C12.9742 4.18085 12.5258 4.18085 12.2491 4.45747C11.9725 4.73409 11.9725 5.18258 12.2491 5.4592L14.5816 7.79167L6.3747 7.79167ZM7.08329 15.5833C7.4745 15.5833 7.79163 15.9005 7.79163 16.2917C7.79163 16.6829 7.4745 17 7.08329 17L2.12496 17C0.951351 17 -4.00127e-05 16.0486 -3.99614e-05 14.875L-3.94041e-05 2.125C-3.93528e-05 0.951394 0.951356 -7.01508e-07 2.12496 -6.50209e-07L7.08329 -4.33473e-07C7.4745 -4.16373e-07 7.79163 0.317133 7.79163 0.708334C7.79163 1.09953 7.4745 1.41667 7.08329 1.41667L2.12496 1.41667C1.73376 1.41667 1.41663 1.7338 1.41663 2.125L1.41663 14.875C1.41663 15.2662 1.73376 15.5833 2.12496 15.5833L7.08329 15.5833Z" fill="#8A94A6"/>
</g>
<defs>
<clipPath id="clip0">
<rect width="17" height="17" fill="white"/>
</clipPath>
</defs>
</svg>
