<svg xmlns="http://www.w3.org/2000/svg" x="0px" y="0px"
width="24" height="24"
viewBox="0 0 172 172"
style=" fill:#000000;"><g fill="none" fill-rule="nonzero" stroke="none" stroke-width="1" stroke-linecap="butt" stroke-linejoin="miter" stroke-miterlimit="10" stroke-dasharray="" stroke-dashoffset="0" font-family="none" font-weight="none" font-size="none" text-anchor="none" style="mix-blend-mode: normal"><path d="M0,172v-172h172v172z" fill="none"></path><g fill="#ffffff"><path d="M80.94694,28.58268c-1.23267,0 -2.48852,0.46606 -3.51334,1.48372l-34.4336,34.43359h-14.33333c-7.91917,0 -14.33333,6.41417 -14.33333,14.33333v14.33333c0,7.91917 6.41417,14.33333 14.33333,14.33333h14.33333l34.4336,34.4336c1.02483,1.02483 2.28068,1.48372 3.51334,1.48372c2.58,0 5.05306,-2.00073 5.05306,-5.02507v-104.78451c0,-3.02433 -2.47306,-5.02507 -5.05306,-5.02507zM107.43001,57.26335c-2.91628,0.00077 -5.54133,1.76842 -6.6387,4.47035c-1.09737,2.70194 -0.44824,5.79937 1.64164,7.83336l16.43294,16.43294l-16.43294,16.43294c-1.87223,1.79752 -2.62641,4.46675 -1.97168,6.97825c0.65472,2.5115 2.61605,4.47282 5.12755,5.12755c2.5115,0.65472 5.18073,-0.09946 6.97825,-1.97168l16.43294,-16.43294l16.43294,16.43294c1.79752,1.87223 4.46675,2.62641 6.97825,1.97168c2.5115,-0.65472 4.47282,-2.61605 5.12755,-5.12755c0.65472,-2.5115 -0.09946,-5.18073 -1.97168,-6.97825l-16.43294,-16.43294l16.43294,-16.43294c2.11962,-2.06035 2.75694,-5.21064 1.60486,-7.93287c-1.15207,-2.72224 -3.85719,-4.45797 -6.81189,-4.37084c-1.86189,0.05548 -3.62905,0.83363 -4.92708,2.1696l-16.43294,16.43295l-16.43294,-16.43295c-1.34928,-1.38699 -3.20203,-2.16948 -5.13705,-2.1696z"></path></g></g></svg>