<svg width="17" height="17" viewBox="0 0 17 17" fill="none" xmlns="http://www.w3.org/2000/svg">
<path fill-rule="evenodd" clip-rule="evenodd" d="M9.91667 1.4167C9.52546 1.4167 9.20833 1.0995 9.20833 0.708299C9.20833 0.317099 9.52546 -6.53445e-07 9.91667 -6.19244e-07L14.875 -1.85773e-07C16.0486 -8.31732e-08 17 0.951399 17 2.125L17 14.875C17 16.0486 16.0486 17 14.875 17L9.91667 17C9.52546 17 9.20833 16.6829 9.20833 16.2917C9.20833 15.9005 9.52546 15.5833 9.91667 15.5833L14.875 15.5833C15.2662 15.5833 15.5833 15.2662 15.5833 14.875L15.5833 2.125C15.5833 1.7338 15.2662 1.4167 14.875 1.4167L9.91667 1.4167Z" fill="#8A94A6"/>
<path fill-rule="evenodd" clip-rule="evenodd" d="M0.70833 7.54167C0.31713 7.54167 0 7.8588 0 8.25C0 8.6412 0.31713 8.95833 0.70833 8.95833H8.91523L6.58273 11.2908C6.30613 11.5674 6.30613 12.0159 6.58273 12.2925C6.85943 12.5692 7.30783 12.5692 7.58453 12.2925L11.1261 8.75086C11.259 8.61802 11.3336 8.43786 11.3336 8.25C11.3336 8.06214 11.259 7.88196 11.1261 7.74912L7.58453 4.20746C7.30783 3.93084 6.85943 3.93084 6.58273 4.20746C6.30613 4.48408 6.30613 4.93258 6.58273 5.2092L8.91523 7.54167H0.70833Z" fill="#8A94A6"/>
</svg>
