<svg width="70" height="70" viewBox="0 0 70 70" fill="none" xmlns="http://www.w3.org/2000/svg">
<path fill-rule="evenodd" clip-rule="evenodd" d="M61.25 26.25C61.25 37.6794 53.9454 47.4028 43.75 51.0063V61.25C43.75 66.0825 39.8325 70 35 70C30.1675 70 26.25 66.0825 26.25 61.25V51.0063C16.0546 47.4028 8.75 37.6794 8.75 26.25C8.75 11.7525 20.5025 0 35 0C38.0951 0 41.0651 0.535661 43.8223 1.51934C41.8736 2.62803 40.2756 4.28182 39.2355 6.27324C37.8691 5.98496 36.4522 5.83333 35 5.83333C23.7242 5.83333 14.5833 14.9742 14.5833 26.25C14.5833 37.5258 23.7242 46.6667 35 46.6667C46.2758 46.6667 55.4167 37.5258 55.4167 26.25C55.4167 24.7978 55.265 23.3809 54.9768 22.0145C56.9682 20.9744 58.622 19.3763 59.7307 17.4277C60.7143 20.1849 61.25 23.1549 61.25 26.25ZM35 52.5C35.9859 52.5 36.959 52.4457 37.9167 52.3398V61.25C37.9167 62.8608 36.6108 64.1667 35 64.1667C33.3892 64.1667 32.0833 62.8608 32.0833 61.25V52.3398C33.041 52.4457 34.0141 52.5 35 52.5Z" fill="#8BBFEC"/>
<path d="M13.1708 40.8333C11.9662 39.0337 10.9782 37.0768 10.2441 35H59.7568C59.0227 37.0768 58.0347 39.0337 56.8301 40.8333H13.1708Z" fill="#8BBFEC" fill-opacity="0.5"/>
<path fill-rule="evenodd" clip-rule="evenodd" d="M49.5832 17.5C52.8048 17.5 55.4165 14.8883 55.4165 11.6667C55.4165 8.44501 52.8048 5.83333 49.5832 5.83333C46.3615 5.83333 43.7498 8.44501 43.7498 11.6667C43.7498 14.8883 46.3615 17.5 49.5832 17.5ZM49.5832 23.3333C56.0265 23.3333 61.2498 18.11 61.2498 11.6667C61.2498 5.22335 56.0265 0 49.5832 0C43.1398 0 37.9165 5.22335 37.9165 11.6667C37.9165 18.11 43.1398 23.3333 49.5832 23.3333Z" fill="#8BBFEC" fill-opacity="0.5"/>
</svg>
