<svg width="47" height="47" viewBox="0 0 47 47" fill="none" xmlns="http://www.w3.org/2000/svg">
<g clip-path="url(#clip0)">
<path d="M16.3619 27.1264L16.8164 24.5228C17.0717 23.0601 18.968 22.6362 19.8218 23.8511L21.971 26.9091C22.8247 28.124 21.7835 29.7646 20.3208 29.5093L17.7172 29.0549C16.8104 28.8966 16.2036 28.0332 16.3619 27.1264Z" fill="white" fill-opacity="0.5"/>
<path d="M10.1589 14.2009C9.25217 14.0426 8.38878 14.6494 8.23051 15.5562C8.07224 16.4629 8.67901 17.3263 9.58578 17.4846L12.8695 18.0577C13.7762 18.216 14.6396 17.6092 14.7979 16.7025C14.9562 15.7957 14.3494 14.9323 13.4426 14.774L10.1589 14.2009Z" fill="white" fill-opacity="0.5"/>
<path d="M8.43947 24.0519C7.5327 23.8937 6.66932 24.5004 6.51105 25.4072C6.35278 26.314 6.95955 27.1774 7.86631 27.3356L11.15 27.9088C12.0568 28.0671 12.9202 27.4603 13.0784 26.5535C13.2367 25.6468 12.6299 24.7834 11.7232 24.6251L8.43947 24.0519Z" fill="white" fill-opacity="0.5"/>
<path d="M15.9979 38.9062C15.0911 38.7479 14.4844 37.8845 14.6426 36.9777L15.2158 33.6941C15.3741 32.7873 16.2375 32.1805 17.1442 32.3388C18.051 32.4971 18.6578 33.3604 18.4995 34.2672L17.9263 37.5509C17.7681 38.4577 16.9047 39.0644 15.9979 38.9062Z" fill="white" fill-opacity="0.5"/>
<path d="M24.4937 38.6972C24.3354 39.604 24.9422 40.4674 25.849 40.6256C26.7557 40.7839 27.6191 40.1771 27.7774 39.2704L28.3506 35.9867C28.5088 35.0799 27.902 34.2165 26.9953 34.0583C26.0885 33.9 25.2251 34.5068 25.0669 35.4135L24.4937 38.6972Z" fill="white" fill-opacity="0.5"/>
<path fill-rule="evenodd" clip-rule="evenodd" d="M12.5907 9.96046L8.64814 32.5479C8.48987 33.4547 9.09664 34.318 10.0034 34.4763L32.5908 38.4189C34.0536 38.6742 35.0948 37.0335 34.241 35.8187L15.5961 9.28873C14.7424 8.07388 12.846 8.49774 12.5907 9.96046ZM9.307 9.38731L5.36445 31.9747C4.88963 34.695 6.70996 37.2852 9.43025 37.76L32.0177 41.7026C36.4059 42.4685 39.5295 37.5466 36.9682 33.9021L18.3233 7.37209C15.762 3.72758 10.0729 4.99913 9.307 9.38731Z" fill="white"/>
</g>
<defs>
<clipPath id="clip0">
<rect width="40" height="40" fill="white" transform="translate(7.52588 0.206299) rotate(9.90101)"/>
</clipPath>
</defs>
</svg>
