<svg width="4" height="4" viewBox="0 0 4 4" fill="none" xmlns="http://www.w3.org/2000/svg">
<path d="M1.6 0.399983C1.6 0.179078 1.77909 0 2 0C2.22091 0 2.4 0.179078 2.4 0.399983L2.4 2.63437L3.31716 1.71725C3.47337 1.56105 3.72663 1.56105 3.88284 1.71725C4.03905 1.87346 4.03905 2.12671 3.88284 2.28291L2.28284 3.88285C2.20783 3.95786 2.10609 4 2 4C1.89391 4 1.79217 3.95786 1.71716 3.88285L0.117157 2.28291C-0.0390525 2.12671 -0.0390525 1.87346 0.117157 1.71725C0.273367 1.56105 0.526633 1.56105 0.682843 1.71725L1.6 2.63437L1.6 0.399983Z" fill="black"/>
</svg>
