<svg width="10" height="10" viewBox="0 0 10 10" fill="none" xmlns="http://www.w3.org/2000/svg">
<path fill-rule="evenodd" clip-rule="evenodd" d="M0.833333 5C0.833333 2.69881 2.69881 0.833333 5 0.833333C7.30119 0.833333 9.16667 2.69881 9.16667 5C9.16667 7.30119 7.30119 9.16667 5 9.16667C2.69881 9.16667 0.833333 7.30119 0.833333 5ZM5 0C2.23858 0 0 2.23858 0 5C0 7.76142 2.23858 10 5 10C7.76142 10 10 7.76142 10 5C10 2.23858 7.76142 0 5 0ZM3.52688 3.5269C3.36416 3.68962 3.36416 3.95344 3.52688 4.11616L4.41076 5.00004L3.52682 5.88399C3.3641 6.0467 3.3641 6.31052 3.52682 6.47324C3.68954 6.63596 3.95336 6.63596 4.11608 6.47324L5.00002 5.5893L5.88403 6.4733C6.04675 6.63602 6.31056 6.63602 6.47328 6.4733C6.636 6.31059 6.636 6.04677 6.47328 5.88405L5.58927 5.00004L6.47322 4.11609C6.63594 3.95338 6.63594 3.68956 6.47322 3.52684C6.3105 3.36412 6.04668 3.36412 5.88397 3.52684L5.00002 4.41078L4.11614 3.5269C3.95342 3.36418 3.6896 3.36418 3.52688 3.5269Z" fill="white"/>
</svg>
