<svg width="592" height="401" viewBox="0 0 592 401" fill="none" xmlns="http://www.w3.org/2000/svg">
<path d="M477.654 216.173H274.74C271.73 216.173 269.29 213.727 269.29 210.71V141.588C269.29 138.57 271.73 136.125 274.74 136.125H477.654C480.664 136.125 483.104 138.571 483.104 141.588V210.71C483.104 213.728 480.664 216.173 477.654 216.173Z" fill="#06D4AE"/>
<path d="M541.889 83.9163C541.763 83.7651 541.637 83.6138 541.512 83.4631C541.595 83.4582 541.679 83.4565 541.763 83.4526C540.563 78.5368 542.926 73.329 546.258 69.498C547.735 67.7999 549.482 66.2287 551.627 65.5561C553.867 64.8542 556.297 65.2043 558.571 65.7827C565.207 67.4714 571.342 71.0936 576.031 76.093C577.555 77.7174 579.015 79.8055 578.582 81.9922C578.098 84.4349 575.351 86.656 576.477 88.8754C577.637 91.1629 581.595 90.3319 583.017 92.4665C585.207 95.7552 578.421 99.6998 580.164 103.248C581.057 105.067 583.518 105.218 585.371 106.031C588.924 107.59 590.347 112.666 588.124 115.852C586.147 118.686 581.765 120.701 582.592 124.059C582.882 125.237 583.803 126.133 584.651 126.999C587.435 129.842 589.879 133.135 591.078 136.934C592.277 140.733 592.1 145.097 589.956 148.452C588.857 150.17 587.31 151.548 585.731 152.837C577.863 159.263 574.815 166.014 568.501 173.979C564.556 178.956 555.784 210.843 553.638 219.814C552.012 206.758 548.263 167.93 546.689 165.775C545.115 163.62 544.295 160.591 545.635 158.283C546.612 156.6 548.473 155.69 550.059 154.565C551.645 153.441 553.143 151.671 552.761 149.763C552.584 148.881 552.028 148.129 551.459 147.433C549.656 145.222 547.561 143.201 546.248 140.667C544.935 138.132 544.56 134.842 546.241 132.536C547.818 130.371 550.849 129.42 553.214 128.092C551.195 126.54 548.232 125.482 546.554 123.479C545.273 121.952 544.804 119.778 545.341 117.857C545.909 115.829 547.441 114.263 548.67 112.542C548.417 111.542 548.492 110.538 549.085 109.631C549.399 109.149 549.822 108.769 550.307 108.448C550.372 107.434 550.145 106.457 549.473 105.68C548.45 104.496 546.718 104.179 545.585 103.101C543.787 101.393 544.393 97.8909 546.66 96.8898C547.965 96.3136 549.888 96.164 550.1 94.7513C550.125 94.5873 550.115 94.4266 550.087 94.2693C546.726 91.1457 543.135 88.2 541.889 83.9163Z" fill="#06D4AE"/>
<path d="M524.41 158.732C525.341 156.395 527.504 154.593 527.938 152.114C528.566 148.515 525.407 145.542 523.373 142.51C520.308 137.941 519.602 131.869 521.536 126.716C523.47 121.562 527.993 117.462 533.303 116.05C536.681 115.152 540.401 115.249 543.404 113.456C547.493 111.015 550.756 105.159 555.243 106.75C558.381 107.862 559.118 112.144 558.08 115.313C557.043 118.483 554.831 121.173 553.862 124.364C552.01 130.462 554.987 136.839 557.353 142.755C559.72 148.671 561.346 155.975 557.398 160.972C555.473 163.409 552.393 164.994 551.275 167.893C549.755 171.836 552.532 175.97 553.897 179.969C556.439 187.412 553.536 196.372 547.116 200.898C546.898 191.427 542.499 182.128 535.32 175.965C532.542 173.581 529.362 171.633 526.966 168.863C524.57 166.094 523.054 162.137 524.41 158.732Z" fill="#002E62"/>
<path d="M556.147 215.149C556.011 215.149 555.894 215.049 555.874 214.911C553.837 200.411 550.769 186.807 546.755 174.477C546.708 174.331 546.787 174.175 546.932 174.127C547.078 174.081 547.232 174.159 547.28 174.304C551.304 186.666 554.38 200.302 556.421 214.833C556.442 214.985 556.337 215.125 556.186 215.147C556.173 215.149 556.16 215.149 556.147 215.149Z" fill="#F2F2F2"/>
<path d="M544.524 168.781C541.608 170.767 540.241 173.848 541.471 175.663C542.702 177.479 546.063 177.341 548.98 175.356C551.896 173.37 553.262 170.289 552.032 168.473C550.801 166.658 547.44 166.796 544.524 168.781Z" fill="#C6DDFE"/>
<path d="M546.099 171.917C545.984 171.917 545.877 171.845 545.837 171.729C543.776 165.698 541.436 159.839 538.882 154.314C538.818 154.175 538.878 154.011 539.017 153.946C539.156 153.882 539.32 153.943 539.384 154.081C541.946 159.623 544.294 165.501 546.361 171.55C546.411 171.695 546.334 171.852 546.19 171.902C546.159 171.912 546.129 171.917 546.099 171.917Z" fill="#F2F2F2"/>
<path d="M535.834 148.696C531.432 151.692 528.862 155.593 530.092 157.409C531.323 159.224 535.888 158.267 540.29 155.27C544.691 152.274 547.261 148.373 546.031 146.557C544.8 144.742 540.235 145.699 535.834 148.696Z" fill="#C6DDFE"/>
<path d="M538.233 152.558C538.129 152.558 538.03 152.5 537.983 152.4C537.211 150.784 536.408 149.171 535.596 147.604C533.365 143.3 530.924 139.089 528.341 135.087C528.258 134.959 528.295 134.787 528.423 134.705C528.551 134.621 528.723 134.659 528.805 134.787C531.397 138.803 533.847 143.029 536.086 147.348C536.901 148.921 537.707 150.54 538.481 152.162C538.547 152.3 538.489 152.465 538.352 152.531C538.313 152.549 538.273 152.558 538.233 152.558Z" fill="#F2F2F2"/>
<path d="M525.544 130.404C521.316 134.657 519.068 139.282 520.523 140.736C521.978 142.189 526.586 139.921 530.814 135.668C535.042 131.416 537.29 126.79 535.835 125.337C534.38 123.883 529.772 126.152 525.544 130.404Z" fill="#C6DDFE"/>
<path d="M527.223 133.159C527.134 133.159 527.047 133.115 526.993 133.036C523.532 127.863 519.757 122.944 515.775 118.414C515.674 118.299 515.685 118.124 515.8 118.023C515.914 117.922 516.089 117.932 516.19 118.047C520.188 122.595 523.977 127.534 527.452 132.727C527.537 132.854 527.503 133.026 527.376 133.111C527.329 133.143 527.275 133.159 527.223 133.159Z" fill="#F2F2F2"/>
<path d="M509.555 114.76C506.289 122.268 505.725 129.265 508.295 130.388C510.864 131.511 515.595 126.334 518.86 118.825C522.126 111.316 522.69 104.319 520.121 103.197C517.551 102.074 512.821 107.251 509.555 114.76Z" fill="#C6DDFE"/>
<path d="M513.877 116.169C513.803 116.169 513.728 116.139 513.674 116.08C509.579 111.638 505.206 107.519 500.677 103.837C500.558 103.741 500.539 103.566 500.636 103.447C500.732 103.328 500.906 103.31 501.025 103.407C505.574 107.106 509.967 111.243 514.08 115.704C514.184 115.816 514.177 115.992 514.064 116.096C514.011 116.144 513.944 116.169 513.877 116.169Z" fill="#F2F2F2"/>
<path d="M495.031 98.6478C488.975 105.991 485.817 113.396 487.978 115.185C490.138 116.975 496.799 112.473 502.855 105.13C508.911 97.7861 512.069 90.382 509.908 88.5921C507.748 86.8022 501.087 91.3043 495.031 98.6478Z" fill="#C6DDFE"/>
<path d="M550.211 220.678C550.206 220.678 550.202 220.678 550.198 220.678C550.045 220.671 549.928 220.542 549.934 220.389C551.014 197.07 551.695 169.443 548.568 141.353C548.425 140.064 548.273 138.774 548.113 137.485C548.095 137.333 548.202 137.195 548.354 137.176C548.503 137.154 548.644 137.265 548.662 137.417C548.823 138.708 548.974 140 549.118 141.292C552.25 169.421 551.568 197.074 550.487 220.415C550.479 220.563 550.358 220.678 550.211 220.678Z" fill="#1D72D8"/>
<path d="M549.064 133.87C545.942 133.007 543.15 133.258 542.828 134.43C542.505 135.602 544.774 137.252 547.896 138.115C551.017 138.978 553.809 138.727 554.132 137.555C554.455 136.383 552.186 134.733 549.064 133.87Z" fill="#F2F2F2"/>
<path d="M548.148 135.84C548.011 135.84 547.893 135.738 547.875 135.599C546.836 127.637 545.489 119.842 543.871 112.432C543.838 112.282 543.933 112.135 544.081 112.102C544.23 112.069 544.378 112.164 544.41 112.313C546.032 119.739 547.382 127.549 548.422 135.527C548.442 135.679 548.335 135.818 548.184 135.838C548.172 135.839 548.161 135.84 548.148 135.84Z" fill="#1D72D8"/>
<path d="M545.011 108.969C541.072 107.88 537.618 107.948 537.295 109.12C536.973 110.292 539.904 112.125 543.843 113.214C547.782 114.303 551.236 114.235 551.559 113.063C551.881 111.891 548.95 110.058 545.011 108.969Z" fill="#F2F2F2"/>
<path d="M543.732 110.814C543.606 110.814 543.492 110.727 543.463 110.598C541.939 103.857 540.145 97.2543 538.133 90.9723C538.087 90.8265 538.167 90.6709 538.312 90.6238C538.458 90.5767 538.613 90.6576 538.66 90.8027C540.676 97.1003 542.474 103.719 544.002 110.475C544.036 110.624 543.942 110.773 543.794 110.807C543.773 110.812 543.752 110.814 543.732 110.814Z" fill="#1D72D8"/>
<path d="M538.209 85.7205C533.071 86.164 529.04 88.0849 529.205 90.0109C529.371 91.9369 533.67 93.1387 538.809 92.6951C543.947 92.2516 547.978 90.3308 547.813 88.4048C547.647 86.4787 543.348 85.2769 538.209 85.7205Z" fill="#F2F2F2"/>
<path d="M537.594 88.7108C537.478 88.7108 537.37 88.6376 537.332 88.5219C535.837 84.0398 534.192 79.6143 532.444 75.3683C532.386 75.2271 532.453 75.0647 532.593 75.0066C532.734 74.9489 532.896 75.0154 532.954 75.1567C534.707 79.4143 536.357 83.8515 537.855 88.3457C537.903 88.4908 537.825 88.6476 537.681 88.6964C537.652 88.7063 537.622 88.7108 537.594 88.7108Z" fill="#1D72D8"/>
<path d="M531.823 70.2299C526.511 71.0752 522.428 73.1744 522.705 74.9186C522.981 76.6628 527.511 77.3915 532.823 76.5462C538.135 75.7009 542.217 73.6017 541.941 71.8575C541.665 70.1133 537.135 69.3846 531.823 70.2299Z" fill="#F2F2F2"/>
<path d="M531.828 73.4575C531.721 73.4575 531.619 73.3943 531.574 73.2891C530.438 70.6187 529.236 67.9633 528.002 65.3965C527.627 64.6181 527.248 63.8425 526.862 63.0702C526.794 62.9333 526.85 62.7671 526.986 62.6984C527.123 62.6308 527.289 62.6851 527.357 62.8225C527.743 63.5976 528.124 64.3754 528.5 65.1561C529.737 67.73 530.943 70.3932 532.083 73.0713C532.142 73.212 532.077 73.3749 531.937 73.4348C531.901 73.4503 531.864 73.4575 531.828 73.4575Z" fill="#1D72D8"/>
<path d="M526.377 57.201C520.311 58.1664 515.664 60.6588 515.998 62.768C516.332 64.8773 521.521 65.8046 527.587 64.8392C533.654 63.8739 538.3 61.3814 537.966 59.2722C537.632 57.163 532.444 56.2357 526.377 57.201Z" fill="#F2F2F2"/>
<path d="M525.625 60.3125C525.526 60.3125 525.43 60.2583 525.381 60.1641C524.372 58.2322 523.326 56.3192 522.271 54.4776C522.195 54.3446 522.241 54.1757 522.374 54.0992C522.506 54.0233 522.675 54.0687 522.751 54.2017C523.81 56.0494 524.859 57.969 525.871 59.907C525.942 60.0427 525.89 60.2101 525.754 60.281C525.712 60.3026 525.669 60.3125 525.625 60.3125Z" fill="#1D72D8"/>
<path d="M569.383 188.739H535.748V231.3H569.383V188.739Z" fill="url(#paint0_linear_201_22329)"/>
<path d="M248.623 231.3H263.979C266.99 231.3 269.429 228.854 269.429 225.838V172.382C269.429 169.365 266.989 166.919 263.979 166.919H248.623C245.613 166.919 243.173 169.365 243.173 172.382V225.838C243.173 228.854 245.613 231.3 248.623 231.3Z" fill="#06D4AE"/>
<path d="M488.41 231.3H503.766C506.777 231.3 509.217 228.854 509.217 225.838V172.382C509.217 169.365 506.776 166.919 503.766 166.919H488.41C485.4 166.919 482.96 169.365 482.96 172.382V225.838C482.96 228.854 485.4 231.3 488.41 231.3Z" fill="#06D4AE"/>
<path d="M476.755 196.094H275.584C272.108 196.094 269.289 198.919 269.289 202.404V224.991C269.289 228.476 272.108 231.3 275.584 231.3H476.755C480.231 231.3 483.05 228.476 483.05 224.991V202.404C483.049 198.919 480.231 196.094 476.755 196.094Z" fill="#002E62"/>
<path d="M320.029 194.42C315.926 198.239 302.946 194.533 297.347 194.533C291.747 194.533 278.766 198.239 274.661 194.42C270.851 190.875 274.528 178.479 274.528 173.268C274.528 168.057 270.851 155.66 274.661 152.113C278.764 148.294 291.744 152.001 297.343 152.001C302.943 152.001 315.925 148.294 320.029 152.113C323.839 155.658 320.163 168.054 320.163 173.265C320.163 178.477 323.839 190.873 320.029 194.42Z" fill="#002E62"/>
<path d="M425.678 194.42C421.576 198.239 408.595 194.533 402.997 194.533C397.397 194.533 384.415 198.239 380.311 194.42C376.501 190.875 380.177 178.479 380.177 173.268C380.177 168.057 376.501 155.66 380.311 152.113C384.413 148.294 397.394 152.001 402.993 152.001C408.593 152.001 421.574 148.294 425.678 152.113C429.489 155.658 425.812 168.054 425.812 173.265C425.813 178.477 429.489 190.873 425.678 194.42Z" fill="black"/>
<path d="M477.245 194.42C473.142 198.239 460.162 194.533 454.563 194.533C448.963 194.533 435.981 198.239 431.877 194.42C428.067 190.875 431.743 178.479 431.743 173.268C431.743 168.057 428.067 155.66 431.877 152.113C435.98 148.294 448.96 152.001 454.559 152.001C460.159 152.001 473.141 148.294 477.245 152.113C481.055 155.658 477.379 168.054 477.379 173.265C477.379 178.477 481.055 190.873 477.245 194.42Z" fill="#A1C3FC"/>
<path d="M287.397 171.438C282.968 171.438 279.364 167.826 279.364 163.387C279.364 158.948 282.968 155.336 287.397 155.336C291.826 155.336 295.43 158.948 295.43 163.387C295.43 167.826 291.826 171.438 287.397 171.438ZM287.397 155.89C283.272 155.89 279.917 159.253 279.917 163.387C279.917 167.521 283.273 170.884 287.397 170.884C291.521 170.884 294.877 167.521 294.877 163.387C294.877 159.253 291.522 155.89 287.397 155.89Z" fill="white"/>
<path d="M446.159 188.806C441.729 188.806 438.126 185.194 438.126 180.755C438.126 176.316 441.729 172.704 446.159 172.704C450.588 172.704 454.191 176.316 454.191 180.755C454.191 185.194 450.588 188.806 446.159 188.806ZM446.159 173.258C442.034 173.258 438.679 176.621 438.679 180.755C438.679 184.889 442.034 188.252 446.159 188.252C450.283 188.252 453.639 184.889 453.639 180.755C453.639 176.621 450.283 173.258 446.159 173.258Z" fill="white"/>
<path d="M285.574 195.954H285.022C285.022 189.387 279.691 184.044 273.14 184.044V183.49C279.996 183.49 285.574 189.081 285.574 195.954Z" fill="white"/>
<path d="M311.503 189.507H295.99C295.838 189.507 295.714 189.383 295.714 189.23V173.682C295.714 173.529 295.838 173.405 295.99 173.405H311.503C311.655 173.405 311.779 173.529 311.779 173.682V189.23C311.779 189.383 311.655 189.507 311.503 189.507ZM296.267 188.953H311.226V173.959H296.267V188.953Z" fill="white"/>
<path d="M321.565 161.773H308.987C308.835 161.773 308.711 161.649 308.711 161.496V150.57H309.264V161.219H321.565V161.773Z" fill="white"/>
<path d="M427.317 156.38L378.635 156.373L378.785 155.826H427.246L427.317 156.38Z" fill="white"/>
<path d="M426.693 180.859H379.249L379.329 180.305H426.626L426.693 180.859Z" fill="white"/>
<path d="M427.349 186.743H378.597L378.635 186.189H427.349V186.743Z" fill="white"/>
<path d="M459.575 171.488C456.505 171.488 454.007 168.985 454.007 165.907C454.007 162.83 456.505 160.327 459.575 160.327C462.646 160.327 465.144 162.83 465.144 165.907C465.144 168.985 462.646 171.488 459.575 171.488ZM459.575 160.881C456.81 160.881 454.56 163.136 454.56 165.907C454.56 168.679 456.809 170.934 459.575 170.934C462.341 170.934 464.591 168.68 464.591 165.907C464.591 163.136 462.341 160.881 459.575 160.881Z" fill="white"/>
<path d="M478.084 193.34C475.014 193.34 472.593 190.836 472.593 187.759C472.593 184.682 475.091 182.178 478.455 182.178L478.515 182.732C475.455 182.732 473.146 184.987 473.146 187.759C473.146 190.531 475.515 192.786 478.28 192.786L478.084 193.34Z" fill="white"/>
<path d="M432.643 9.4624H339.779V102.538H432.643V9.4624Z" fill="#EEEEEE"/>
<path d="M426.009 16.1108H346.412V95.8896H426.009V16.1108Z" fill="white"/>
<path d="M181.516 398.23H85.5093L66.4229 378.565H162.431L181.516 398.23Z" fill="#D6D7D8"/>
<path d="M434.95 208.29C433.506 219.733 432.064 231.176 430.62 242.619C432.175 241.057 434.595 240.843 436.797 240.782C450.851 240.38 451.094 248.254 465.105 247.09C479.115 245.924 507.543 235.104 516.105 223.954C508.237 220.455 499.353 220.377 490.803 219.338C472.928 217.165 455.932 210.622 438.619 205.67C437.825 205.442 436.934 205.229 436.208 205.618C435.306 206.102 435.078 207.273 434.95 208.29Z" fill="black"/>
<path d="M433.676 230.534C427.405 235.287 423.896 243.449 424.767 251.271C425.36 256.597 427.806 261.992 426.231 267.113C424.951 271.275 421.304 274.19 418.783 277.741C408.105 292.787 418.867 316.442 407.307 330.82C401.922 337.518 392.98 340.231 384.446 341.263C376.077 342.276 367.556 342.018 359.263 340.504C362.387 354.594 363.267 369.18 361.858 383.547C389.923 383.653 418.328 381.487 444.979 372.691C446.665 372.135 448.385 371.527 449.729 370.369C452.127 368.303 452.851 364.948 453.477 361.845C461.094 324.094 474.443 287.502 492.925 253.717C473.321 245.622 453.567 237.892 433.676 230.534Z" fill="#F2F2F2"/>
<path d="M491.125 234.777C486.317 245.262 481.511 255.747 476.704 266.23C478.655 265.205 481.029 265.726 483.15 266.328C496.676 270.157 509.532 276.242 523.246 279.329C536.96 282.418 552.342 282.117 563.854 274.047C557.397 268.35 548.944 265.613 541.099 262.058C524.698 254.627 510.444 243.289 495.412 233.377C494.722 232.922 493.939 232.45 493.128 232.604C492.12 232.798 491.552 233.845 491.125 234.777Z" fill="black"/>
<path d="M118.965 373.166L115.626 385.088C115.626 385.088 123.575 375.391 123.416 375.629C123.257 375.868 118.965 373.166 118.965 373.166Z" fill="#F2F2F2"/>
<path d="M446.745 296.114C448.586 292.509 448.426 288.265 448.841 284.241C450.192 271.159 458.523 259.004 470.238 253.024C479.821 269.077 504.126 267.051 519.181 278.137C502.685 317.796 481.322 355.426 455.725 389.918C443.511 392.063 420.413 390.33 411.896 391.291C374.954 395.465 356.258 392.938 319.157 390.541C326.672 376.975 327.448 359.882 321.193 345.694C334.743 340.191 349.668 334.611 363.619 339.002C367.161 340.116 370.482 341.842 374.003 343.018C382.557 345.873 391.822 345.346 400.823 344.789C404.099 344.585 407.515 344.339 410.33 342.655C419.707 337.045 415.336 321.637 422.007 312.982C428.212 304.932 442.121 305.162 446.745 296.114Z" fill="#F2F2F2"/>
<path d="M200.242 363.575C195.886 365.785 191.396 367.733 186.804 369.405C182.448 370.99 177.899 372.339 173.267 372.165C167.943 371.966 161.255 368.418 155.609 367.84C151.33 367.404 147.892 370.343 146.149 370.067C140.674 368.907 137.934 366.364 134.544 363.152C132.326 361.05 127.13 360.082 124.29 358.145C125.697 363.913 122.371 368.749 118.672 373.392C117.043 375.436 113.5 377.359 112.366 375.003C116.515 368.416 119.18 360.899 120.1 353.169C126.881 351.938 134.038 352.861 140.285 355.772C144.17 357.58 147.989 360.203 152.269 359.981C154.915 359.844 172.143 353.107 174.768 352.732C190.962 350.42 182.572 354.392 192.505 350.804C204.039 352.812 203.368 357.503 200.242 363.575Z" fill="#06D4AE"/>
<path d="M123.131 377.605L117.469 374.427L144.314 326.595L149.976 329.773L123.131 377.605Z" fill="black"/>
<path d="M152.516 364.851C151.495 363.957 148.287 362.951 146.945 363.152C142.177 363.867 140.032 365.249 135.703 365.485C130.435 365.772 121.347 368.843 121.409 371.513C121.452 373.244 123.445 374.366 125.154 374.651C126.861 374.936 128.6 374.531 130.284 374.13C136.495 372.647 141.528 371.47 147.74 369.987C148.956 369.697 151.224 368.324 152.111 367.443C153 366.563 153.457 365.673 152.516 364.851Z" fill="#06D4AE"/>
<path d="M233.126 301.052C228.243 309.442 203.623 349.324 200.987 349.266C187.546 348.959 177.468 351.578 167.058 355.05C172.232 360.943 175.194 366.091 173.797 373.807C192.714 374.878 197.893 377.721 219.11 370.473C223.67 349.984 242.668 322.35 242.278 301.363C242.252 299.937 242.154 298.364 241.16 297.343C238.76 294.875 234.854 298.08 233.126 301.052Z" fill="#06D4AE"/>
<path d="M229.049 309.498C230.469 307.456 228.67 301.925 227.207 299.91C221.647 292.247 215.687 287.915 208.714 281.508C213.461 279.317 217.38 267.828 219.11 262.895C225.173 269.534 233.113 281.633 241.847 283.762C238.617 292.807 234.31 301.465 229.049 309.498Z" fill="#06D4AE"/>
<path d="M202.219 244.62C198.207 244.372 194.196 244.124 190.185 243.876C188.263 243.757 186.277 243.647 184.47 244.31C183.197 244.778 182.091 245.6 181.006 246.413C176.669 249.66 172.052 253.311 170.708 258.56C169.228 264.344 172.347 270.54 176.966 274.32C178.571 275.634 180.393 276.772 181.525 278.511C183.156 281.021 182.926 284.591 180.986 286.871C186.324 287.487 190.21 292.448 195.419 293.759C198.252 294.472 201.237 294.042 204.112 293.525C207.585 292.9 211.098 292.127 214.163 290.378C219.98 287.055 223.453 280.445 224.054 273.775C224.656 267.103 222.675 260.408 219.602 254.454C218.305 251.944 216.759 249.473 214.488 247.791C211.042 245.244 206.498 244.886 202.219 244.62Z" fill="#06D4AE"/>
<path d="M219.72 269.158C215.077 267.275 209.887 269.288 204.903 269.793C194.681 270.827 185.039 265.41 176.194 260.179C174.05 258.912 171.84 257.583 170.421 255.537C169.288 253.904 168.749 251.918 168.583 249.938C167.826 240.83 175.964 231.985 185.102 231.981C187.554 231.98 190.123 232.503 192.382 231.55C197.123 229.547 197.719 222.395 202.329 220.108C207.43 217.577 213.781 222.646 219.069 220.529C223.344 218.817 224.759 213.287 228.609 210.755C233.773 207.361 240.641 210.669 245.562 214.406C250.484 218.141 256.033 222.618 262.084 221.371C266.476 220.466 269.757 216.702 274.015 215.29C279.425 213.496 285.215 215.763 290.762 217.067C296.309 218.371 303.279 218.139 306.29 213.302C308.97 220.569 296.302 225.147 295.892 232.882C295.605 238.303 301.634 242.918 300.399 248.205C299.01 254.143 289.134 257.527 291.596 263.108C292.19 264.456 293.43 265.382 294.415 266.476C298.556 271.076 297.347 279.354 292.064 282.577C288.142 275.961 282.26 268.383 274.692 269.75C270.81 270.452 267.591 273.508 263.662 273.863C254.588 274.683 248.925 261.281 239.858 262.183C235.123 263.374 235.719 271.459 231.228 273.375C227.32 275.042 223.653 270.754 219.72 269.158Z" fill="#F2F2F2"/>
<path d="M172.714 258.25C172.579 258.25 172.444 258.209 172.328 258.121C167.57 254.583 164.984 248.497 165.739 242.618C166.496 236.737 170.538 231.504 176.036 229.285C177.915 228.529 179.957 228.097 181.933 227.681C185.42 226.947 188.712 226.254 191.03 223.906C192.133 222.788 192.96 221.308 193.758 219.877C194.982 217.685 196.248 215.417 198.578 214.246C201.364 212.848 204.44 213.596 207.415 214.32C210.176 214.99 212.782 215.625 215.125 214.665C217.696 213.611 219.079 211.009 220.545 208.255C222.046 205.433 223.599 202.514 226.575 201.264C226.903 201.126 227.286 201.28 227.424 201.612C227.564 201.942 227.408 202.322 227.077 202.461C224.528 203.531 223.151 206.121 221.691 208.864C220.183 211.7 218.622 214.634 215.619 215.865C212.888 216.985 209.951 216.272 207.11 215.581C204.238 214.883 201.523 214.224 199.164 215.407C197.189 216.399 196.074 218.397 194.894 220.509C194.053 222.016 193.184 223.573 191.956 224.816C189.365 227.442 185.723 228.207 182.203 228.95C180.281 229.354 178.298 229.771 176.523 230.488C171.532 232.502 167.716 237.443 167.029 242.782C166.341 248.12 168.783 253.866 173.102 257.078C173.391 257.293 173.449 257.699 173.237 257.987C173.109 258.159 172.912 258.25 172.714 258.25Z" fill="#F2F2F2"/>
<path d="M241.475 325.697C240.895 319.669 239.049 313.832 238.137 307.844C237.226 301.857 237.344 295.4 240.407 290.173C243.47 284.947 242.793 277.991 248.424 280.219C253.408 282.193 263.338 291.089 265.956 295.766C273.391 309.045 284.615 319.726 295.665 330.192C298.897 333.252 302.168 336.341 306.033 338.546C314.173 343.189 324.175 342.276 333.378 340.516C335.782 357.749 337.441 376.243 338.353 393.62C310.333 396.621 281.254 388.163 259.215 370.602C251.937 364.804 245.156 357.626 242.825 348.62C240.905 341.191 242.21 333.334 241.475 325.697Z" fill="#06D4AE"/>
<path d="M178.474 281.209C178.414 281.209 178.352 281.209 178.292 281.208C177.933 281.202 177.648 280.906 177.655 280.546C177.662 280.192 177.951 279.909 178.305 279.909C178.352 279.907 178.418 279.911 178.476 279.911C181.889 279.911 185.266 277.791 186.736 274.709C186.889 274.385 187.275 274.248 187.602 274.403C187.925 274.557 188.063 274.945 187.909 275.269C186.231 278.786 182.371 281.209 178.474 281.209Z" fill="#F2F2F2"/>
<path d="M218.867 364.779C215.505 372.522 213.636 380.909 213.394 389.345C209.804 388.003 206.212 386.663 202.621 385.322C200.539 380.318 198.016 375.497 195.088 370.934C193.824 369.151 202.862 360.409 206.052 354.705C207.569 351.991 214.595 361.421 218.867 364.779Z" fill="#06D4AE"/>
<path d="M199.565 376.924C197.686 378.474 195.937 380.292 195.365 382.437C194.245 386.629 197.735 390.298 200.991 393.242C203.167 395.213 207.054 397.343 209.691 398.633C213.998 400.739 216.916 400.859 219.61 400.439C223.184 399.882 223.545 395.505 224.298 392.402C225.411 387.832 222.368 385.529 223.483 380.96C224.066 378.56 224.649 376.041 223.879 373.767C223.109 371.494 211.353 367.21 199.565 376.924Z" fill="#06D4AE"/>
<path d="M251.533 281.456C253.249 283.286 253.777 285.851 254.171 288.298C260.067 324.81 250.152 363.788 227.201 394.336C225.593 396.476 223.842 398.647 221.408 399.882C218.973 401.117 212.341 397.655 211.475 393.855C209.299 358.997 220.895 329.614 230.85 295.7C232.256 290.909 233.83 285.873 237.609 282.39C241.384 278.906 248.12 277.817 251.533 281.456Z" fill="#A1C3FC"/>
<path d="M199.445 285.411C201.658 285.411 203.452 283.617 203.452 281.404C203.452 279.191 201.658 277.397 199.445 277.397C197.232 277.397 195.438 279.191 195.438 281.404C195.438 283.617 197.232 285.411 199.445 285.411Z" fill="#06D4AE"/>
<path d="M455.322 278.034C455.466 277.984 455.512 277.888 455.465 277.745C455.415 277.6 455.319 277.554 455.175 277.601C455.031 277.651 454.985 277.747 455.032 277.89C455.082 278.036 455.225 277.986 455.322 278.034ZM470.597 261.094C470.692 261.143 470.837 261.093 470.885 260.996C470.934 260.9 470.884 260.755 470.787 260.708C470.691 260.659 470.547 260.709 470.498 260.806C470.307 260.951 470.452 261.144 470.597 261.094ZM462.33 269.136C462.426 269.184 462.524 269.231 462.666 269.182C462.715 269.086 462.761 268.989 462.712 268.845C462.616 268.797 462.52 268.751 462.376 268.799C462.186 268.945 462.235 269.088 462.33 269.136ZM476.363 295.204C476.508 295.395 476.749 295.393 476.94 295.247C477.132 295.102 477.129 294.862 476.985 294.67C476.839 294.48 476.599 294.481 476.408 294.627C476.121 294.725 476.17 295.109 476.363 295.204ZM469.195 287.848C469.341 288.038 469.581 288.037 469.772 287.891C469.962 287.746 469.961 287.506 469.817 287.314C469.671 287.124 469.431 287.125 469.24 287.271C469.046 287.415 469.048 287.656 469.195 287.848ZM462.072 280.392C462.217 280.583 462.457 280.581 462.649 280.436C462.839 280.29 462.838 280.05 462.694 279.858C462.548 279.668 462.308 279.669 462.117 279.815C461.924 279.961 461.925 280.201 462.072 280.392ZM455.781 302.946C455.971 302.801 456.067 302.607 456.065 302.368C455.92 302.177 455.727 302.083 455.487 302.084C455.297 302.23 455.201 302.423 455.25 302.566C455.301 302.95 455.493 303.045 455.781 302.946ZM451.964 293.4C452.154 293.255 452.25 293.061 452.249 292.822C452.103 292.631 451.911 292.537 451.671 292.538C451.48 292.684 451.384 292.877 451.433 293.02C451.531 293.307 451.82 293.45 451.964 293.4ZM484.022 275.961C484.215 276.056 484.502 275.957 484.597 275.765C484.691 275.572 484.593 275.285 484.4 275.191C484.208 275.096 483.92 275.194 483.826 275.386C483.73 275.578 483.831 275.865 484.022 275.961ZM474.567 271.793C474.761 271.888 475.047 271.789 475.142 271.597C475.236 271.404 475.138 271.118 474.945 271.023C474.753 270.928 474.465 271.027 474.371 271.219C474.274 271.412 474.373 271.698 474.567 271.793ZM465.207 267.674C465.401 267.769 465.687 267.67 465.781 267.478C465.876 267.285 465.778 266.998 465.585 266.904C465.392 266.809 465.105 266.907 465.01 267.099C464.869 267.386 465.014 267.579 465.207 267.674ZM446.331 306.33C446.475 306.28 446.714 306.04 446.568 305.848C446.518 305.703 446.277 305.465 446.086 305.61C445.941 305.66 445.703 305.9 445.848 306.092C445.848 306.334 446.041 306.429 446.331 306.33ZM476.226 282.315C476.42 282.41 476.66 282.409 476.755 282.215C476.849 282.022 476.801 281.879 476.655 281.687C476.463 281.592 476.221 281.593 476.127 281.787C476.031 281.98 476.033 282.22 476.226 282.315ZM468.211 277.897C468.405 277.991 468.645 277.99 468.74 277.797C468.834 277.604 468.786 277.46 468.64 277.268C468.446 277.174 468.206 277.175 468.112 277.368C468.015 277.563 468.019 277.802 468.211 277.897ZM460.244 273.385C460.438 273.479 460.678 273.478 460.772 273.285C460.867 273.092 460.818 272.949 460.673 272.757C460.479 272.662 460.239 272.663 460.144 272.856C460 273.144 460.05 273.289 460.244 273.385ZM460.003 294.115C460.148 294.305 460.388 294.304 460.58 294.158C460.77 294.012 460.769 293.773 460.624 293.581C460.479 293.39 460.239 293.392 460.047 293.537C459.854 293.683 459.809 294.02 460.003 294.115ZM454.276 286.989C454.421 287.18 454.661 287.178 454.806 287.13C454.996 286.984 454.995 286.745 454.85 286.553C454.705 286.362 454.465 286.363 454.273 286.509C454.129 286.555 454.13 286.797 454.276 286.989ZM477.542 263.789C477.782 263.788 477.926 263.738 477.925 263.498C477.924 263.258 477.778 263.066 477.634 263.116C477.394 263.117 477.201 263.263 477.204 263.503C477.204 263.503 477.348 263.694 477.542 263.789ZM468.492 262.696C468.732 262.695 468.925 262.549 468.923 262.308C468.921 262.068 468.776 261.876 468.535 261.878C468.295 261.879 468.102 262.025 468.152 262.169C468.104 262.506 468.251 262.698 468.492 262.696C468.394 262.648 468.492 262.696 468.492 262.696ZM453.351 313.015C453.496 313.205 453.736 313.204 453.928 313.058C454.119 312.912 454.117 312.673 453.972 312.481C453.827 312.291 453.587 312.292 453.395 312.438C453.203 312.585 453.205 312.824 453.351 313.015ZM446.705 304.836C446.85 305.027 447.09 305.025 447.282 304.88C447.472 304.734 447.471 304.494 447.327 304.302C447.181 304.112 446.941 304.113 446.75 304.259C446.603 304.307 446.558 304.645 446.705 304.836ZM475.014 274.052C475.254 274.05 475.447 273.904 475.444 273.664C475.443 273.423 475.297 273.231 475.056 273.234C474.816 273.235 474.623 273.381 474.626 273.622C474.531 273.814 474.774 274.053 475.014 274.052ZM464.425 272.921C464.665 272.92 464.857 272.774 464.855 272.533C464.854 272.293 464.708 272.101 464.467 272.103C464.227 272.105 464.034 272.251 464.037 272.491C464.086 272.636 464.185 272.922 464.425 272.921ZM463.319 293.948C463.513 294.042 463.799 293.944 463.894 293.752C463.988 293.559 463.89 293.272 463.697 293.177C463.504 293.083 463.217 293.181 463.123 293.373C463.027 293.565 463.128 293.853 463.319 293.948ZM454.049 288.915C454.243 289.009 454.529 288.911 454.624 288.719C454.719 288.526 454.62 288.239 454.428 288.144C454.234 288.05 453.948 288.148 453.853 288.34C453.757 288.531 453.76 288.771 454.049 288.915ZM461.54 300.982C461.734 301.077 462.02 300.978 462.114 300.786C462.209 300.593 462.11 300.307 461.918 300.212C461.724 300.117 461.484 300.118 461.343 300.408C461.25 300.601 461.348 300.887 461.54 300.982ZM452.46 295.562C452.653 295.656 452.94 295.558 453.035 295.366C453.129 295.173 453.128 294.932 452.838 294.791C452.645 294.697 452.358 294.795 452.165 294.941C452.169 295.18 452.267 295.467 452.46 295.562ZM463.794 279.082C464.034 279.081 464.227 278.935 464.321 278.742C464.32 278.501 464.175 278.309 463.982 278.214C463.742 278.216 463.549 278.362 463.455 278.555C463.36 278.749 463.601 278.987 463.794 279.082Z" fill="white"/>
<path d="M70.2955 109.763L69.6191 109.629C70.6702 104.321 71.9834 99.9628 73.2544 95.7488C75.5979 87.9698 77.8127 80.6216 77.6793 68.9817L78.3697 68.9736C78.5051 80.7194 76.2756 88.1165 73.916 95.9477C72.6491 100.146 71.3412 104.488 70.2955 109.763Z" fill="#A1C3FC"/>
<path d="M82.1311 188.66H0V192.109H82.1311V188.66Z" fill="#EEEEEE"/>
<path d="M136.665 143.792C136.673 142.354 136.682 140.918 136.69 139.48C137.31 139.377 137.922 139.236 138.523 139.051C137.91 139.007 137.298 138.931 136.693 138.827C136.694 138.209 136.684 137.578 136.637 136.954C137.184 136.675 137.716 136.367 138.227 136.028C137.678 136.141 137.129 136.254 136.58 136.367C136.505 135.731 136.385 135.112 136.186 134.534C136.628 134.326 137.035 134.043 137.38 133.697C136.829 133.668 136.281 133.61 135.733 133.539C135.582 133.279 135.409 133.03 135.206 132.8C134.89 132.443 134.494 132.134 134.04 132.088C133.32 132.015 132.749 132.587 132.348 133.283C132.326 133.247 132.307 133.208 132.283 133.173C131.93 132.652 131.362 132.312 130.78 132.071C131.168 132.772 131.556 133.473 131.944 134.174C131.806 134.543 131.684 134.919 131.576 135.302C130.923 135.528 130.276 135.769 129.642 136.041C130.191 136.188 130.751 136.29 131.315 136.35C131.135 137.201 131.016 138.077 130.945 138.969C130.353 139.023 129.758 139.055 129.164 139.057C129.73 139.294 130.31 139.5 130.899 139.678C130.854 140.538 130.848 141.41 130.871 142.284C130.123 142.054 129.333 141.958 128.554 142.023C129.277 142.533 130.072 142.94 130.908 143.234C131.002 145.192 131.214 147.142 131.402 148.975C132.796 148.145 135.163 149.346 136.637 148.7C136.645 147.212 136.654 145.723 136.662 144.235C137.191 144.26 137.717 144.337 138.227 144.473C137.713 144.234 137.191 144.008 136.665 143.792Z" fill="#A1C3FC"/>
<path d="M104.73 75.3621C104.234 74.7377 103.689 74.1254 103.422 73.3737C102.854 71.7778 103.663 70.0647 104.24 68.4722C104.818 66.8797 105.045 64.8082 103.72 63.753C102.614 62.8713 100.696 62.9658 100.153 61.66C99.9509 61.175 100.019 60.6256 99.9462 60.105C99.6365 57.868 96.7406 56.8055 94.6029 57.5377C92.4652 58.2693 90.9683 60.1546 89.5955 61.9488C89.0954 62.6027 88.6289 63.6317 89.2778 64.1382C89.8945 64.6199 90.959 64.0545 91.5147 64.6059C91.9598 65.048 91.6729 65.8212 91.2506 66.2848C90.8276 66.7484 90.2645 67.1584 90.1512 67.7761C89.9354 68.9546 91.4269 69.6561 92.6147 69.8142C93.8025 69.9723 95.3095 70.2798 95.5287 71.4562C93.9353 73.3429 92.2346 75.7306 93.039 78.0661C93.9694 80.7661 97.2789 81.9271 99.7947 83.2811C104.47 85.7968 106.335 90.9636 107.345 96.1732C110.359 89.4656 109.311 81.1158 104.73 75.3621Z" fill="#002E62"/>
<path d="M105.491 28.0537C105.439 28.5066 105.405 28.9662 105.405 29.4332C105.405 36.0363 110.761 41.3893 117.368 41.3893C123.975 41.3893 129.331 36.0363 129.331 29.4332C129.331 28.9662 129.297 28.5066 129.245 28.0537C129.245 28.0537 105.491 28.0537 105.491 28.0537Z" fill="#06D4AE"/>
<path d="M81.1919 5.73355L81.2958 0.0294784L81.1537 0L78.9141 5.24649L81.1919 5.73355Z" fill="#A1C3FC"/>
<path d="M73.8536 40.0382L81.2256 5.59717L78.9483 5.11026L71.5763 39.5513L73.8536 40.0382Z" fill="#A1C3FC"/>
<path d="M80.1064 2.45207L81.2467 2.69594L81.2956 0.0294784L81.1535 0L80.1064 2.45207Z" fill="#A1C3FC"/>
<path d="M74.0399 11.8399L72.7569 7.39062L72.6396 7.40134L72.1562 12.006L74.0399 11.8399Z" fill="#A1C3FC"/>
<path d="M76.5434 40.2018L74.0264 11.7266L72.1434 11.8928L74.6604 40.368L76.5434 40.2018Z" fill="#A1C3FC"/>
<path d="M72.4141 9.55394L73.3572 9.47019L72.7573 7.39062L72.64 7.40134L72.4141 9.55394Z" fill="#A1C3FC"/>
<path d="M64.9226 72.2178H57.1748V109.968H64.9226V72.2178Z" fill="#A1C3FC"/>
<path d="M76.3422 166.508H71.8154V188.565H76.3422V166.508Z" fill="#A1C3FC"/>
<path d="M70.3608 166.508H65.834V188.565H70.3608V166.508Z" fill="#A1C3FC"/>
<path d="M64.3793 166.508H59.8525V188.565H64.3793V166.508Z" fill="#A1C3FC"/>
<path d="M58.3979 166.508H53.8711V188.565H58.3979V166.508Z" fill="#A1C3FC"/>
<path d="M43.1356 187.282L47.4297 188.713L54.4123 167.791L50.1182 166.359L43.1356 187.282Z" fill="#A1C3FC"/>
<path d="M44.9897 108.963L49.252 110.026L56.975 79.091L52.7127 78.0281L44.9897 108.963Z" fill="#06D4AE"/>
<path d="M37.2683 108.307L41.4062 109.781L52.1149 79.7488L47.9769 78.275L37.2683 108.307Z" fill="#A1C3FC"/>
<path d="M94.2448 226.961H86.4971V264.711H94.2448V226.961Z" fill="#A1C3FC"/>
<path d="M98.7125 232.769L94.4502 233.832L102.173 264.767L106.435 263.704L98.7125 232.769Z" fill="#A1C3FC"/>
<path d="M103.452 233.011L99.3145 234.484L110.023 264.517L114.161 263.043L103.452 233.011Z" fill="#A1C3FC"/>
<path d="M117.572 110.198H97.3187L93.7773 86.603H121.112L117.572 110.198Z" fill="#A1C3FC"/>
<path d="M127.495 41.6784H107.242L103.701 38.3179H131.036L127.495 41.6784Z" fill="#A1C3FC"/>
<path d="M135.62 209.933H96.7979V217.434H135.62V209.933Z" fill="#06D4AE"/>
<path d="M129.924 202.431H91.1025V209.932H129.924V202.431Z" fill="#A1C3FC"/>
<path d="M83.1657 150.61H44.3438V158.111H83.1657V150.61Z" fill="#A1C3FC"/>
<path d="M77.4714 143.109H38.6494V150.61H77.4714V143.109Z" fill="#D6D7D8"/>
<path d="M79.5422 135.521H48.3125V143.022H79.5422V135.521Z" fill="#A1C3FC"/>
<path d="M107.153 90.2616C107.078 85.7802 107.327 81.2927 107.892 76.8462L107.153 90.2616Z" fill="#A1C3FC"/>
<path d="M107.152 90.6066C106.964 90.6066 106.81 90.4558 106.807 90.2676C106.732 85.7942 106.981 81.2639 107.548 76.8026C107.572 76.6137 107.756 76.475 107.934 76.5031C108.123 76.5273 108.258 76.6994 108.234 76.889C107.672 81.3182 107.424 85.8143 107.498 90.2548C107.501 90.4451 107.349 90.6025 107.159 90.6059C107.156 90.6066 107.154 90.6066 107.152 90.6066Z" fill="#A1C3FC"/>
<path d="M105.743 76.1319C105.686 76.6006 106.656 77.1048 107.91 77.2582C109.163 77.4116 110.226 77.1561 110.284 76.6874C110.341 76.2188 109.371 75.7145 108.117 75.5611C106.864 75.4077 105.801 75.6633 105.743 76.1319Z" fill="#A1C3FC"/>
<path d="M107.96 76.307C108.294 73.7913 108.729 71.289 109.264 68.8081L107.96 76.307Z" fill="#A1C3FC"/>
<path d="M107.96 76.6517C107.945 76.6517 107.93 76.651 107.915 76.649C107.726 76.6235 107.592 76.45 107.617 76.2611C107.952 73.7433 108.392 71.2109 108.926 68.734C108.967 68.5471 109.148 68.4339 109.337 68.4694C109.523 68.5102 109.641 68.6931 109.601 68.8801C109.071 71.3382 108.635 73.8525 108.302 76.3522C108.279 76.5264 108.131 76.6517 107.96 76.6517Z" fill="#A1C3FC"/>
<path d="M106.635 68.1857C106.621 68.7542 107.844 69.2449 109.365 69.2818C110.887 69.3186 112.131 68.8875 112.145 68.319C112.159 67.7504 110.936 67.2597 109.415 67.2229C107.893 67.1861 106.649 67.6171 106.635 68.1857Z" fill="#A1C3FC"/>
<path d="M109.407 68.1558C109.864 66.1084 110.387 64.0764 110.978 62.0645L109.407 68.1558Z" fill="#A1C3FC"/>
<path d="M109.406 68.5015C109.382 68.5015 109.357 68.4988 109.332 68.4935C109.145 68.4513 109.029 68.2677 109.07 68.0814C109.527 66.0314 110.057 63.9746 110.647 61.9673C110.7 61.7844 110.893 61.6806 111.075 61.7335C111.258 61.7865 111.362 61.9787 111.309 62.161C110.723 64.1548 110.197 66.1968 109.743 68.2308C109.708 68.3923 109.564 68.5015 109.406 68.5015Z" fill="#A1C3FC"/>
<path d="M108.745 60.5563C108.558 61.0931 109.57 61.9356 111.006 62.438C112.443 62.9405 113.76 62.9126 113.948 62.3758C114.136 61.839 113.124 60.9965 111.687 60.4941C110.25 59.9917 108.933 60.0195 108.745 60.5563Z" fill="#A1C3FC"/>
<path d="M111.226 61.2335C111.689 59.7073 112.191 58.1925 112.733 56.6904L111.226 61.2335Z" fill="#A1C3FC"/>
<path d="M111.225 61.5783C111.192 61.5783 111.158 61.5736 111.125 61.5636C110.942 61.5086 110.84 61.3157 110.895 61.1334C111.359 59.6039 111.868 58.071 112.406 56.5743C112.471 56.3948 112.671 56.3043 112.848 56.366C113.028 56.431 113.121 56.6279 113.057 56.8075C112.522 58.2928 112.016 59.8156 111.556 61.3344C111.511 61.4825 111.374 61.5783 111.225 61.5783Z" fill="#A1C3FC"/>
<path d="M109.544 54.6891C109.292 55.4089 110.649 56.5386 112.576 57.2124C114.502 57.8862 116.268 57.8488 116.52 57.129C116.772 56.4092 115.415 55.2795 113.488 54.6057C111.562 53.9319 109.796 53.9693 109.544 54.6891Z" fill="#A1C3FC"/>
<path d="M113.104 55.6734C113.476 54.6771 113.864 53.6869 114.27 52.7041L113.104 55.6734Z" fill="#A1C3FC"/>
<path d="M113.104 56.0187C113.063 56.0187 113.023 56.012 112.983 55.9972C112.804 55.9302 112.713 55.7319 112.78 55.5531C113.151 54.5588 113.545 53.5559 113.95 52.5731C114.022 52.3962 114.225 52.3124 114.4 52.3861C114.576 52.4578 114.66 52.6602 114.587 52.8357C114.185 53.8118 113.795 54.8074 113.425 55.7942C113.376 55.9336 113.244 56.0187 113.104 56.0187Z" fill="#A1C3FC"/>
<path d="M70.0525 113.472H18.9795V62.4277H70.0525V113.472ZM22.4304 110.023H66.6016V65.8767H22.4304V110.023Z" fill="#EEEEEE"/>
<path d="M139.795 45.1827H94.9336V0.34668H139.795V45.1827H139.795ZM98.3845 41.7337H136.344V3.79566H98.3845V41.7337Z" fill="#D6D7D8"/>
<path d="M146.661 161.068H14.1475V110.023H146.661V161.068ZM17.599 157.619H143.211V113.472H17.599V157.619Z" fill="#D6D7D8"/>
<path d="M146.661 267.985H14.1475V216.94H146.661V267.985ZM17.599 264.536H143.211V220.389H17.599V264.536Z" fill="#D6D7D8"/>
<path d="M83.1648 44.1484H79.7139V112.438H83.1648V44.1484Z" fill="#D6D7D8"/>
<path d="M83.1648 159.344H79.7139V266.261H83.1648V159.344Z" fill="#D6D7D8"/>
<path d="M153.91 41.7339H56.5947V45.1829H153.91V41.7339Z" fill="#EEEEEE"/>
<path d="M139.1 147.242H128.687V157.649H139.1V147.242Z" fill="#EEEEEE"/>
<path d="M49.1865 216.886H32.1117L29.126 214.052H52.1715L49.1865 216.886Z" fill="#A1C3FC"/>
<path d="M30.6369 205.398C30.5926 205.78 30.5645 206.167 30.5645 206.561C30.5645 212.128 35.0805 216.641 40.6497 216.641C46.2202 216.641 50.7356 212.128 50.7356 206.561C50.7356 206.167 50.7074 205.78 50.6632 205.398H30.6369Z" fill="#A1C3FC"/>
<path d="M61.7022 241.292H32.8984V264.882H61.7022V241.292Z" fill="#A1C3FC"/>
<path d="M38.0629 239.838L41.1553 242.928L44.2476 239.838L41.1553 236.747L38.0629 239.838Z" fill="#A1C3FC"/>
<path d="M50.3735 239.838L53.4658 242.928L56.5582 239.838L53.4658 236.747L50.3735 239.838Z" fill="#A1C3FC"/>
<path d="M42.1345 239.126H39.374C39.374 235.937 39.4652 232.64 40.5552 230.461C41.7242 228.124 44.7642 225.672 47.7117 225.791C51.2725 225.933 54.0631 229.285 54.6316 231.547C55.2161 233.873 54.9574 238.062 54.9004 238.879L52.1466 238.684C52.3042 236.471 52.3048 233.613 51.9549 232.22C51.6533 231.022 49.8447 228.639 47.6017 228.548C46.0553 228.511 43.8794 229.987 43.0254 231.696C42.1345 233.473 42.1345 237.012 42.1345 239.126Z" fill="#A1C3FC"/>
<path d="M80.7509 20.4663H66.9473V42.0794H80.7509V20.4663Z" fill="#A1C3FC"/>
<path d="M74.2021 109.786L73.5352 109.606C78.5319 91.1099 80.1326 76.0096 78.7249 60.646L79.412 60.583C80.8284 76.0324 79.221 91.2071 74.2021 109.786Z" fill="#A1C3FC"/>
<path d="M72.137 109.762L71.46 109.628C72.1156 106.321 72.8301 103.053 73.5212 99.8911C76.0967 88.1124 78.5307 76.9863 78.3691 63.0022L79.0596 62.9941C79.2211 77.0567 76.7804 88.2196 74.1956 100.038C73.5052 103.197 72.7906 106.461 72.137 109.762Z" fill="#A1C3FC"/>
<defs>
<linearGradient id="paint0_linear_201_22329" x1="569.383" y1="210.019" x2="535.748" y2="210.019" gradientUnits="userSpaceOnUse">
<stop stop-color="#EEEEEE"/>
<stop offset="1" stop-color="#D6D7D8"/>
</linearGradient>
</defs>
</svg>
