<svg width="579" height="449" viewBox="0 0 579 449" fill="none" xmlns="http://www.w3.org/2000/svg">
<path d="M439.123 1.75562L413.986 14.6251H445.725L439.123 1.75562Z" fill="#A1C3FC"/>
<path d="M326.064 59.6293H468.818L456.665 35.9436H372.342L326.064 59.6293Z" fill="#A1C3FC"/>
<path d="M238.144 104.633H491.91L479.756 80.9476H284.417L238.144 104.633Z" fill="#A1C3FC"/>
<path d="M250.04 149.638H515.006L502.85 125.952H237.886L250.04 149.638Z" fill="#A1C3FC"/>
<path d="M273.136 194.642H538.097L525.944 170.956H260.982L273.136 194.642Z" fill="#A1C3FC"/>
<path d="M296.227 239.646H486.767L533.04 215.96H284.073L296.227 239.646Z" fill="#A1C3FC"/>
<path d="M319.321 284.648H398.848L445.123 260.964H307.167L319.321 284.648Z" fill="#A1C3FC"/>
<path d="M335.864 316.889L357.203 305.966H330.259L335.864 316.889Z" fill="#A1C3FC"/>
<path d="M370.874 126.379L234.362 329.179L47.4009 202.8L183.913 0L370.874 126.379Z" fill="#06D4AE"/>
<path d="M168.11 249.608L168.15 249.687C168.165 249.646 168.183 249.606 168.199 249.565L168.11 249.608Z" fill="#004593"/>
<path d="M214.113 191.97C213.627 192.292 213.144 192.617 212.663 192.946L214.215 192.179L214.113 191.97Z" fill="#004593"/>
<path d="M239.582 179.618L239.383 179.214C236.155 180.386 233.004 181.711 229.913 183.144L230.415 184.158L239.582 179.618Z" fill="#004593"/>
<path d="M181.167 224.532C179.25 227.352 177.47 230.27 175.793 233.255L183.582 229.399L181.167 224.532Z" fill="#004593"/>
<path d="M199.788 221.38L195.24 212.223L204.409 207.683L208.956 216.838L199.788 221.38Z" fill="#004593"/>
<path d="M225.149 208.818L220.601 199.663L229.771 195.123L234.318 204.278L225.149 208.818Z" fill="#004593"/>
<path d="M250.515 196.26L245.968 187.103L255.136 182.563L259.684 191.718L250.515 196.26Z" fill="#004593"/>
<path d="M275.875 183.695L285.043 179.155L281.531 172.084C281.107 172.079 280.689 172.051 280.262 172.051C278.883 172.051 277.513 172.108 276.145 172.156L271.328 174.54L275.875 183.695Z" fill="#004593"/>
<path d="M181.827 254.221L177.28 245.066L168.199 249.564C168.184 249.605 168.166 249.645 168.15 249.686L172.657 258.762L181.827 254.221Z" fill="#004593"/>
<path d="M198.026 246.205L193.48 237.05L202.648 232.509L207.195 241.665L198.026 246.205Z" fill="#004593"/>
<path d="M223.393 233.645L218.847 224.49L228.015 219.949L232.563 229.105L223.393 233.645Z" fill="#004593"/>
<path d="M248.76 221.084L244.212 211.929L253.382 207.387L257.928 216.544L248.76 221.084Z" fill="#004593"/>
<path d="M274.12 208.524L269.574 199.369L278.742 194.827L283.29 203.984L274.12 208.524Z" fill="#004593"/>
<path d="M172.007 269.725L176.554 278.88L167.386 283.42L162.839 274.265L172.007 269.725Z" fill="#004593"/>
<path d="M192.762 270.866L188.215 261.711L197.383 257.171L201.93 266.326L192.762 270.866Z" fill="#004593"/>
<path d="M218.123 258.303L213.576 249.148L222.745 244.607L227.293 253.763L218.123 258.303Z" fill="#004593"/>
<path d="M243.493 245.744L238.945 236.589L248.114 232.049L252.661 241.204L243.493 245.744Z" fill="#004593"/>
<path d="M268.854 233.183L264.306 224.026L273.476 219.486L278.022 228.641L268.854 233.183Z" fill="#004593"/>
<path d="M294.221 220.623L289.673 211.466L298.843 206.927L303.389 216.082L294.221 220.623Z" fill="#004593"/>
<path d="M170.246 294.548L174.792 303.703L165.624 308.245L161.077 299.088L170.246 294.548Z" fill="#004593"/>
<path d="M200.164 291.142L190.996 295.683L186.449 286.527L195.618 281.987L200.164 291.142Z" fill="#004593"/>
<path d="M216.37 283.13L211.823 273.975L220.992 269.435L225.538 278.59L216.37 283.13Z" fill="#004593"/>
<path d="M241.73 270.57L237.182 261.415L246.352 256.873L250.898 266.03L241.73 270.57Z" fill="#004593"/>
<path d="M267.094 258.007L262.548 248.851L271.716 244.311L276.264 253.466L267.094 258.007Z" fill="#004593"/>
<path d="M292.458 245.447L287.91 236.29L297.08 231.75L301.626 240.905L292.458 245.447Z" fill="#004593"/>
<path d="M164.984 319.213L163.95 319.724C164.769 323.11 165.736 326.433 166.837 329.699L169.529 328.365L164.984 319.213Z" fill="#004593"/>
<path d="M190.344 306.647L194.892 315.802L185.722 320.342L181.176 311.187L190.344 306.647Z" fill="#004593"/>
<path d="M215.708 294.087L220.256 303.242L211.086 307.784L206.54 298.627L215.708 294.087Z" fill="#004593"/>
<path d="M241.073 281.528L245.621 290.683L236.452 295.223L231.905 286.068L241.073 281.528Z" fill="#004593"/>
<path d="M270.992 278.122L261.824 282.662L257.277 273.507L266.446 268.965L270.992 278.122Z" fill="#004593"/>
<path d="M282.636 260.956L291.804 256.416L296.352 265.571L287.183 270.113L282.636 260.956Z" fill="#004593"/>
<path d="M312.556 257.547L308.01 248.392L317.178 243.852L321.725 253.007L312.556 257.547Z" fill="#004593"/>
<path d="M188.581 331.469L193.128 340.625L183.959 345.165L179.413 336.01L188.581 331.469Z" fill="#004593"/>
<path d="M213.949 318.911L218.496 328.068L209.328 332.608L204.78 323.452L213.949 318.911Z" fill="#004593"/>
<path d="M243.869 315.505L234.7 320.045L230.153 310.89L239.321 306.35L243.869 315.505Z" fill="#004593"/>
<path d="M255.509 298.345L264.679 293.805L269.225 302.96L260.057 307.5L255.509 298.345Z" fill="#004593"/>
<path d="M294.6 290.379L285.431 294.921L280.884 285.764L290.052 281.224L294.6 290.379Z" fill="#004593"/>
<path d="M310.802 282.374L306.255 273.218L315.423 268.678L319.97 277.833L310.802 282.374Z" fill="#004593"/>
<path d="M182.26 360.129C184.141 362.807 186.111 365.416 188.203 367.925L183.923 359.305L182.26 360.129Z" fill="#004593"/>
<path d="M209.281 346.743L213.828 355.898L204.659 360.44L200.113 351.283L209.281 346.743Z" fill="#004593"/>
<path d="M234.642 334.18L239.189 343.335L230.021 347.876L225.474 338.72L234.642 334.18Z" fill="#004593"/>
<path d="M260.011 321.623L264.557 330.778L255.389 335.32L250.843 326.163L260.011 321.623Z" fill="#004593"/>
<path d="M289.932 318.211L280.763 322.751L276.216 313.596L285.384 309.055L289.932 318.211Z" fill="#004593"/>
<path d="M315.296 305.655L306.127 310.195L301.58 301.04L310.749 296.499L315.296 305.655Z" fill="#004593"/>
<path d="M331.491 297.642L326.944 288.487L336.113 283.946L340.66 293.102L331.491 297.642Z" fill="#004593"/>
<path d="M207.528 371.572L198.36 376.112L200.696 380.815C202.042 382.012 203.412 383.184 204.812 384.321L212.073 380.727L207.528 371.572Z" fill="#004593"/>
<path d="M232.884 359.005L237.431 368.16L228.262 372.701L223.714 363.545L232.884 359.005Z" fill="#004593"/>
<path d="M258.251 346.447L262.797 355.602L253.629 360.142L249.082 350.987L258.251 346.447Z" fill="#004593"/>
<path d="M274.448 338.44L283.616 333.898L288.163 343.055L278.994 347.595L274.448 338.44Z" fill="#004593"/>
<path d="M299.815 325.875L308.984 321.335L313.531 330.491L304.363 335.031L299.815 325.875Z" fill="#004593"/>
<path d="M329.74 322.469L325.192 313.314L334.362 308.772L338.909 317.929L329.74 322.469Z" fill="#004593"/>
<path d="M227.623 383.671L218.455 388.211L222.424 396.199C222.888 396.454 223.35 396.711 223.818 396.961L232.172 392.824L227.623 383.671Z" fill="#004593"/>
<path d="M252.983 371.106L257.531 380.262L248.361 384.802L243.815 375.646L252.983 371.106Z" fill="#004593"/>
<path d="M278.343 358.542L282.891 367.697L273.721 372.239L269.175 363.082L278.343 358.542Z" fill="#004593"/>
<path d="M303.714 345.986L308.262 355.141L299.092 359.683L294.546 350.526L303.714 345.986Z" fill="#004593"/>
<path d="M329.073 333.425L333.62 342.58L324.451 347.121L319.905 337.965L329.073 333.425Z" fill="#004593"/>
<path d="M354.437 320.863L358.984 330.02L349.815 334.56L345.269 325.403L354.437 320.863Z" fill="#004593"/>
<path d="M251.229 395.935L242.061 400.475L244.656 405.7C246.74 406.348 248.855 406.927 250.984 407.461L255.774 405.088L251.229 395.935Z" fill="#004593"/>
<path d="M276.589 383.369L281.135 392.526L271.967 397.066L267.419 387.91L276.589 383.369Z" fill="#004593"/>
<path d="M301.953 370.809L306.499 379.966L297.331 384.506L292.784 375.351L301.953 370.809Z" fill="#004593"/>
<path d="M327.312 358.246L331.859 367.403L322.69 371.943L318.143 362.788L327.312 358.246Z" fill="#004593"/>
<path d="M352.681 345.691L357.229 354.846L348.059 359.387L343.512 350.231L352.681 345.691Z" fill="#004593"/>
<path d="M266.751 410.298C268.723 410.519 270.708 410.691 272.708 410.815L271.327 408.032L266.751 410.298Z" fill="#004593"/>
<path d="M296.684 395.469L301.23 404.626L292.062 409.166L287.516 400.011L296.684 395.469Z" fill="#004593"/>
<path d="M322.049 382.909L326.596 392.066L317.428 396.606L312.88 387.451L322.049 382.909Z" fill="#004593"/>
<path d="M347.415 370.349L351.961 379.504L342.792 384.046L338.245 374.889L347.415 370.349Z" fill="#004593"/>
<path d="M372.784 357.793L363.616 362.333L368.163 371.49L370.039 370.561C372.005 368.333 373.901 366.04 375.702 363.668L372.784 357.793Z" fill="#004593"/>
<path d="M342.163 209.89C395.017 200.606 433.114 166.192 427.253 133.026C421.392 99.8593 373.794 80.4988 320.939 89.783C268.085 99.0672 229.988 133.48 235.849 166.647C241.71 199.813 289.308 219.174 342.163 209.89Z" fill="#06D4AE"/>
<path d="M357.248 286.166C356.715 286.166 356.212 285.846 356.008 285.32C353.147 277.98 355.09 269.912 356.969 262.11C359.067 253.397 361.049 245.164 356.307 238.693C352.688 233.752 346.113 231.762 340.159 230.467C332.656 228.834 324.885 227.766 317.37 226.733C307.926 225.436 298.16 224.094 288.755 221.615C268.581 216.296 253.528 205.818 246.369 192.11C244.207 187.971 242.769 183.475 242.024 178.791C239.997 175.917 238.341 172.748 237.17 169.255C228.706 144.023 250.828 118.346 274.964 105.167C298.079 92.5443 324.21 85.1661 350.534 83.8311C351.261 83.8143 351.892 84.3562 351.929 85.0883C351.967 85.8195 351.402 86.4428 350.668 86.48C324.743 87.7947 299.006 95.0606 276.241 107.493C253.045 120.159 231.712 144.626 239.692 168.414C240.186 169.886 240.773 171.297 241.445 172.649C240.979 158.097 246.716 142.45 257.819 130.223C270.462 116.3 288.712 106.36 315.251 98.9384C352.094 88.6373 382.64 89.7566 406.041 102.265C420.965 110.241 434.927 126.28 432.479 144.129C431.528 151.055 428.251 157.906 422.165 165.686C407.46 184.484 385.7 197.708 359.235 203.927C335.275 209.558 308.225 209.134 283.065 202.731C270.544 199.545 255.556 193.75 245.73 183.314C246.474 185.943 247.471 188.478 248.729 190.886C257.915 208.476 278.176 216.082 289.435 219.05C298.683 221.488 308.367 222.818 317.733 224.106C325.299 225.146 333.122 226.221 340.726 227.875C347.167 229.276 354.31 231.471 358.455 237.128C363.923 244.59 361.702 253.811 359.555 262.73C357.771 270.135 355.928 277.793 358.487 284.36C358.753 285.042 358.413 285.811 357.73 286.076C357.572 286.138 357.409 286.166 357.248 286.166ZM244.548 177.747C253.58 190.123 270.149 196.707 283.723 200.161C328.599 211.58 388.16 204.844 420.067 164.054C425.853 156.659 428.959 150.213 429.843 143.77C432.119 127.182 418.898 112.146 404.786 104.603C382.009 92.4276 352.127 91.3825 315.97 101.493C289.935 108.772 272.084 118.467 259.791 132.004C247.805 145.202 242.335 162.517 244.548 177.747Z" fill="#004593"/>
<path d="M522.133 415.209H431.586L488.368 299.333H578.916L522.133 415.209Z" fill="#A1C3FC"/>
<path d="M518.067 406.123L447.148 399.003L490.893 308.42H565.943L518.067 406.123Z" fill="#428DFC"/>
<path d="M518.33 425.237L411.999 431.005V414.656L523.09 413.633V420.239C523.09 422.917 520.992 425.124 518.33 425.237Z" fill="#06D4AE"/>
<path d="M412.33 430.95L361.911 418.19C359.664 417.659 358.075 415.64 358.075 413.317V404.871L412.33 414.599V430.95Z" fill="#06D4AE"/>
<path d="M437.325 403.332L357.707 404.884L412.349 414.644L523.09 413.63L437.325 403.332Z" fill="#06D4AE"/>
<path d="M361.305 323.771H370.949V343.837H361.305V323.771Z" fill="#06D4AE"/>
<path d="M88.462 350.537C92.9849 343.188 94.997 339.196 94.7312 332.976C94.7081 332.427 81.4101 320.436 76.4576 318.77C65.2268 336.313 52.0292 360.604 39.7747 381.751C43.9405 383.551 47.8445 383.436 57.7907 378.435C59.9912 377.329 79.9156 365.401 80.4777 363.702C80.7913 362.755 87.9386 351.388 88.462 350.537Z" fill="#06D4AE"/>
<path d="M114.339 344.008C103.479 334.067 98.4607 331.177 90.9875 329.538C88.3599 340.947 82.0627 350.936 80.253 363.588C99.9206 384.592 125.596 403.136 148.142 421.023C150.143 422.61 152.211 424.214 154.64 425.004C157.027 425.779 159.596 425.714 162.106 425.64C205.178 424.365 248.25 423.091 291.321 421.818C295.585 417.414 293.796 409.602 289.252 405.487C284.708 401.373 278.004 401.107 263.957 398.232C247.92 394.949 230.247 393.18 212.979 394.014C205.384 394.381 188.355 397.37 182.512 392.507C166.222 378.951 156.603 375.035 150.235 372.022C145.918 369.981 134.358 366.46 131.533 364.793C124.895 360.879 121.478 350.546 114.339 344.008Z" fill="#004593"/>
<path d="M472.762 362.16C472.216 362.969 471.917 363.937 471.284 364.68C470.497 365.604 469.148 366.752 469.924 367.686C470.575 368.469 471.873 367.779 472.431 366.928C472.988 366.077 473.465 364.967 474.466 364.783C473.703 365.393 472.906 366.047 472.557 366.958C472.208 367.87 472.506 369.107 473.426 369.439C475.513 368.171 477.6 366.902 479.686 365.632C480.41 365.192 481.206 364.646 481.327 363.811C481.401 363.306 481.202 362.799 480.938 362.363C479.26 359.592 474.577 359.475 472.762 362.16Z" fill="#06D4AE"/>
<path d="M437.933 328.424C437.812 328.896 437.589 329.602 437.103 329.551C435.874 329.425 435.508 327.7 435.153 326.519C434.534 324.462 433.662 319.107 433.595 318.57C433.559 318.283 433.558 317.973 433.713 317.729C434.008 317.265 434.742 317.289 435.17 317.632C435.598 317.976 435.798 318.524 435.978 319.041C436.337 320.073 436.695 321.107 437.053 322.139C437.756 324.169 438.468 326.344 437.933 328.424Z" fill="#06D4AE"/>
<path d="M435.721 327.172C434.722 326.899 434.257 325.789 433.843 324.842C433.076 323.088 432.034 321.47 430.98 319.871C430.529 319.186 430.058 318.461 429.999 317.644C429.94 316.825 430.502 315.549 431.278 315.825C433.965 316.782 434.425 320.553 435.495 323.194C436.014 324.481 436.512 326.031 435.721 327.172Z" fill="#06D4AE"/>
<path d="M400.661 402.16C401.588 397.389 404.482 393.28 407.02 389.134C414.252 377.32 419.291 366.173 424.697 353.422C426.799 348.466 430.042 339.077 430.353 338.85C430.832 337.616 430.031 335.929 428.43 334.557C427.395 333.67 424.712 331.127 423.453 330.603C420.054 329.19 416.779 326.875 415.987 324.955C415.167 322.964 416.872 323.159 418.702 322.019C422.072 319.919 426.477 314.775 427.106 314.818C428.073 314.883 434.13 322.234 434.085 322.471C434.02 322.823 432.892 322.61 432.534 322.577C430.651 322.394 429.123 321.039 427.738 319.752C426.857 320.836 425.798 321.776 424.617 322.525C424.646 322.904 423.799 324.803 423.828 325.182C428.015 328.262 432.838 330.145 436.499 333.832C436.831 334.168 437.696 335.48 437.706 335.574C437.846 336.947 437.122 337.949 436.762 339.02C429.788 359.749 429.71 385.198 420.919 406.931C418.604 412.655 415.016 418.205 409.525 421.04C408.46 421.59 407.272 422.038 406.085 421.868C403.255 421.463 402.107 418.072 401.548 415.272C400.685 410.946 399.82 406.489 400.661 402.16Z" fill="#06D4AE"/>
<path d="M440.672 324.22L446.624 324.399L446.59 325.52L440.639 325.34L440.672 324.22Z" fill="#004593"/>
<path d="M400.072 321.48L442.963 322.774L442.837 326.922L399.946 325.628L400.072 321.48Z" fill="#428DFC"/>
<path d="M402.387 326.563L402.455 320.851L419.064 321.352L419.09 320.449L401.56 319.919L401.481 326.551L402.387 326.563Z" fill="black"/>
<path d="M429.943 321.994C428.116 323.323 429.208 325.783 430.013 327.891C431.817 332.613 432.115 332.85 432.417 334.055C432.643 334.955 434.629 342.144 435.361 336.205C436.007 330.971 433.935 329.396 432.253 323.682C431.964 322.701 430.774 321.393 429.943 321.994Z" fill="#06D4AE"/>
<path d="M456.437 365.254C457.139 363.644 457.821 361.972 459.039 360.704C461.283 358.369 464.788 357.911 467.996 357.459C475.814 356.359 486.241 354.513 493.708 351.955C494.01 352.898 493.114 353.773 492.29 354.322C488.801 356.643 482.138 358.079 478.047 359.07C479.751 360.04 482.748 360.509 483.315 361.684C483.632 362.344 481.729 364.79 480.937 366.343C480.614 366.977 480.275 367.63 479.723 368.079C479.248 368.466 478.657 368.671 478.076 368.868C476.425 369.431 474.772 369.993 473.122 370.557C472.323 369.961 472.297 368.687 472.864 367.87C473.432 367.052 474.425 366.629 475.403 366.444C476.02 366.328 476.656 366.286 477.245 366.069C478.499 365.606 479.387 364.299 479.355 362.966C475.237 364.483 470.756 364.969 466.401 364.435C459.776 374.869 455.457 386.503 450.846 397.969C441.777 420.523 428.296 422.942 427.298 426.849C422.763 418.843 429.903 406.768 422.321 401.545C435.796 391.883 449.814 380.443 456.437 365.254ZM477.527 359.192C477.378 359.227 477.229 359.263 477.08 359.297C477.175 359.306 477.271 359.313 477.366 359.322C477.42 359.278 477.472 359.234 477.527 359.192Z" fill="#06D4AE"/>
<path d="M358.523 355.682C357.764 352.579 357.58 346.357 358.975 343.482C360.371 340.608 361.771 337.699 364.968 337.805C375.041 347.846 380.119 361.666 386.753 374.241C390.891 382.086 394.29 387.871 400.603 396.122C402.394 398.463 408.166 385.401 408.295 385.504C413.72 389.804 418.024 402.222 424.584 403.578C422.698 408.191 413.952 421.427 407.49 424.042C403.621 425.343 388.353 409.737 381.667 399.698C377.425 393.328 373.256 386.908 369.087 380.489C363.41 371.745 361.011 365.849 358.523 355.682Z" fill="#1D72D8"/>
<path d="M56.8886 425.054C57.7922 418.895 58.6949 412.736 59.5993 406.578C59.6783 406.035 59.7516 405.453 59.5064 404.963C59.2677 404.484 56.6211 403.067 56.1553 402.804C51.6028 400.242 49.2014 398.809 44.6497 396.246C27.9694 411.532 13.5464 429.426 -0.000164032 447.755C3.75577 450.301 9.61433 448.628 20.3209 445.572C22.6885 444.895 53.3195 434.481 54.1893 432.916C54.674 432.045 56.7438 426.042 56.8886 425.054Z" fill="#06D4AE"/>
<path d="M350.603 290.472C356.461 288.031 363.293 290.35 368.429 294.078C372.737 297.205 377.475 307.166 379.572 306.788C381.344 306.469 382.278 307.214 382.368 309.009C382.807 317.877 379.58 326.125 376.88 327.333C369.232 330.754 355.28 326.872 352.028 323.858C349.518 321.533 346.339 320.752 345.138 317.735C343.21 312.89 341.599 307.811 342.069 302.75C342.539 297.691 345.459 292.615 350.603 290.472Z" fill="#06D4AE"/>
<path d="M371.88 296.058C371.241 294.2 370.043 292.565 368.598 291.231C362.714 285.798 353.008 285.852 346.307 290.24C338.871 295.111 334.969 304.312 334.697 313.103C334.64 314.931 335.03 316.765 335.931 318.357C340.19 325.889 348.693 317.77 352.793 326.394C353.569 328.026 353.934 329.825 353.966 331.63C354.01 334.25 354.03 336.745 353.51 339.387C353.264 340.633 354.32 341.771 355.57 341.542C361.107 340.527 367.616 336.991 370.555 330.081C374.112 321.721 373.829 312.735 372.972 303.818C372.735 301.373 372.677 298.383 371.88 296.058Z" fill="black"/>
<path d="M346.112 326.457C346.431 326.457 346.816 326.316 347.271 326.034C348.411 325.328 351.435 320.691 356.684 312.557C361.079 305.746 366.05 298.041 369.932 292.995C368.622 296.325 364.245 304.751 361.633 308.127C359.15 311.336 352.206 321.112 352.847 323.863C352.953 324.319 353.226 324.537 353.436 324.639C355.304 325.555 358.456 320.638 363.435 312.537C365.351 309.42 367.332 306.197 368.985 303.925C371.325 300.713 373.976 297.073 375.16 292.938C375.228 292.698 375.089 292.448 374.849 292.379C374.608 292.313 374.358 292.449 374.289 292.69C373.151 296.669 370.661 300.088 368.253 303.392C366.579 305.691 364.589 308.931 362.663 312.063C359.638 316.986 355.085 324.424 353.834 323.825C353.81 323.814 353.759 323.788 353.728 323.655C353.285 321.755 358.543 313.593 362.349 308.677C364.329 306.117 372.284 292.21 371 291.218C370.476 290.813 369.911 291.544 369.412 292.186C365.478 297.256 360.402 305.125 355.923 312.065C351.754 318.527 347.816 324.631 346.793 325.264C346.282 325.581 346.115 325.551 346.112 325.55C345.549 324.621 349.591 316.551 352.272 312.893L354.072 310.443C357.43 305.881 360.903 301.162 364.008 296.298C365.225 294.391 366.18 291.499 365.571 289.336C365.303 288.379 364.732 287.665 363.924 287.269C363.699 287.159 363.428 287.252 363.318 287.475C363.209 287.699 363.301 287.969 363.525 288.08C364.103 288.363 364.5 288.868 364.699 289.58C365.153 291.195 364.554 293.757 363.243 295.813C360.154 300.653 356.691 305.358 353.342 309.908L351.54 312.36C349.949 314.531 343.967 324.551 345.487 326.191C345.653 326.368 345.861 326.457 346.112 326.457Z" fill="#428DFC"/>
<path d="M376.48 305.706C377.581 305.706 378.65 305.418 379.674 304.842C379.892 304.72 379.97 304.445 379.846 304.226C379.725 304.009 379.45 303.929 379.23 304.054C377.546 305 375.793 305.053 373.872 304.214C373.643 304.114 373.376 304.218 373.277 304.447C373.176 304.676 373.28 304.941 373.51 305.042C374.522 305.484 375.513 305.706 376.48 305.706Z" fill="#004593"/>
<path d="M366.799 325.932C361.827 325.932 357.795 321.905 357.795 316.937C357.795 311.969 361.827 307.942 366.799 307.942C371.772 307.942 375.803 311.969 375.803 316.937C375.803 321.905 371.772 325.932 366.799 325.932Z" fill="#428DFC"/>
<path d="M367.552 318.456C367.793 318.456 368.036 318.393 368.256 318.258C368.896 317.869 369.1 317.036 368.71 316.396L368.648 316.292C361.403 304.393 358.097 298.961 347.626 290.249C345.985 288.886 343.683 288.179 341.765 288.438C340.421 288.623 339.336 289.266 338.625 290.297C337.131 292.468 339.881 296.604 339.881 296.604L341.642 294.352C341.642 294.352 340.426 292.467 340.862 291.832C341.136 291.437 341.552 291.205 342.135 291.124C343.283 290.965 344.858 291.475 345.887 292.332C356.01 300.755 359.243 306.065 366.326 317.7L366.389 317.803C366.648 318.225 367.096 318.456 367.552 318.456Z" fill="#004593"/>
<path d="M378.28 406.065C384.528 397.597 382.857 393.799 385.748 383.684C387.075 379.043 388.217 374.261 387.942 369.443C387.25 357.302 377.98 347.614 369.276 339.111C368.279 338.137 367.174 337.11 365.787 336.957C364.298 336.793 362.91 337.685 361.751 338.634C352.279 346.374 347.753 369.328 342.082 380.16C331.003 401.32 327.371 404.133 303.47 404.862C306.259 413.39 303.697 422.843 306.486 431.371C347.211 434.08 374.059 411.788 378.28 406.065Z" fill="#06D4AE"/>
<path d="M193.455 399.053C201.683 399.053 254.228 395.542 262.23 393.63C286.469 387.837 293.34 393.439 312.005 404.171C310.463 412.333 310.215 423.392 310.931 431.669C233.049 428.572 153.894 426.35 75.6735 433.009C67.8226 433.678 61.332 432.491 54.0917 432.491C53.9913 420.748 55.1664 415.92 59.1166 404.86C94.8136 394.535 98.4354 404.443 119.248 400.861C137.745 397.677 135.537 394.535 156.35 393.631C169.806 393.047 174.451 399.053 193.455 399.053Z" fill="#004593"/>
<path d="M361.916 343.257C362.478 340.809 363.024 336.799 365.536 336.931C369.835 337.157 371.932 340.18 373.002 341.224C382.277 350.261 386.557 358.981 393.318 367.246C398.487 373.565 407.943 392.205 414.177 397.481C420.542 402.868 427.299 395.222 427.299 395.222C427.299 395.222 433.865 412.528 441.7 422.402C442.043 424.42 425.639 427.756 422.321 427.305C420.29 427.028 406.717 415.315 399.697 408.778C390.765 400.461 383.021 385.907 373.68 378.052C369.382 374.435 359.428 354.1 361.916 343.257Z" fill="#06D4AE"/>
<path d="M276.211 397.412C276.094 397.503 275.946 397.506 275.853 397.39C275.762 397.273 275.758 397.125 275.875 397.032C275.992 396.941 276.14 396.937 276.233 397.054C276.325 397.171 276.328 397.321 276.211 397.412ZM254.774 410.007C254.776 410.155 254.66 410.247 254.511 410.249C254.363 410.252 254.271 410.135 254.269 409.987C254.266 409.839 254.383 409.747 254.531 409.744C254.708 409.682 254.771 409.859 254.774 410.007ZM255.42 403.703C255.422 403.851 255.306 403.943 255.157 403.945C255.009 403.948 254.917 403.831 254.915 403.683C254.912 403.535 255.029 403.443 255.177 403.44C255.265 403.41 255.417 403.555 255.42 403.703ZM267.706 405.861C267.558 405.863 267.437 405.806 267.345 405.69C267.343 405.542 267.4 405.422 267.516 405.33C267.665 405.327 267.785 405.384 267.816 405.472C267.938 405.678 267.881 405.797 267.706 405.861ZM265.829 399.756C265.68 399.758 265.56 399.701 265.468 399.585C265.466 399.437 265.522 399.317 265.639 399.225C265.787 399.222 265.908 399.279 265.94 399.367C266.063 399.573 265.978 399.753 265.829 399.756ZM243.682 403.642C243.625 403.762 243.448 403.824 243.328 403.768C243.209 403.711 243.146 403.533 243.202 403.414C243.259 403.294 243.437 403.232 243.556 403.288C243.676 403.345 243.739 403.522 243.682 403.642ZM246.659 398.003C246.602 398.123 246.424 398.185 246.305 398.129C246.186 398.072 246.122 397.894 246.179 397.775C246.236 397.655 246.414 397.593 246.533 397.649C246.654 397.708 246.716 397.883 246.659 398.003ZM273.578 403.873C273.49 403.904 273.281 403.879 273.278 403.731C273.246 403.643 273.271 403.434 273.42 403.431C273.508 403.4 273.717 403.425 273.72 403.574C273.812 403.69 273.755 403.81 273.578 403.873ZM271.451 398.605C271.363 398.636 271.154 398.611 271.151 398.462C271.119 398.375 271.116 398.226 271.293 398.163C271.381 398.132 271.53 398.129 271.593 398.305C271.597 398.453 271.541 398.573 271.451 398.605ZM249.894 403.725C249.837 403.845 249.72 403.936 249.599 403.879C249.479 403.823 249.449 403.734 249.444 403.585C249.5 403.465 249.617 403.374 249.738 403.431C249.859 403.488 249.951 403.605 249.894 403.725ZM252.076 398.518C252.02 398.638 251.903 398.729 251.782 398.672C251.662 398.615 251.631 398.527 251.626 398.378C251.683 398.258 251.8 398.167 251.921 398.223C252.043 398.282 252.133 398.399 252.076 398.518ZM262.274 403.21C262.277 403.358 262.16 403.45 262.012 403.453C261.864 403.455 261.771 403.338 261.769 403.19C261.767 403.042 261.883 402.95 262.032 402.948C262.18 402.944 262.271 403.061 262.274 403.21ZM272.745 409.795C272.748 409.942 272.631 410.035 272.483 410.037C272.335 410.039 272.243 409.923 272.24 409.775C272.238 409.627 272.355 409.535 272.503 409.532C272.651 409.53 272.743 409.646 272.745 409.795ZM272.764 403.267C272.767 403.415 272.65 403.507 272.502 403.509C272.354 403.512 272.262 403.395 272.259 403.247C272.257 403.099 272.373 403.007 272.522 403.005C272.669 403.001 272.76 403.117 272.764 403.267ZM272.87 396.707C272.872 396.855 272.755 396.947 272.607 396.95C272.459 396.952 272.367 396.836 272.364 396.688C272.362 396.54 272.479 396.448 272.627 396.445C272.746 396.502 272.838 396.618 272.87 396.707ZM247.308 399.266C247.191 399.357 247.043 399.36 246.95 399.244C246.859 399.127 246.856 398.979 246.972 398.886C247.089 398.795 247.237 398.792 247.33 398.908C247.451 398.967 247.425 399.175 247.308 399.266ZM280.74 392.068C280.803 392.246 280.746 392.365 280.568 392.428L280.74 392.068ZM260.605 404.4C260.548 404.52 260.37 404.582 260.251 404.526C260.131 404.469 260.068 404.291 260.125 404.172C260.182 404.053 260.359 403.99 260.479 404.046C260.597 404.104 260.66 404.281 260.605 404.4ZM264.165 407.119C264.108 407.239 263.93 407.301 263.811 407.244C263.691 407.188 263.628 407.01 263.685 406.891C263.742 406.771 263.858 406.68 264.039 406.765C264.159 406.822 264.222 406.998 264.165 407.119ZM266.479 401.018C266.422 401.138 266.244 401.201 266.125 401.144C266.005 401.088 265.913 400.971 265.999 400.791C266.056 400.671 266.233 400.608 266.382 400.606C266.473 400.722 266.536 400.899 266.479 401.018ZM277.912 399.246C277.914 399.394 277.798 399.486 277.649 399.488C277.501 399.491 277.409 399.374 277.347 399.197C277.344 399.049 277.461 398.957 277.638 398.895C277.818 398.981 277.909 399.098 277.912 399.246ZM276.237 397.203C276.18 397.323 276.092 397.353 276.003 397.386C275.883 397.329 275.852 397.24 275.82 397.151C275.877 397.031 275.966 397.001 276.055 396.969C276.174 397.027 276.264 397.144 276.237 397.203Z" fill="white"/>
<path d="M292.128 396.242C292.047 396.288 291.983 396.271 291.937 396.188C291.89 396.107 291.908 396.043 291.99 395.997C292.072 395.951 292.136 395.968 292.182 396.05C292.227 396.132 292.146 396.178 292.128 396.242ZM278.04 396.353C278.022 396.417 277.941 396.463 277.877 396.445C277.812 396.427 277.766 396.345 277.784 396.281C277.802 396.217 277.884 396.171 277.948 396.189C278.094 396.161 278.123 396.308 278.04 396.353ZM285.144 395.832C285.126 395.896 285.109 395.96 285.027 396.006C284.963 395.988 284.899 395.971 284.853 395.889C284.871 395.825 284.888 395.761 284.97 395.715C285.115 395.687 285.161 395.768 285.144 395.832ZM291.435 412.978C291.463 413.124 291.364 413.234 291.219 413.263C291.073 413.292 290.963 413.192 290.933 413.048C290.905 412.902 291.004 412.792 291.15 412.763C291.312 412.67 291.47 412.851 291.435 412.978ZM290.975 406.658C291.003 406.804 290.904 406.914 290.758 406.943C290.612 406.971 290.502 406.872 290.473 406.727C290.444 406.582 290.543 406.471 290.689 406.443C290.835 406.413 290.946 406.513 290.975 406.658ZM290.45 400.321C290.478 400.467 290.379 400.577 290.233 400.606C290.087 400.634 289.977 400.535 289.948 400.39C289.919 400.245 290.018 400.135 290.164 400.106C290.311 400.076 290.422 400.177 290.45 400.321ZM303.448 406.653C303.302 406.682 303.174 406.647 303.064 406.547C303.035 406.402 303.07 406.273 303.17 406.163C303.315 406.134 303.444 406.17 303.49 406.251C303.647 406.433 303.611 406.561 303.448 406.653ZM300.604 400.984C300.458 401.013 300.33 400.977 300.22 400.878C300.191 400.732 300.226 400.604 300.326 400.494C300.471 400.465 300.6 400.5 300.646 400.582C300.739 400.746 300.685 400.938 300.604 400.984ZM279.404 408.633C279.369 408.761 279.205 408.853 279.077 408.818C278.949 408.782 278.856 408.619 278.892 408.491C278.927 408.363 279.091 408.271 279.219 408.306C279.346 408.343 279.44 408.505 279.404 408.633ZM281.355 402.564C281.32 402.692 281.156 402.784 281.028 402.749C280.9 402.714 280.807 402.55 280.843 402.423C280.879 402.294 281.042 402.202 281.17 402.238C281.298 402.274 281.391 402.437 281.355 402.564ZM283.289 396.561C283.254 396.689 283.09 396.781 282.962 396.746C282.834 396.711 282.741 396.547 282.777 396.419C282.813 396.291 282.976 396.199 283.104 396.235C283.296 396.286 283.324 396.432 283.289 396.561ZM308.886 403.678C308.805 403.724 308.595 403.735 308.566 403.59C308.52 403.509 308.509 403.299 308.654 403.27C308.735 403.224 308.945 403.213 308.974 403.358C309.084 403.458 309.05 403.586 308.886 403.678ZM285.537 407.638C285.501 407.766 285.402 407.876 285.274 407.841C285.146 407.806 285.1 407.724 285.071 407.579C285.106 407.451 285.206 407.34 285.333 407.376C285.461 407.411 285.571 407.511 285.537 407.638ZM286.781 402.132C286.745 402.261 286.646 402.371 286.518 402.335C286.39 402.3 286.344 402.219 286.315 402.073C286.35 401.945 286.45 401.835 286.578 401.87C286.705 401.905 286.815 402.005 286.781 402.132ZM287.962 396.608C287.926 396.736 287.827 396.846 287.699 396.811C287.571 396.775 287.525 396.694 287.496 396.549C287.531 396.42 287.631 396.31 287.758 396.345C287.951 396.399 287.996 396.48 287.962 396.608ZM297.638 404.985C297.667 405.131 297.567 405.241 297.422 405.27C297.278 405.298 297.166 405.199 297.137 405.054C297.108 404.909 297.208 404.798 297.352 404.77C297.497 404.74 297.673 404.857 297.638 404.985ZM296.692 399.425C296.721 399.571 296.622 399.681 296.541 399.727C296.395 399.756 296.285 399.656 296.255 399.511C296.227 399.366 296.326 399.256 296.471 399.227C296.554 399.181 296.664 399.28 296.692 399.425ZM276.438 400.659C276.338 400.769 276.257 400.815 276.147 400.716C276.036 400.616 276.008 400.471 276.09 400.425C276.189 400.315 276.335 400.286 276.445 400.385C276.445 400.387 276.473 400.532 276.438 400.659ZM279.644 396.038C279.545 396.148 279.399 396.177 279.289 396.078C279.178 395.979 279.15 395.833 279.248 395.723C279.348 395.613 279.494 395.584 279.54 395.666C279.714 395.782 279.743 395.927 279.644 396.038C279.661 395.974 279.644 396.038 279.644 396.038ZM309.096 409.654C309.125 409.799 309.025 409.91 308.88 409.938C308.735 409.967 308.624 409.868 308.595 409.723C308.566 409.577 308.665 409.467 308.811 409.438C308.957 409.41 309.068 409.508 309.096 409.654ZM308.042 403.24C308.07 403.385 307.971 403.495 307.826 403.524C307.681 403.553 307.57 403.453 307.54 403.309C307.512 403.163 307.611 403.053 307.756 403.024C307.839 402.977 308.015 403.094 308.042 403.24ZM282.215 403.696C282.116 403.806 281.97 403.835 281.86 403.736C281.749 403.637 281.721 403.491 281.819 403.381C281.919 403.271 282.064 403.242 282.175 403.341C282.302 403.376 282.313 403.586 282.215 403.696ZM286.034 398.348C285.935 398.458 285.789 398.487 285.679 398.388C285.569 398.289 285.54 398.143 285.639 398.033C285.738 397.923 285.884 397.894 285.994 397.993C286.041 398.074 286.133 398.237 286.034 398.348ZM296.2 406.447C296.165 406.575 296.001 406.667 295.874 406.632C295.745 406.596 295.652 406.433 295.688 406.305C295.724 406.177 295.888 406.085 296.015 406.12C296.143 406.155 296.236 406.319 296.2 406.447ZM297.675 400.109C297.64 400.237 297.476 400.329 297.348 400.294C297.22 400.259 297.127 400.095 297.163 399.968C297.199 399.839 297.362 399.747 297.49 399.783C297.617 399.818 297.728 399.918 297.675 400.109ZM300.18 408.505C300.145 408.634 299.981 408.726 299.853 408.69C299.725 408.655 299.632 408.491 299.668 408.364C299.704 408.236 299.803 408.126 299.995 408.179C300.123 408.215 300.215 408.378 300.18 408.505ZM301.398 402.097C301.363 402.225 301.199 402.317 301.071 402.282C300.943 402.247 300.833 402.147 300.886 401.956C300.922 401.827 301.085 401.735 301.231 401.706C301.341 401.806 301.433 401.97 301.398 402.097ZM289.139 400.579C289.039 400.69 288.893 400.718 288.766 400.684C288.655 400.584 288.627 400.439 288.661 400.311C288.761 400.201 288.906 400.172 289.034 400.207C289.163 400.242 289.174 400.452 289.139 400.579Z" fill="white"/>
<path d="M333.903 180.898C345.994 174.547 350.242 166.073 358.829 162.456C358.829 162.456 349.188 142.565 346.627 132.635C341.896 131.089 335.418 133.289 330.675 134.757C323.09 137.104 315.025 137.855 307.135 136.951C306.4 147.71 305.55 171.044 305.55 171.044C314.296 171.412 322.784 177.871 333.903 180.898Z" fill="#004593"/>
<path d="M270.134 152.827L332.36 157.939L383.592 129.562L316.368 124.167L270.134 152.827Z" fill="#004593"/>
<path d="M318.998 140.15L328.125 140.9L335.639 136.739L325.779 135.947L318.998 140.15Z" fill="#428DFC"/>
<path d="M399.583 145.381C394.545 145.965 389.291 144.994 384.894 142.53C383.131 141.542 381.487 140.324 379.895 139.147C378.652 138.227 377.367 137.277 376.041 136.447C369.154 132.14 360.021 130.481 350.279 131.771C341.246 132.972 332.706 136.403 324.822 139.932C324.669 140 324.493 139.931 324.425 139.78C324.357 139.628 324.425 139.45 324.577 139.382C332.502 135.835 341.092 132.385 350.2 131.174C360.057 129.869 369.354 131.555 376.359 135.936C377.705 136.778 379 137.736 380.252 138.662C381.828 139.828 383.458 141.034 385.188 142.003C391.303 145.43 399.122 145.896 405.595 143.22C407.456 142.451 408.496 141.569 408.871 140.441C409.105 139.737 408.867 138.801 408.304 138.215C408.069 137.971 407.582 137.59 406.942 137.777C406.786 137.822 406.616 137.732 406.569 137.573C406.523 137.412 406.615 137.245 406.773 137.199C407.462 136.994 408.176 137.215 408.737 137.798C409.458 138.549 409.748 139.714 409.441 140.634C408.872 142.348 407.104 143.25 405.824 143.779C403.84 144.599 401.731 145.131 399.583 145.381Z" fill="#428DFC"/>
<path d="M397.978 141.654C394.89 142.012 391.615 141.794 388.959 141.537C385.216 141.175 381.655 139.959 378.075 137.819C377.932 137.735 377.885 137.549 377.969 137.406C378.055 137.261 378.239 137.216 378.382 137.301C381.884 139.394 385.363 140.583 389.016 140.937C392.272 141.251 396.468 141.507 400.049 140.695C403.064 140.009 404.1 137.894 404.07 136.291C404.05 135.151 403.504 134.284 402.714 134.135C402.55 134.104 402.444 133.946 402.474 133.783C402.505 133.619 402.66 133.512 402.825 133.543C403.903 133.748 404.646 134.849 404.671 136.282C404.708 138.255 403.333 140.567 400.181 141.283C399.466 141.446 398.728 141.567 397.978 141.654Z" fill="#428DFC"/>
<path d="M399.408 150.22C395.458 150.679 391.365 149.994 387.802 148.226C382.915 145.801 379.563 142.352 377.839 137.976C377.778 137.821 377.854 137.646 378.008 137.585C378.165 137.525 378.337 137.601 378.398 137.755C380.065 141.988 383.318 145.329 388.067 147.686C392.467 149.868 397.698 150.351 402.418 149.012C402.574 148.969 402.744 149.059 402.789 149.22C402.835 149.38 402.742 149.546 402.582 149.592C401.545 149.887 400.481 150.096 399.408 150.22Z" fill="#428DFC"/>
</svg>
