<svg width="73" height="73" viewBox="0 0 73 73" fill="none" xmlns="http://www.w3.org/2000/svg">
<path d="M16.6007 26.5255L21.806 33.8129C19.7778 34.3963 18.0393 35.6642 16.8569 37.3504L11.6513 30.0625C13.6796 29.4793 15.4181 28.2116 16.6007 26.5255Z" fill="url(#paint0_linear)" fill-opacity="0.5"/>
<path d="M30.6678 36.0156C32.1336 37.4296 33.1272 39.3296 33.3892 41.4562L42.3319 36.9849C40.8662 35.5709 39.8725 33.6708 39.6104 31.5442L30.6678 36.0156Z" fill="url(#paint1_linear)" fill-opacity="0.5"/>
<path d="M56.1423 35.6505L61.3477 42.9379C59.3194 43.5213 57.581 44.7892 56.3986 46.4754L51.193 39.1875C53.2212 38.6043 54.9597 37.3366 56.1423 35.6505Z" fill="url(#paint2_linear)" fill-opacity="0.5"/>
<path fill-rule="evenodd" clip-rule="evenodd" d="M0 21.2917C0 26.3313 4.0854 30.4167 9.125 30.4167C14.1646 30.4167 18.25 26.3313 18.25 21.2917C18.25 16.2521 14.1646 12.1667 9.125 12.1667C4.0854 12.1667 0 16.2521 0 21.2917ZM6.08333 21.2917C6.08333 22.9715 7.44514 24.3333 9.125 24.3333C10.8049 24.3333 12.1667 22.9715 12.1667 21.2917C12.1667 19.6118 10.8049 18.25 9.125 18.25C7.44514 18.25 6.08333 19.6118 6.08333 21.2917Z" fill="url(#paint3_linear)"/>
<path fill-rule="evenodd" clip-rule="evenodd" d="M39.5417 30.4167C39.5417 35.4563 43.6271 39.5417 48.6667 39.5417C53.7063 39.5417 57.7917 35.4563 57.7917 30.4167C57.7917 25.3771 53.7063 21.2917 48.6667 21.2917C43.6271 21.2917 39.5417 25.3771 39.5417 30.4167ZM45.625 30.4167C45.625 32.0965 46.9868 33.4583 48.6667 33.4583C50.3465 33.4583 51.7083 32.0965 51.7083 30.4167C51.7083 28.7368 50.3465 27.375 48.6667 27.375C46.9868 27.375 45.625 28.7368 45.625 30.4167Z" fill="url(#paint4_linear)"/>
<path fill-rule="evenodd" clip-rule="evenodd" d="M54.75 51.7083C54.75 56.7479 58.8354 60.8333 63.875 60.8333C68.9146 60.8333 73 56.7479 73 51.7083C73 46.6687 68.9146 42.5833 63.875 42.5833C58.8354 42.5833 54.75 46.6687 54.75 51.7083ZM60.8333 51.7083C60.8333 53.3882 62.1951 54.75 63.875 54.75C65.5549 54.75 66.9167 53.3882 66.9167 51.7083C66.9167 50.0285 65.5549 48.6667 63.875 48.6667C62.1951 48.6667 60.8333 50.0285 60.8333 51.7083Z" fill="url(#paint5_linear)"/>
<path fill-rule="evenodd" clip-rule="evenodd" d="M24.3333 51.7083C19.2937 51.7083 15.2083 47.6229 15.2083 42.5833C15.2083 37.5437 19.2937 33.4583 24.3333 33.4583C29.3729 33.4583 33.4583 37.5437 33.4583 42.5833C33.4583 47.6229 29.3729 51.7083 24.3333 51.7083ZM24.3333 45.625C22.6535 45.625 21.2917 44.2632 21.2917 42.5833C21.2917 40.9035 22.6535 39.5417 24.3333 39.5417C26.0132 39.5417 27.375 40.9035 27.375 42.5833C27.375 44.2632 26.0132 45.625 24.3333 45.625Z" fill="url(#paint6_linear)"/>
<defs>
<linearGradient id="paint0_linear" x1="59.1023" y1="29.3445" x2="11.4219" y2="35.9905" gradientUnits="userSpaceOnUse">
<stop stop-color="#6F5FA7"/>
<stop offset="1" stop-color="#6F5FA7"/>
</linearGradient>
<linearGradient id="paint1_linear" x1="59.1023" y1="29.3445" x2="11.4219" y2="35.9905" gradientUnits="userSpaceOnUse">
<stop stop-color="#6F5FA7"/>
<stop offset="1" stop-color="#6F5FA7"/>
</linearGradient>
<linearGradient id="paint2_linear" x1="59.1023" y1="29.3445" x2="11.4219" y2="35.9905" gradientUnits="userSpaceOnUse">
<stop stop-color="#6F5FA7"/>
<stop offset="1" stop-color="#6F5FA7"/>
</linearGradient>
<linearGradient id="paint3_linear" x1="69.7018" y1="19.0435" x2="-1.19827" y2="24.9943" gradientUnits="userSpaceOnUse">
<stop stop-color="#6F5FA7"/>
<stop offset="1" stop-color="#6F5FA7"/>
</linearGradient>
<linearGradient id="paint4_linear" x1="69.7018" y1="19.0435" x2="-1.19827" y2="24.9943" gradientUnits="userSpaceOnUse">
<stop stop-color="#6F5FA7"/>
<stop offset="1" stop-color="#6F5FA7"/>
</linearGradient>
<linearGradient id="paint5_linear" x1="69.7018" y1="19.0435" x2="-1.19827" y2="24.9943" gradientUnits="userSpaceOnUse">
<stop stop-color="#6F5FA7"/>
<stop offset="1" stop-color="#6F5FA7"/>
</linearGradient>
<linearGradient id="paint6_linear" x1="69.7018" y1="19.0435" x2="-1.19827" y2="24.9943" gradientUnits="userSpaceOnUse">
<stop stop-color="#6F5FA7"/>
<stop offset="1" stop-color="#6F5FA7"/>
</linearGradient>
</defs>
</svg>
