<svg width="24" height="24" viewBox="0 0 24 24" fill="none" xmlns="http://www.w3.org/2000/svg">
<path fill-rule="evenodd" clip-rule="evenodd" d="M7 5C7 4.44771 7.44771 4 8 4H11.6667H16C16.5523 4 17 4.44772 17 5V7V9V10.8442L12.6139 14.2556C12.2528 14.5365 11.7472 14.5365 11.3861 14.2556L7 10.8442V9V7V5ZM5 7V5C5 3.34315 6.34314 2 8 2H11.6667H16C17.6569 2 19 3.34315 19 5V7C20.6569 7 22 8.34315 22 10V19C22 20.6569 20.6569 22 19 22H5C3.34315 22 2 20.6569 2 19V10C2 8.34315 3.34315 7 5 7ZM19 9V9.28869L19.3087 9.04857C19.2115 9.01704 19.1077 9 19 9ZM5 9C4.89226 9 4.7885 9.01704 4.69127 9.04857L5 9.28869V9ZM4 16.865V11.0446L7.61261 13.8544L4 16.865ZM5 20C4.58966 20 4.23705 19.7529 4.0829 19.3993L9.22853 15.1113L10.1582 15.8343C11.2415 16.6769 12.7585 16.6769 13.8418 15.8343L14.7715 15.1113L19.9171 19.3993C19.763 19.7529 19.4103 20 19 20H5ZM20 11.0446V16.865L16.3874 13.8544L20 11.0446Z" fill="#8A94A6"/>
</svg>
