<svg width="20" height="20" viewBox="0 0 20 20" fill="none" xmlns="http://www.w3.org/2000/svg">
<path fill-rule="evenodd" clip-rule="evenodd" d="M4.04819 2.2428C2.94478 2.2428 2.05029 3.13729 2.05029 4.2407V6.2386C2.05029 6.67996 2.40809 7.03776 2.84945 7.03776C3.29082 7.03776 3.64861 6.67996 3.64861 6.2386V4.2407C3.64861 4.02002 3.82751 3.84112 4.04819 3.84112H6.04609C6.48745 3.84112 6.84525 3.48332 6.84525 3.04196C6.84525 2.60059 6.48745 2.2428 6.04609 2.2428H4.04819ZM16.0356 2.2428C17.139 2.2428 18.0335 3.13729 18.0335 4.2407V6.2386C18.0335 6.67996 17.6757 7.03776 17.2343 7.03776C16.793 7.03776 16.4352 6.67996 16.4352 6.2386V4.2407C16.4352 4.02002 16.2563 3.84112 16.0356 3.84112H14.0377C13.5963 3.84112 13.2385 3.48332 13.2385 3.04196C13.2385 2.60059 13.5963 2.2428 14.0377 2.2428H16.0356ZM2.05029 16.2281C2.05029 17.3315 2.94478 18.226 4.04819 18.226H6.04609C6.48745 18.226 6.84525 17.8682 6.84525 17.4268C6.84525 16.9855 6.48745 16.6277 6.04609 16.6277H4.04819C3.82751 16.6277 3.64861 16.4488 3.64861 16.2281V14.2302C3.64861 13.7888 3.29082 13.431 2.84945 13.431C2.40809 13.431 2.05029 13.7888 2.05029 14.2302V16.2281ZM16.0356 18.226C17.139 18.226 18.0335 17.3315 18.0335 16.2281V14.2302C18.0335 13.7888 17.6757 13.431 17.2343 13.431C16.793 13.431 16.4352 13.7888 16.4352 14.2302V16.2281C16.4352 16.4488 16.2563 16.6277 16.0356 16.6277H14.0377C13.5963 16.6277 13.2385 16.9855 13.2385 17.4268C13.2385 17.8682 13.5963 18.226 14.0377 18.226H16.0356Z" fill="white"/>
</svg>
