<svg width="61" height="61" viewBox="0 0 61 61" fill="none" xmlns="http://www.w3.org/2000/svg">
<path d="M52.3203 0H8.67974C3.88605 0 0 3.88605 0 8.67974V52.3203C0 57.1139 3.88605 61 8.67974 61H52.3203C57.1139 61 61 57.1139 61 52.3203V8.67974C61 3.88605 57.1139 0 52.3203 0Z" fill="#FFD593"/>
<path fill-rule="evenodd" clip-rule="evenodd" d="M34.6671 36.6985C32.7076 38.2217 30.2454 39.1286 27.5714 39.1286C21.1807 39.1286 16 33.948 16 27.5573C16 21.1665 21.1807 15.9858 27.5714 15.9858C33.9622 15.9858 39.1428 21.1665 39.1428 27.5573C39.1428 30.2312 38.2359 32.6935 36.7126 34.6529L44.5049 42.4452C45.0698 43.01 45.0698 43.9259 44.5049 44.4907C43.9401 45.0557 43.0242 45.0557 42.4594 44.4907L34.6671 36.6985ZM36.25 27.5573C36.25 32.3503 32.3645 36.2358 27.5714 36.2358C22.7784 36.2358 18.8929 32.3503 18.8929 27.5573C18.8929 22.7642 22.7784 18.8787 27.5714 18.8787C32.3645 18.8787 36.25 22.7642 36.25 27.5573Z" fill="url(#paint0_linear)"/>
<defs>
<linearGradient id="paint0_linear" x1="17.307" y1="20.0736" x2="45.513" y2="21.6518" gradientUnits="userSpaceOnUse">
<stop stop-color="#6F5FA7"/>
<stop offset="1" stop-color="#6F5FA7"/>
</linearGradient>
</defs>
</svg>
