<svg width="282" height="160" viewBox="0 0 282 160" fill="none" xmlns="http://www.w3.org/2000/svg">
<g clip-path="url(#clip0)">
<path d="M277.219 67.9563C269.742 48.5452 252.641 33.4293 230.673 29.595L72.0837 1.91384C39.2206 -3.82229 7.87728 18.0468 1.64566 50.6361C-4.31821 82.7289 17.0601 113.801 48.3251 121.431C49.5553 121.646 50.9305 122.067 52.3364 122.312L269.799 160.269L280.287 100.177C282.25 88.932 280.927 77.8375 277.219 67.9563Z" fill="#6F5FA7"/>
<g clip-path="url(#clip1)">
<path d="M90.4436 64.1925C93.53 46.5106 81.6979 29.6746 64.016 26.5883C46.334 23.5019 29.4981 35.334 26.4117 53.016C23.3254 70.6979 35.1575 87.5339 52.8394 90.6202C70.5214 93.7065 87.3573 81.8744 90.4436 64.1925Z" fill="#FDD395"/>
</g>
</g>
<path d="M51.3619 61.1264L51.8164 58.5228C52.0717 57.0601 53.968 56.6362 54.8218 57.8511L56.971 60.9091C57.8247 62.124 56.7835 63.7646 55.3208 63.5093L52.7172 63.0549C51.8104 62.8966 51.2036 62.0332 51.3619 61.1264Z" fill="white" fill-opacity="0.5"/>
<path d="M45.1589 48.2009C44.2522 48.0426 43.3888 48.6494 43.2305 49.5562C43.0723 50.4629 43.679 51.3263 44.5858 51.4846L47.8695 52.0577C48.7762 52.216 49.6396 51.6092 49.7979 50.7025C49.9562 49.7957 49.3494 48.9323 48.4426 48.774L45.1589 48.2009Z" fill="white" fill-opacity="0.5"/>
<path d="M43.4395 58.0519C42.5327 57.8937 41.6693 58.5004 41.5111 59.4072C41.3528 60.314 41.9596 61.1774 42.8663 61.3356L46.15 61.9088C47.0568 62.0671 47.9202 61.4603 48.0784 60.5535C48.2367 59.6468 47.6299 58.7834 46.7232 58.6251L43.4395 58.0519Z" fill="white" fill-opacity="0.5"/>
<path d="M50.9979 72.9062C50.0911 72.7479 49.4844 71.8845 49.6426 70.9777L50.2158 67.6941C50.3741 66.7873 51.2375 66.1805 52.1442 66.3388C53.051 66.4971 53.6578 67.3604 53.4995 68.2672L52.9263 71.5509C52.7681 72.4577 51.9047 73.0644 50.9979 72.9062Z" fill="white" fill-opacity="0.5"/>
<path d="M59.4937 72.6972C59.3354 73.604 59.9422 74.4674 60.849 74.6256C61.7557 74.7839 62.6191 74.1771 62.7774 73.2704L63.3506 69.9867C63.5088 69.0799 62.902 68.2165 61.9953 68.0583C61.0885 67.9 60.2251 68.5068 60.0669 69.4135L59.4937 72.6972Z" fill="white" fill-opacity="0.5"/>
<path fill-rule="evenodd" clip-rule="evenodd" d="M47.5907 43.9605L43.6482 66.5479C43.4899 67.4547 44.0967 68.318 45.0034 68.4763L67.5908 72.4189C69.0536 72.6742 70.0948 71.0335 69.241 69.8187L50.5961 43.2887C49.7424 42.0739 47.846 42.4977 47.5907 43.9605ZM44.307 43.3873L40.3645 65.9747C39.8897 68.695 41.71 71.2852 44.4303 71.76L67.0177 75.7026C71.4059 76.4685 74.5295 71.5466 71.9682 67.9021L53.3233 41.3721C50.762 37.7276 45.0729 38.9991 44.307 43.3873Z" fill="white"/>
<defs>
<clipPath id="clip0">
<rect width="282" height="160" fill="white"/>
</clipPath>
<clipPath id="clip1">
<rect width="66" height="66" fill="white" transform="translate(25 25)"/>
</clipPath>
</defs>
</svg>
