<svg width="65" height="65" viewBox="0 0 65 65" fill="none" xmlns="http://www.w3.org/2000/svg">
<path fill-rule="evenodd" clip-rule="evenodd" d="M32.4998 54.1667C44.466 54.1667 54.1665 44.4662 54.1665 32.5C54.1665 20.5339 44.466 10.8334 32.4998 10.8334C20.5337 10.8334 10.8332 20.5339 10.8332 32.5C10.8332 44.4662 20.5337 54.1667 32.4998 54.1667ZM32.4998 59.5834C47.4576 59.5834 59.5832 47.4577 59.5832 32.5C59.5832 17.5423 47.4576 5.41669 32.4998 5.41669C17.5421 5.41669 5.4165 17.5423 5.4165 32.5C5.4165 47.4577 17.5421 59.5834 32.4998 59.5834Z" fill="#B0D4C9"/>
<path fill-rule="evenodd" clip-rule="evenodd" d="M37.2308 49.2284C39.2314 45.2271 40.6252 39.3203 40.6252 32.5C40.6252 25.6797 39.2314 19.7729 37.2308 15.7716C35.0681 11.4463 33.0826 10.8334 32.5002 10.8334C31.9177 10.8334 29.9322 11.4463 27.7696 15.7716C25.7689 19.7729 24.3752 25.6797 24.3752 32.5C24.3752 39.3203 25.7689 45.2271 27.7696 49.2284C29.9322 53.5537 31.9177 54.1667 32.5002 54.1667C33.0826 54.1667 35.0681 53.5537 37.2308 49.2284ZM32.5002 59.5834C39.979 59.5834 46.0418 47.4577 46.0418 32.5C46.0418 17.5423 39.979 5.41669 32.5002 5.41669C25.0213 5.41669 18.9585 17.5423 18.9585 32.5C18.9585 47.4577 25.0213 59.5834 32.5002 59.5834Z" fill="#B0D4C9" fill-opacity="0.5"/>
<path fill-rule="evenodd" clip-rule="evenodd" d="M59.4494 35.2084C59.5379 34.3176 59.5832 33.4141 59.5832 32.5C59.5832 31.586 59.5379 30.6825 59.4494 29.7917H5.55023C5.46179 30.6825 5.4165 31.586 5.4165 32.5C5.4165 33.4141 5.46179 34.3176 5.55023 35.2084H59.4494Z" fill="#B0D4C9" fill-opacity="0.5"/>
</svg>
