<svg width="20" height="17" viewBox="0 0 20 17" fill="none" xmlns="http://www.w3.org/2000/svg">
<path d="M9.39425 3.95792H14.7779C14.9976 3.95792 15.2174 3.99118 15.4371 4.02444C14.6955 1.66299 12.8002 0 10.6028 0H5.21913C2.3625 0 0.0277429 2.79382 0.000275134 6.2196C-0.0271925 9.41251 2.00542 12.1066 4.55992 12.539C4.31271 11.8073 4.17537 11.009 4.20284 10.1775C4.23032 6.75173 6.56505 3.95792 9.39425 3.95792Z" fill="#6F5FA7"/>
<path d="M15.4679 3.9394C15.6876 4.63786 15.8249 5.43609 15.8249 6.23433V12.5537H5.33225C5.08504 12.5537 4.81037 12.5205 4.56316 12.4872C5.35972 14.8486 7.30993 16.5116 9.50735 16.5116H20V10.1923C20 6.96604 18.0223 4.33852 15.4679 3.9394Z" fill="#FDD395"/>
<path d="M15.8292 12.6202V6.30085C15.8292 5.50261 15.6919 4.70438 15.4721 4.00592C15.2524 3.97266 15.0326 3.9394 14.8129 3.9394H9.40175C6.54511 3.9394 4.23783 6.73322 4.18289 10.159C4.18289 10.9905 4.29276 11.7887 4.53997 12.5204C4.78718 12.5537 5.03439 12.5869 5.30907 12.5869H15.8292V12.6202Z" fill="url(#paint0_linear)"/>
<defs>
<linearGradient id="paint0_linear" x1="4.19297" y1="8.27565" x2="15.8237" y2="8.27565" gradientUnits="userSpaceOnUse">
<stop stop-color="#FDD395"/>
<stop offset="1" stop-color="#6F5FA7"/>
</linearGradient>
</defs>
</svg>
