<svg width="25" height="25" viewBox="0 0 25 25" fill="none" xmlns="http://www.w3.org/2000/svg">
<path fill-rule="evenodd" clip-rule="evenodd" d="M6.07422 18.2227C6.74516 18.8936 7.83297 18.8936 8.50391 18.2227L12.1484 14.5781L15.793 18.2227C16.4639 18.8936 17.5517 18.8936 18.2227 18.2227C18.8936 17.5517 18.8936 16.4639 18.2227 15.793L14.5781 12.1484L18.2227 8.50391C18.8936 7.83297 18.8936 6.74516 18.2227 6.07422C17.5517 5.40328 16.4639 5.40328 15.793 6.07422L12.1484 9.71875L8.50391 6.07422C7.83297 5.40328 6.74516 5.40328 6.07422 6.07422C5.40328 6.74516 5.40328 7.83297 6.07422 8.50391L9.71875 12.1484L6.07422 15.793C5.40328 16.4639 5.40328 17.5517 6.07422 18.2227Z" fill="#6F5FA7"/>
</svg>
