<svg width="16" height="16" viewBox="0 0 16 16" fill="none" xmlns="http://www.w3.org/2000/svg">
<path fill-rule="evenodd" clip-rule="evenodd" d="M1.98195 1.39356C1.61709 1.39356 1.3213 1.68935 1.3213 2.05421V13.9459C1.3213 14.3108 1.61709 14.6066 1.98195 14.6066H13.8736C14.2385 14.6066 14.5343 14.3108 14.5343 13.9459V2.05422C14.5343 1.68935 14.2385 1.39357 13.8736 1.39357L1.98195 1.39356ZM1.5594e-06 2.05421C1.70294e-06 0.959614 0.887352 0.0722655 1.98195 0.0722656L13.8736 0.0722672C14.9682 0.0722673 15.8556 0.959617 15.8556 2.05422V13.9459C15.8556 15.0405 14.9682 15.9279 13.8736 15.9279H1.98195C0.887349 15.9279 -1.4354e-07 15.0405 0 13.9459L1.5594e-06 2.05421ZM5.2844 8.66071C4.91953 8.66071 4.62375 8.36493 4.62375 8.00006C4.62375 7.6352 4.91953 7.33941 5.2844 7.33941H8.97492L8.12077 6.48526C7.86277 6.22726 7.86277 5.80896 8.12077 5.55096C8.37877 5.29296 8.79707 5.29296 9.05507 5.55096L11.037 7.53291C11.1609 7.65681 11.2305 7.82485 11.2305 8.00006C11.2305 8.17528 11.1609 8.34332 11.037 8.46721L9.05507 10.4492C8.79707 10.7072 8.37877 10.7072 8.12077 10.4492C7.86277 10.1912 7.86277 9.77286 8.12077 9.51486L8.97492 8.66071H5.2844Z" fill="url(#paint0_linear)"/>
<defs>
<linearGradient id="paint0_linear" x1="13.6151" y1="0.788635" x2="12.7501" y2="16.2482" gradientUnits="userSpaceOnUse">
<stop stop-color="#6F5FA7"/>
<stop offset="1" stop-color="#6F5FA7"/>
</linearGradient>
</defs>
</svg>
