<svg width="24" height="24" viewBox="0 0 24 24" fill="none" xmlns="http://www.w3.org/2000/svg">
<path fill-rule="evenodd" clip-rule="evenodd" d="M2 12C2 6.47715 6.47715 2 12 2C17.5228 2 22 6.47715 22 12C22 17.5228 17.5228 22 12 22C6.47715 22 2 17.5228 2 12ZM12 0C5.37258 0 0 5.37258 0 12C0 18.6274 5.37258 24 12 24C18.6274 24 24 18.6274 24 12C24 5.37258 18.6274 0 12 0ZM12.0002 7C11.4479 7 11.0002 7.44772 11.0002 8V11H8C7.44771 11 7 11.4477 7 12C7 12.5523 7.44772 13 8 13H11.0002L11.0002 16.0004C11.0002 16.5527 11.4479 17.0004 12.0002 17.0004C12.5525 17.0004 13.0002 16.5527 13.0002 16.0004L13.0002 13L16.0004 13C16.5527 13 17.0004 12.5523 17.0004 12C17.0004 11.4477 16.5527 11 16.0004 11L13.0002 11V8C13.0002 7.44772 12.5525 7 12.0002 7Z" fill="url(#paint0_linear)"/>
<defs>
<linearGradient id="paint0_linear" x1="1.08434" y1="3.39131" x2="24.4849" y2="4.70068" gradientUnits="userSpaceOnUse">
<stop stop-color="#6F5FA7"/>
<stop offset="1" stop-color="#6F5FA7"/>
</linearGradient>
</defs>
</svg>
