<svg width="16" height="16" viewBox="0 0 16 16" fill="none" xmlns="http://www.w3.org/2000/svg">
<path fill-rule="evenodd" clip-rule="evenodd" d="M13.8736 1.39356C14.2385 1.39356 14.5343 1.68935 14.5343 2.05421V13.9459C14.5343 14.3108 14.2385 14.6066 13.8736 14.6066H1.98195C1.61708 14.6066 1.3213 14.3108 1.3213 13.9459V2.05422C1.3213 1.68935 1.61708 1.39357 1.98195 1.39357L13.8736 1.39356ZM15.8556 2.05421C15.8556 0.959614 14.9682 0.0722655 13.8736 0.0722656L1.98195 0.0722672C0.887348 0.0722673 -1.43539e-07 0.959617 0 2.05422L1.55941e-06 13.9459C1.70295e-06 15.0405 0.887351 15.9279 1.98195 15.9279H13.8736C14.9682 15.9279 15.8556 15.0405 15.8556 13.9459V2.05421ZM10.5712 8.66071C10.9361 8.66071 11.2319 8.36493 11.2319 8.00006C11.2319 7.6352 10.9361 7.33941 10.5712 7.33941H6.88068L7.73483 6.48526C7.99283 6.22726 7.99283 5.80896 7.73483 5.55096C7.47683 5.29296 7.05853 5.29296 6.80053 5.55096L4.81858 7.53291C4.69468 7.65681 4.62508 7.82485 4.62508 8.00006C4.62508 8.17528 4.69468 8.34332 4.81858 8.46721L6.80053 10.4492C7.05853 10.7072 7.47683 10.7072 7.73483 10.4492C7.99283 10.1912 7.99283 9.77286 7.73483 9.51486L6.88068 8.66071H10.5712Z" fill="#8A94A6"/>
</svg>
