<svg width="16" height="16" viewBox="0 0 16 16" fill="none" xmlns="http://www.w3.org/2000/svg">
<path fill-rule="evenodd" clip-rule="evenodd" d="M13.8736 1.3213C14.2385 1.3213 14.5343 1.61709 14.5343 1.98195V13.8736C14.5343 14.2385 14.2385 14.5343 13.8736 14.5343H1.98195C1.61708 14.5343 1.3213 14.2385 1.3213 13.8736V1.98196C1.3213 1.61709 1.61708 1.32131 1.98195 1.32131L13.8736 1.3213ZM15.8556 1.98195C15.8556 0.887348 14.9682 -1e-07 13.8736 0L1.98195 1.60187e-06C0.887348 1.70187e-06 -1.43539e-07 0.887351 0 1.98196L1.55941e-06 13.8736C1.70295e-06 14.9682 0.887351 15.8556 1.98195 15.8556H13.8736C14.9682 15.8556 15.8556 14.9682 15.8556 13.8736V1.98195ZM10.5712 8.58845C10.9361 8.58845 11.2319 8.29267 11.2319 7.9278C11.2319 7.56294 10.9361 7.26715 10.5712 7.26715H6.88068L7.73483 6.413C7.99283 6.155 7.99283 5.7367 7.73483 5.4787C7.47683 5.2207 7.05853 5.2207 6.80053 5.4787L4.81858 7.46065C4.69468 7.58455 4.62508 7.75259 4.62508 7.9278C4.62508 8.10302 4.69468 8.27106 4.81858 8.39495L6.80053 10.3769C7.05853 10.6349 7.47683 10.6349 7.73483 10.3769C7.99283 10.1189 7.99283 9.7006 7.73483 9.4426L6.88068 8.58845H10.5712Z" fill="#6F5FA7"/>
</svg>
