<svg width="20" height="20" viewBox="0 0 20 20" fill="none" xmlns="http://www.w3.org/2000/svg">
<path fill-rule="evenodd" clip-rule="evenodd" d="M7.97939 2.95094L7.48737 3.57522H5.8659C4.54817 3.57522 3.47993 4.65954 3.47993 5.99711V7.55489L2.7949 8.01846C1.37826 8.97709 1.37826 11.0901 2.7949 12.0487L3.47993 12.5123V14.0701C3.47993 15.4076 4.54817 16.492 5.8659 16.492H7.48737L7.97939 17.1162C8.93456 18.3282 10.7505 18.3282 11.7057 17.1162L12.1977 16.492H13.8191C15.1369 16.492 16.2051 15.4076 16.2051 14.0701V12.4242L16.8201 11.9248C18.0141 10.9552 18.0141 9.11195 16.8201 8.14241L16.2051 7.64298V5.99711C16.2051 4.65954 15.1369 3.57522 13.8191 3.57522H12.1977L11.7057 2.95094C10.7505 1.73901 8.93456 1.73901 7.97939 2.95094ZM7.86962 5.18981C8.11123 5.18981 8.33974 5.07834 8.49067 4.88683L9.22148 3.95957C9.53987 3.55559 10.1452 3.55559 10.4636 3.95957L11.1944 4.88683C11.3453 5.07834 11.5738 5.18981 11.8154 5.18981H13.8191C14.2584 5.18981 14.6145 5.55125 14.6145 5.99711V8.03099C14.6145 8.27623 14.7243 8.50818 14.913 8.66138L15.8265 9.4032C16.2245 9.72638 16.2245 10.3408 15.8265 10.664L14.913 11.4058C14.7243 11.559 14.6145 11.7909 14.6145 12.0362V14.0701C14.6145 14.5159 14.2584 14.8774 13.8191 14.8774H11.8154C11.5738 14.8774 11.3453 14.9888 11.1944 15.1803L10.4636 16.1076C10.1452 16.5116 9.53987 16.5116 9.22148 16.1076L8.49067 15.1803C8.33974 14.9888 8.11123 14.8774 7.86962 14.8774H5.8659C5.42666 14.8774 5.07058 14.5159 5.07058 14.0701V12.0802C5.07058 11.8103 4.93768 11.5582 4.71642 11.4085L3.67723 10.7053C3.20502 10.3858 3.20502 9.68142 3.67723 9.36188L4.71642 8.65866C4.93768 8.50893 5.07058 8.25687 5.07058 7.98695V5.99711C5.07058 5.55125 5.42666 5.18981 5.8659 5.18981H7.86962ZM9.72402 9.23443C10.1654 9.23443 10.5232 9.59223 10.5232 10.0336C10.5232 10.475 10.1654 10.8327 9.72402 10.8327C9.28265 10.8327 8.92486 10.475 8.92486 10.0336C8.92486 9.59223 9.28265 9.23443 9.72402 9.23443ZM7.32654 10.0336C7.32654 11.3577 8.39993 12.4311 9.72402 12.4311C11.0481 12.4311 12.1215 11.3577 12.1215 10.0336C12.1215 8.7095 11.0481 7.63611 9.72402 7.63611C8.39993 7.63611 7.32654 8.7095 7.32654 10.0336Z" fill="white"/>
</svg>
