<svg width="24" height="24" viewBox="0 0 24 24" fill="none" xmlns="http://www.w3.org/2000/svg">
<path fill-rule="evenodd" clip-rule="evenodd" d="M2.56788 5.19093L8 2.58804V19.5552C7.90178 19.5902 7.80494 19.6304 7.70991 19.676L3.43212 21.7257C2.76833 22.0438 2 21.56 2 20.8239V6.09275C2 5.70792 2.22083 5.35723 2.56788 5.19093ZM10.2873 19.6687C10.1931 19.6242 10.0972 19.5849 10 19.5508V2.82556L13.524 5.077C13.9738 5.36438 14.4836 5.52169 15 5.54568V21.8337C14.8907 21.8218 14.7832 21.7917 14.682 21.7439L10.2873 19.6687ZM17 21.2308L21.3338 19.6959C21.7331 19.5545 22 19.1769 22 18.7533V4.17608C22 3.44003 21.2317 2.9562 20.5679 3.27427L17 4.98388V21.2308ZM7.56448 0.578981C8.50035 0.130547 9.6015 0.197627 10.476 0.756341L14.6008 3.39161C14.8923 3.57784 15.2593 3.6002 15.5713 3.45072L19.7036 1.47063C21.695 0.51644 24 1.96792 24 4.17608V18.7533C24 20.024 23.1994 21.1569 22.0015 21.5812L16.1105 23.6676C15.3643 23.9319 14.5438 23.8905 13.828 23.5524L9.43328 21.4772C9.16113 21.3486 8.84557 21.3495 8.57415 21.4796L4.29636 23.5294C2.305 24.4836 0 23.0321 0 20.8239V6.09275C0 4.93825 0.662494 3.88618 1.70364 3.3873L7.56448 0.578981Z" fill="#6F5FA7"/>
</svg>
