<svg width="14" height="14" viewBox="0 0 14 14" fill="none" xmlns="http://www.w3.org/2000/svg">
<path d="M7.70711 6.29289C8.09763 6.68342 8.09763 7.31658 7.70711 7.70711L1.70711 13.7071C1.31658 14.0976 0.683419 14.0976 0.292895 13.7071C-0.0976306 13.3166 -0.0976307 12.6834 0.292895 12.2929L5.58579 7L0.292894 1.70711C-0.0976312 1.31658 -0.0976312 0.683417 0.292894 0.292893C0.683418 -0.0976311 1.31658 -0.0976311 1.70711 0.292893L7.70711 6.29289Z" fill="#8A94A6"/>
<path d="M6.29289 6.2929C5.90237 6.68343 5.90237 7.31659 6.29289 7.70712L12.2929 13.7071C12.6834 14.0976 13.3166 14.0976 13.7071 13.7071C14.0976 13.3166 14.0976 12.6834 13.7071 12.2929L8.41421 7.00001L13.7071 1.70711C14.0976 1.31658 14.0976 0.683419 13.7071 0.292894C13.3166 -0.0976313 12.6834 -0.0976313 12.2929 0.292894L6.29289 6.2929Z" fill="#8A94A6"/>
</svg>
