<svg width="73" height="73" viewBox="0 0 73 73" fill="none" xmlns="http://www.w3.org/2000/svg">
<path fill-rule="evenodd" clip-rule="evenodd" d="M21.2918 48.3666V57.7768L36.6894 48.6782L38.2988 48.6519C44.6981 48.5471 50.4572 47.9028 54.7635 47.2475C57.4812 46.834 59.3695 44.9373 59.7798 42.5558C60.3488 39.2523 60.8335 35.0671 60.8335 30.4167C60.8335 25.7662 60.3488 21.581 59.7798 18.2776C59.3695 15.896 57.4812 13.9993 54.7635 13.5858C50.0536 12.8692 43.6126 12.1667 36.5002 12.1667C29.3877 12.1667 22.9467 12.8692 18.2368 13.5858C15.5192 13.9993 13.6308 15.896 13.2206 18.2776C12.6515 21.581 12.1668 25.7662 12.1668 30.4167C12.1668 35.0671 12.6515 39.2523 13.2206 42.5558C13.5768 44.6239 15.0216 46.2815 17.128 46.982L21.2918 48.3666ZM7.22551 17.2449C8.10817 12.1207 12.1812 8.35387 17.3218 7.57171C22.2472 6.82227 29.0042 6.08334 36.5002 6.08334C43.9961 6.08334 50.7531 6.82227 55.6786 7.57171C60.8191 8.35388 64.8922 12.1207 65.7748 17.2449C66.39 20.8163 66.9168 25.3531 66.9168 30.4167C66.9168 35.4803 66.39 40.017 65.7748 43.5884C64.8922 48.7127 60.8191 52.4795 55.6786 53.2617C51.1725 53.9473 45.1336 54.6241 38.3984 54.7344L19.7975 65.7258C17.7699 66.9239 15.2085 65.4623 15.2085 63.1071V52.7545C11.0918 51.3856 7.9832 47.9872 7.22551 43.5884C6.61035 40.017 6.0835 35.4803 6.0835 30.4167C6.0835 25.3531 6.61035 20.8163 7.22551 17.2449Z" fill="#8BBFEC"/>
<path fill-rule="evenodd" clip-rule="evenodd" d="M21.2917 21.2917C19.6118 21.2917 18.25 22.6535 18.25 24.3333C18.25 26.0132 19.6118 27.375 21.2917 27.375H51.7083C53.3882 27.375 54.75 26.0132 54.75 24.3333C54.75 22.6535 53.3882 21.2917 51.7083 21.2917H21.2917ZM21.2917 33.4583C19.6118 33.4583 18.25 34.8201 18.25 36.5C18.25 38.1799 19.6118 39.5417 21.2917 39.5417H33.4583C35.1382 39.5417 36.5 38.1799 36.5 36.5C36.5 34.8201 35.1382 33.4583 33.4583 33.4583H21.2917Z" fill="#8BBFEC" fill-opacity="0.5"/>
</svg>
