<svg width="18" height="18" viewBox="0 0 18 18" fill="none" xmlns="http://www.w3.org/2000/svg">
<path fill-rule="evenodd" clip-rule="evenodd" d="M15.1616 4.61675L9 7.41029L2.83841 4.61675L9 1.5L15.1616 4.61675ZM15.75 5.99694L9.75 8.71722V12.939V15.019V15.652V15.7515V15.7568V15.7621V15.7672V15.7723V15.7772V15.782V15.7867V15.7914V15.7959V15.8003V15.8046V15.8087V15.8128V15.8168V15.8206V15.8244V15.8693V15.8807V15.8816V15.8824V15.883V15.8836V15.884V15.8843V15.8845L9 15.8845L8.25 15.8845V15.8843V15.884V15.8836V15.883V15.8824V15.8816V15.8807V15.8797V15.8785V15.8773V15.8759V15.8744V15.8728V15.8711V15.8693V15.8244V15.8206V15.8168V15.8128V15.8087V15.8046V15.8003V15.7959V15.7914V15.7867V15.782V15.7772V15.7723V15.7672V15.7621V15.7568V15.7515V15.746V15.7405V15.7291V15.7172V15.7112V15.705V15.6987V15.6923V15.6793V15.6726V15.6659V15.652V15.019V12.939V8.71722L2.25 5.99694V13.0855L8.29601 16.1438C8.26625 16.063 8.25 15.9757 8.25 15.8845H9H9.75C9.75 15.9757 9.73375 16.063 9.70399 16.1438L15.75 13.0855V5.99694ZM1.57294 3.57589C1.0682 3.83121 0.75 4.34875 0.75 4.91439V13.0855C0.75 13.6511 1.0682 14.1687 1.57294 14.424L8.32294 17.8384C8.74863 18.0537 9.25137 18.0537 9.67706 17.8384L16.4271 14.424C16.9318 14.1687 17.25 13.6511 17.25 13.0855V4.91439C17.25 4.34875 16.9318 3.83121 16.4271 3.57589L9.67706 0.161498C9.25137 -0.0538329 8.74863 -0.0538328 8.32294 0.161499L1.57294 3.57589Z" fill="#8A94A6"/>
</svg>
