<svg width="15" height="19" viewBox="0 0 15 19" fill="none" xmlns="http://www.w3.org/2000/svg">
<path fill-rule="evenodd" clip-rule="evenodd" d="M5.625 4.58333L3.75 4.58333H1.875L1.875 5.5H2.81023L2.8125 5.5L11.25 5.5L12.1875 5.5L12.1897 5.5H13.125V4.58333L11.25 4.58333L9.375 4.58333L5.625 4.58333ZM9.375 2.75C9.375 2.24374 8.95527 1.83333 8.4375 1.83333L6.5625 1.83333C6.04473 1.83333 5.625 2.24374 5.625 2.75L8.4375 2.75H9.375ZM3.75 2.75C3.75 1.23122 5.0092 0 6.5625 0H8.4375C9.9908 0 11.25 1.23122 11.25 2.75L13.125 2.75C13.6223 2.75 14.0992 2.94315 14.4508 3.28697C14.8025 3.63079 15 4.0971 15 4.58333V5.5C15 6.18489 14.6159 6.78207 14.0468 7.09683C14.0572 7.17483 14.0625 7.25381 14.0625 7.33333L14.0625 15.5833C14.0625 17.1021 12.8033 18.3333 11.25 18.3333H3.75C2.1967 18.3333 0.937502 17.1021 0.937502 15.5833L0.937501 7.33333C0.937501 7.25316 0.942765 7.17418 0.952972 7.09672C0.384012 6.78194 0 6.18482 0 5.5V4.58333C0 3.57081 0.839466 2.75 1.875 2.75L3.75 2.75ZM2.8125 9.16667L2.8125 7.33333L4.6875 7.33333V12.8333C4.6875 13.3396 5.10723 13.75 5.625 13.75C6.14277 13.75 6.5625 13.3396 6.5625 12.8333V7.33333H8.4375V12.8333C8.4375 13.3396 8.85723 13.75 9.375 13.75C9.89277 13.75 10.3125 13.3396 10.3125 12.8333V7.33333L12.1875 7.33333V9.16667L12.1875 15.5833C12.1875 16.0896 11.7678 16.5 11.25 16.5H3.75C3.23224 16.5 2.8125 16.0896 2.8125 15.5833L2.8125 9.16667Z" fill="#FFD593"/>
</svg>
