<svg width="292" height="158" viewBox="0 0 292 158" fill="none" xmlns="http://www.w3.org/2000/svg">
<path d="M263.337 19.9373C249 4.86631 227.415 -2.55324 205.653 2.31237L48.5448 37.4389C15.9886 44.7178 -4.59762 76.9182 2.11877 109.411C8.89251 141.343 40.5354 161.866 72.34 156.948C73.5587 156.676 74.9904 156.538 76.3832 156.227L291.814 108.061L278.504 48.5303C276.014 37.3901 270.545 27.6469 263.337 19.9373Z" fill="#FFD593"/>
<g clip-path="url(#clip0)">
<path d="M94.5545 89.7477C90.638 72.2309 73.263 61.2056 55.7462 65.1221C38.2294 69.0385 27.2042 86.4135 31.1206 103.93C35.037 121.447 52.4121 132.472 69.9289 128.556C87.4456 124.639 98.4709 107.264 94.5545 89.7477Z" fill="url(#paint0_linear)"/>
</g>
<path d="M51.3678 93.2906L55.0226 96.5651C54.0077 97.1196 53.2297 98.0054 52.799 99.0484L49.144 95.7737C50.1589 95.2193 50.937 94.3336 51.3678 93.2906Z" fill="white" fill-opacity="0.5"/>
<path d="M60.0248 96.6834C60.9776 97.2643 61.7362 98.1616 62.1305 99.2675L66.378 95.8072C65.4251 95.2264 64.6666 94.3291 64.2722 93.2233L60.0248 96.6834Z" fill="white" fill-opacity="0.5"/>
<path d="M73.6034 93.4425L77.2581 96.7171C76.2433 97.2715 75.4653 98.1574 75.0346 99.2004L71.3796 95.9257C72.3945 95.3713 73.1726 94.4856 73.6034 93.4425Z" fill="white" fill-opacity="0.5"/>
<path fill-rule="evenodd" clip-rule="evenodd" d="M41.8648 92.4767C42.4674 95.1716 45.1404 96.8678 47.8353 96.2652C50.5302 95.6627 52.2264 92.9896 51.6239 90.2947C51.0213 87.5998 48.3483 85.9036 45.6534 86.5062C42.9585 87.1087 41.2623 89.7818 41.8648 92.4767ZM45.1179 91.7494C45.3187 92.6477 46.2097 93.2131 47.108 93.0122C48.0063 92.8114 48.5717 91.9203 48.3709 91.022C48.17 90.1237 47.279 89.5584 46.3807 89.7592C45.4824 89.96 44.917 90.8511 45.1179 91.7494Z" fill="white"/>
<path fill-rule="evenodd" clip-rule="evenodd" d="M64.1004 92.6287C64.7029 95.3235 67.376 97.0197 70.0709 96.4172C72.7658 95.8147 74.462 93.1416 73.8595 90.4467C73.2569 87.7518 70.5838 86.0556 67.889 86.6582C65.1941 87.2607 63.4979 89.9338 64.1004 92.6287ZM67.3534 91.9013C67.5543 92.7996 68.4453 93.365 69.3436 93.1642C70.2419 92.9634 70.8073 92.0723 70.6064 91.174C70.4056 90.2757 69.5146 89.7103 68.6163 89.9112C67.718 90.112 67.1526 91.0031 67.3534 91.9013Z" fill="white"/>
<path fill-rule="evenodd" clip-rule="evenodd" d="M74.7785 102.196C75.3811 104.891 78.0541 106.587 80.749 105.984C83.4439 105.382 85.1401 102.709 84.5376 100.014C83.9351 97.3191 81.262 95.6229 78.5671 96.2254C75.8722 96.828 74.176 99.5011 74.7785 102.196ZM78.0316 101.469C78.2324 102.367 79.1234 102.932 80.0217 102.731C80.92 102.531 81.4854 101.64 81.2846 100.741C81.0837 99.843 80.1927 99.2776 79.2944 99.4785C78.3961 99.6793 77.8307 100.57 78.0316 101.469Z" fill="white"/>
<path fill-rule="evenodd" clip-rule="evenodd" d="M58.5135 105.832C55.8186 106.435 53.1455 104.739 52.543 102.044C51.9404 99.3491 53.6366 96.676 56.3315 96.0735C59.0264 95.4709 61.6995 97.1671 62.302 99.862C62.9045 102.557 61.2083 105.23 58.5135 105.832ZM57.7861 102.579C56.8878 102.78 55.9968 102.215 55.796 101.317C55.5951 100.418 56.1605 99.5273 57.0588 99.3265C57.9571 99.1256 58.8481 99.691 59.049 100.589C59.2498 101.488 58.6844 102.379 57.7861 102.579Z" fill="white"/>
<defs>
<linearGradient id="paint0_linear" x1="28.8994" y1="80.5361" x2="91.5225" y2="70.1685" gradientUnits="userSpaceOnUse">
<stop stop-color="#6F5FA7"/>
<stop offset="1" stop-color="#6F5FA7"/>
</linearGradient>
<clipPath id="clip0">
<rect width="66" height="66" fill="white" transform="translate(30 64)"/>
</clipPath>
</defs>
</svg>
