<svg width="4" height="4" viewBox="0 0 4 4" fill="none" xmlns="http://www.w3.org/2000/svg">
<path fill-rule="evenodd" clip-rule="evenodd" d="M1.57691 1.21748C1.66155 0.958431 2.02514 0.958431 2.10978 1.21748L2.26125 1.68106C2.26656 1.69732 2.28147 1.70844 2.29845 1.70881L2.77646 1.71917C3.03852 1.72485 3.15035 2.05748 2.94569 2.22255L2.55061 2.54121C2.53799 2.55139 2.53267 2.56821 2.53712 2.58387L2.67753 3.0776C2.75123 3.33676 2.45741 3.54294 2.24182 3.38334L1.86707 3.10591C1.85295 3.09546 1.83374 3.09546 1.81962 3.10591L1.44487 3.38334C1.22928 3.54294 0.935465 3.33676 1.00917 3.0776L1.14957 2.58387C1.15402 2.56821 1.14871 2.55139 1.13609 2.54121L0.740999 2.22255C0.536342 2.05748 0.64817 1.72485 0.910233 1.71917L1.38824 1.70881C1.40522 1.70844 1.42013 1.69732 1.42544 1.68106L1.57691 1.21748ZM1.88141 1.29327C1.86932 1.25627 1.81738 1.25627 1.80528 1.29327L1.65381 1.75686C1.61663 1.87068 1.51228 1.9485 1.39341 1.95108L0.915404 1.96144C0.877967 1.96225 0.861991 2.00977 0.891228 2.03335L1.28632 2.35201C1.37465 2.42326 1.41187 2.54102 1.3807 2.65064L1.24029 3.14436C1.22976 3.18139 1.27174 3.21084 1.30254 3.18804L1.67729 2.91061C1.7761 2.83747 1.91059 2.83747 2.0094 2.91061L2.38416 3.18804C2.41495 3.21084 2.45693 3.18138 2.4464 3.14436L2.30599 2.65064C2.27482 2.54102 2.31204 2.42326 2.40038 2.35201L2.79547 2.03335C2.8247 2.00977 2.80873 1.96225 2.77129 1.96144L2.29328 1.95108C2.17441 1.9485 2.07007 1.87068 2.03288 1.75686L1.88141 1.29327Z" fill="#8A94A6"/>
<path d="M1.46696 1.85466L1.74937 1.1957L1.93765 1.10156L2.22006 1.76052L2.97316 1.9488L2.40833 2.51362L2.50247 3.26672L1.84351 2.9843L1.18455 3.26672L1.27869 2.60776L0.713867 1.9488L1.46696 1.85466Z" fill="#8A94A6"/>
</svg>
