<svg width="49" height="49" viewBox="0 0 49 49" fill="none" xmlns="http://www.w3.org/2000/svg">
<g clip-path="url(#clip0)">
<path d="M12.3678 21.2906L16.0226 24.5651C15.0077 25.1196 14.2297 26.0054 13.799 27.0484L10.144 23.7737C11.1589 23.2193 11.937 22.3336 12.3678 21.2906Z" fill="white" fill-opacity="0.5"/>
<path d="M21.0247 24.6834C21.9775 25.2643 22.7361 26.1616 23.1304 27.2675L27.3779 23.8072C26.425 23.2264 25.6665 22.3291 25.2721 21.2233L21.0247 24.6834Z" fill="white" fill-opacity="0.5"/>
<path d="M34.6034 21.4425L38.2581 24.7171C37.2433 25.2715 36.4653 26.1574 36.0346 27.2004L32.3796 23.9257C33.3945 23.3713 34.1726 22.4856 34.6034 21.4425Z" fill="white" fill-opacity="0.5"/>
<path fill-rule="evenodd" clip-rule="evenodd" d="M2.86481 20.4767C3.46734 23.1716 6.14042 24.8678 8.83531 24.2652C11.5302 23.6627 13.2264 20.9896 12.6239 18.2947C12.0213 15.5998 9.34826 13.9036 6.65337 14.5062C3.95848 15.1087 2.26229 17.7818 2.86481 20.4767ZM6.11783 19.7494C6.31867 20.6477 7.2097 21.2131 8.108 21.0122C9.00629 20.8114 9.57169 19.9203 9.37085 19.022C9.17001 18.1237 8.27898 17.5584 7.38068 17.7592C6.48239 17.96 5.91699 18.8511 6.11783 19.7494Z" fill="white"/>
<path fill-rule="evenodd" clip-rule="evenodd" d="M25.1004 20.6287C25.7029 23.3235 28.376 25.0197 31.0709 24.4172C33.7658 23.8147 35.462 21.1416 34.8595 18.4467C34.2569 15.7518 31.5838 14.0556 28.889 14.6582C26.1941 15.2607 24.4979 17.9338 25.1004 20.6287ZM28.3534 19.9013C28.5543 20.7996 29.4453 21.365 30.3436 21.1642C31.2419 20.9634 31.8073 20.0723 31.6064 19.174C31.4056 18.2757 30.5146 17.7103 29.6163 17.9112C28.718 18.112 28.1526 19.0031 28.3534 19.9013Z" fill="white"/>
<path fill-rule="evenodd" clip-rule="evenodd" d="M35.7785 30.1959C36.3811 32.8908 39.0541 34.587 41.749 33.9845C44.4439 33.382 46.1401 30.7089 45.5376 28.014C44.9351 25.3191 42.262 23.6229 39.5671 24.2254C36.8722 24.828 35.176 27.5011 35.7785 30.1959ZM39.0316 29.4686C39.2324 30.3669 40.1234 30.9323 41.0217 30.7315C41.92 30.5306 42.4854 29.6396 42.2846 28.7413C42.0837 27.843 41.1927 27.2776 40.2944 27.4785C39.3961 27.6793 38.8307 28.5703 39.0316 29.4686Z" fill="white"/>
<path fill-rule="evenodd" clip-rule="evenodd" d="M19.5135 33.8325C16.8186 34.435 14.1455 32.7388 13.543 30.0439C12.9404 27.3491 14.6366 24.676 17.3315 24.0735C20.0264 23.4709 22.6995 25.1671 23.302 27.862C23.9045 30.5569 22.2083 33.23 19.5135 33.8325ZM18.7861 30.5795C17.8878 30.7803 16.9968 30.2149 16.796 29.3166C16.5951 28.4183 17.1605 27.5273 18.0588 27.3265C18.9571 27.1256 19.8481 27.691 20.049 28.5893C20.2498 29.4876 19.6844 30.3786 18.7861 30.5795Z" fill="white"/>
</g>
<defs>
<clipPath id="clip0">
<rect width="40" height="40" fill="white" transform="translate(0.319336 9.09106) rotate(-12.603)"/>
</clipPath>
</defs>
</svg>
