<svg width="30" height="30" viewBox="0 0 30 30" fill="none" xmlns="http://www.w3.org/2000/svg">
<path opacity="0.4" d="M15 30C23.2843 30 30 23.2843 30 15C30 6.71573 23.2843 0 15 0C6.71573 0 0 6.71573 0 15C0 23.2843 6.71573 30 15 30Z" fill="url(#paint0_linear)" fill-opacity="0.5"/>
<path fill-rule="evenodd" clip-rule="evenodd" d="M5.8335 15C5.8335 20.0627 9.93755 24.1667 15.0002 24.1667C20.0628 24.1667 24.1668 20.0627 24.1668 15C24.1668 9.93743 20.0628 5.83337 15.0002 5.83337C9.93755 5.83337 5.8335 9.93743 5.8335 15ZM7.66683 15C7.66683 10.95 10.9501 7.66671 15.0002 7.66671C19.0503 7.66671 22.3335 10.95 22.3335 15C22.3335 19.0501 19.0503 22.3334 15.0002 22.3334C10.9501 22.3334 7.66683 19.0501 7.66683 15ZM15.1004 11.6413C14.5379 11.2662 13.8145 11.2313 13.2184 11.5503C12.6223 11.8693 12.2502 12.4906 12.2502 13.1667V16.8334C12.2502 17.5095 12.6223 18.1307 13.2184 18.4498C13.8145 18.7688 14.5379 18.7338 15.1004 18.3588L17.8504 16.5255C18.3605 16.1854 18.6668 15.613 18.6668 15C18.6668 14.3871 18.3605 13.8146 17.8504 13.4746L15.1004 11.6413ZM15.181 16.1017L14.0835 16.8334V15.3701V14.63V13.1667L15.181 13.8983L15.9168 14.3889L16.8335 15L15.9168 15.6112L15.181 16.1017Z" fill="url(#paint1_linear)"/>
<defs>
<linearGradient id="paint0_linear" x1="1.35542" y1="4.23913" x2="30.6061" y2="5.87584" gradientUnits="userSpaceOnUse">
<stop stop-color="#6F5FA7"/>
<stop offset="1" stop-color="#6F5FA7"/>
</linearGradient>
<linearGradient id="paint1_linear" x1="6.66181" y1="8.42396" x2="24.5372" y2="9.42417" gradientUnits="userSpaceOnUse">
<stop stop-color="#6F5FA7"/>
<stop offset="1" stop-color="#6F5FA7"/>
</linearGradient>
</defs>
</svg>
