<svg width="24" height="24" viewBox="0 0 24 24" fill="none" xmlns="http://www.w3.org/2000/svg">
<path fill-rule="evenodd" clip-rule="evenodd" d="M2 12C2 6.47715 6.47715 2 12 2C17.5228 2 22 6.47715 22 12C22 17.5228 17.5228 22 12 22C6.47715 22 2 17.5228 2 12ZM12 0C5.37258 0 0 5.37258 0 12C0 18.6274 5.37258 24 12 24C18.6274 24 24 18.6274 24 12C24 5.37258 18.6274 0 12 0ZM16.0004 11C16.5527 11 17.0004 11.4477 17.0004 12C17.0004 12.5523 16.5527 13 16.0004 13L7.99995 13C7.44766 13 6.99995 12.5523 6.99995 12C6.99995 11.4477 7.44766 11 7.99995 11L16.0004 11Z" fill="#6F5FA7"/>
</svg>
