<svg width="26" height="26" viewBox="0 0 26 26" fill="none" xmlns="http://www.w3.org/2000/svg">
<path fill-rule="evenodd" clip-rule="evenodd" d="M13.766 12.6827C13.343 13.1057 12.657 13.1057 12.234 12.6827L8.98397 9.43266C8.5609 9.00959 8.5609 8.32366 8.98397 7.90059C9.40704 7.47753 10.093 7.47753 10.516 7.90059L11.9167 9.30123V3.24996C11.9167 2.65165 12.4017 2.16663 13 2.16663C13.5983 2.16663 14.0833 2.65165 14.0833 3.24996V9.30123L15.484 7.90059C15.907 7.47753 16.593 7.47753 17.016 7.90059C17.4391 8.32366 17.4391 9.00959 17.016 9.43266L13.766 12.6827ZM5.41667 20.5833V15.1666H8.35767C8.52545 15.7454 8.824 16.3905 9.35582 16.9682C10.2402 17.929 11.502 18.4166 13 18.4166C14.5011 18.4166 15.763 17.9272 16.6481 16.9679C17.1809 16.3904 17.4811 15.7453 17.6504 15.1666H20.5833V20.5833H5.41667ZM9.30991 13H4.33333C3.73502 13 3.25 13.485 3.25 14.0833V21.6666C3.25 22.2649 3.73503 22.75 4.33333 22.75H21.6667C22.265 22.75 22.75 22.2649 22.75 21.6666V14.0833C22.75 13.485 22.265 13 21.6667 13H16.7007C16.1605 13 15.7422 13.4974 15.6772 14.0337C15.5619 14.9852 15.0274 16.25 13 16.25C10.9759 16.25 10.4459 14.9894 10.3339 14.0384C10.2706 13.5003 9.85176 13 9.30991 13Z" fill="url(#paint0_linear)"/>
<defs>
<linearGradient id="paint0_linear" x1="4.13102" y1="5.07514" x2="23.1501" y2="6.08333" gradientUnits="userSpaceOnUse">
<stop stop-color="#6F5FA7"/>
<stop offset="1" stop-color="#6F5FA7"/>
</linearGradient>
</defs>
</svg>
