<svg width="24" height="24" viewBox="0 0 24 24" fill="none" xmlns="http://www.w3.org/2000/svg">
<path fill-rule="evenodd" clip-rule="evenodd" d="M9.57406 2.76901C10.3447 0.410328 13.6553 0.410334 14.4259 2.76901L15.8051 6.99008C15.8535 7.13813 15.9892 7.23936 16.1438 7.24271L20.4962 7.33707C22.8824 7.3888 23.9006 10.4175 22.0372 11.9204L18.4398 14.8219C18.3249 14.9146 18.2765 15.0678 18.317 15.2104L19.5954 19.7059C20.2665 22.0656 17.5912 23.9429 15.6282 22.4897L12.216 19.9637C12.0875 19.8686 11.9125 19.8686 11.784 19.9637L8.37177 22.4897C6.40879 23.9429 3.7335 22.0656 4.40456 19.7059L5.68299 15.2104C5.72354 15.0678 5.67513 14.9146 5.56022 14.8219L1.96284 11.9205C0.0993767 10.4175 1.1176 7.3888 3.50376 7.33707L7.85616 7.24271C8.01078 7.23936 8.14651 7.13813 8.19488 6.99008L9.57406 2.76901ZM12.3466 3.45914C12.2365 3.12218 11.7635 3.12218 11.6534 3.45914L10.2743 7.68021C9.93564 8.71654 8.98557 9.42515 7.90325 9.44862L3.55084 9.54298C3.20996 9.55037 3.0645 9.98303 3.33071 10.1977L6.92809 13.0992C7.73242 13.748 8.07131 14.8202 7.78748 15.8183L6.50904 20.3138C6.41318 20.6509 6.79536 20.9191 7.07579 20.7115L10.488 18.1854C11.3877 17.5194 12.6123 17.5194 13.512 18.1854L16.9242 20.7115C17.2046 20.9191 17.5868 20.6509 17.491 20.3138L16.2125 15.8183C15.9287 14.8202 16.2676 13.748 17.0719 13.0992L20.6693 10.1977C20.9355 9.98303 20.79 9.55037 20.4492 9.54298L16.0968 9.44862C15.0144 9.42515 14.0644 8.71654 13.7257 7.68021L12.3466 3.45914Z" fill="#6F5FA7"/>
</svg>
