<svg width="24" height="24" viewBox="0 0 24 24" fill="none" xmlns="http://www.w3.org/2000/svg">
<path fill-rule="evenodd" clip-rule="evenodd" d="M12 2C6.47715 2 2 6.47715 2 12C2 14.594 2.98767 16.9573 4.60747 18.7344C5.44011 16.9245 6.89387 15.5129 8.65688 14.7181C7.63965 13.8028 7 12.4761 7 11C7 8.23858 9.23858 6 12 6C14.7614 6 17 8.23858 17 11C17 12.4527 16.3805 13.7606 15.3913 14.6741C17.1851 15.4198 18.7102 16.7734 19.4409 18.6809C21.032 16.91 22 14.5681 22 12C22 6.47715 17.5228 2 12 2ZM19.7487 21.1632C22.3491 18.962 24 15.6738 24 12C24 5.37258 18.6274 0 12 0C5.37258 0 0 5.37258 0 12C0 15.6737 1.65087 18.9619 4.25123 21.1631C4.31937 21.2402 4.40004 21.3074 4.49165 21.3614C6.54732 23.0122 9.15831 24 12 24C14.8416 24 17.4525 23.0123 19.5082 21.3615C19.5997 21.3076 19.6804 21.2404 19.7487 21.1632ZM17.8228 20.1308L17.6429 19.5911C16.9089 17.3889 14.5505 16 12 16C9.41872 16 7.11321 17.6148 6.23108 20.0407L6.19395 20.1428C7.83083 21.312 9.83507 22 12 22C14.1723 22 16.1829 21.3073 17.8228 20.1308ZM12 14C13.6569 14 15 12.6569 15 11C15 9.34315 13.6569 8 12 8C10.3431 8 9 9.34315 9 11C9 12.6569 10.3431 14 12 14Z" fill="#8A94A6"/>
</svg>
