<svg width="20" height="20" viewBox="0 0 20 20" fill="none" xmlns="http://www.w3.org/2000/svg">
<path fill-rule="evenodd" clip-rule="evenodd" d="M11.4815 5.43953C11.4815 4.81534 11.1182 4.24826 10.5511 3.98743C9.98398 3.72661 9.31695 3.81978 8.84303 4.22599L6.49488 6.23869L3.48992 6.23869C2.60719 6.23869 1.8916 6.95428 1.8916 7.83701V12.632C1.8916 13.5147 2.60719 14.2303 3.48992 14.2303H6.49488L8.84303 16.243C9.31695 16.6492 9.98398 16.7424 10.5511 16.4815C11.1182 16.2207 11.4815 15.6536 11.4815 15.0294L11.4815 5.43953ZM9.8832 5.43953V7.54464L9.8832 12.9243L9.8832 15.0294L8.28488 13.6595L7.3106 12.8244C7.16576 12.7002 6.98128 12.632 6.79051 12.632H5.08824H3.48992L3.48992 11.0336L3.48992 9.43533L3.48992 7.83701H5.08824L6.79051 7.83701C6.98128 7.83701 7.16576 7.76877 7.3106 7.64462L8.28488 6.80952L9.8832 5.43953ZM15.9507 5.50922C16.3537 5.3292 16.8263 5.50995 17.0063 5.91294L17.0071 5.91458L17.0081 5.91688L17.011 5.92346L17.0201 5.9444C17.0275 5.96178 17.0377 5.98594 17.0503 6.01656C17.0754 6.07778 17.11 6.1649 17.1509 6.27523C17.2326 6.49566 17.3398 6.81 17.4466 7.1964C17.6591 7.96576 17.875 9.03882 17.875 10.2347C17.875 11.4305 17.6591 12.5036 17.4466 13.273C17.3398 13.6594 17.2326 13.9737 17.1509 14.1941C17.11 14.3045 17.0754 14.3916 17.0503 14.4528C17.0377 14.4834 17.0275 14.5076 17.0201 14.525L17.011 14.5459L17.0081 14.5525L17.0071 14.5548L17.0067 14.5557C17.0066 14.5559 17.0063 14.5564 16.2767 14.2305L17.0063 14.5564C16.8263 14.9594 16.3537 15.1402 15.9507 14.9601C15.5478 14.7802 15.3671 14.3078 15.5469 13.9048L15.5512 13.8947C15.5555 13.8848 15.5624 13.8684 15.5717 13.8458C15.5903 13.8006 15.6181 13.7307 15.6522 13.6388C15.7203 13.4548 15.8129 13.184 15.906 12.8473C16.093 12.1705 16.2767 11.2456 16.2767 10.2347C16.2767 9.22373 16.093 8.29889 15.906 7.62206C15.8129 7.28536 15.7203 7.01453 15.6522 6.83056C15.6181 6.73869 15.5903 6.66881 15.5717 6.62357C15.5624 6.60096 15.5555 6.58454 15.5512 6.57463L15.5469 6.56471C15.3672 6.16179 15.5478 5.68919 15.9507 5.50922ZM13.5896 7.0924C14.0009 6.93243 14.4641 7.13622 14.624 7.54757C14.624 7.54748 14.624 7.54748 14.531 7.58369C14.4381 7.61984 14.2524 7.69209 13.8814 7.83639L14.624 7.54757L14.6246 7.54907L14.6253 7.55096L14.6272 7.55588L14.6326 7.57024C14.6369 7.5818 14.6426 7.59733 14.6495 7.61664C14.6632 7.65527 14.6816 7.70913 14.7032 7.77687C14.7462 7.9122 14.802 8.10379 14.8573 8.34062C14.9673 8.81242 15.078 9.4742 15.078 10.2347C15.078 10.9952 14.9673 11.657 14.8573 12.1288C14.802 12.3656 14.7462 12.5572 14.7032 12.6925C14.6816 12.7603 14.6632 12.8141 14.6495 12.8528C14.6426 12.8721 14.6369 12.8876 14.6326 12.8992L14.6272 12.9135L14.6253 12.9184L14.6246 12.9203L14.6243 12.9211L13.8792 12.6322C14.624 12.9218 14.6242 12.9213 14.6243 12.9211C14.4643 13.3325 14.0009 13.537 13.5896 13.377C13.1789 13.2173 12.9751 12.7555 13.1335 12.3447L13.1348 12.3414L13.1433 12.318C13.1514 12.295 13.1642 12.2579 13.1801 12.2079C13.212 12.1078 13.2561 11.9569 13.3007 11.7656C13.3905 11.3811 13.4796 10.8442 13.4796 10.2347C13.4796 9.62522 13.3905 9.08826 13.3007 8.70381C13.2561 8.51252 13.212 8.36161 13.1801 8.26148C13.1642 8.21149 13.1514 8.17437 13.1433 8.15145L13.1348 8.12795L13.1335 8.12469C12.9751 7.71388 13.1789 7.25209 13.5896 7.0924Z" fill="white"/>
</svg>
