<svg width="25" height="26" viewBox="0 0 25 26" fill="none" xmlns="http://www.w3.org/2000/svg">
<g clip-path="url(#clip0_3_562)">
<path fill-rule="evenodd" clip-rule="evenodd" d="M2.03804 12.9529C2.03804 7.32497 6.60036 2.76265 12.2283 2.76265C17.8562 2.76265 22.4185 7.32497 22.4185 12.9529C22.4185 18.5808 17.8562 23.1431 12.2283 23.1431C6.60036 23.1431 2.03804 18.5808 2.03804 12.9529ZM12.2283 0.724609C5.47478 0.724609 0 6.19939 0 12.9529C0 19.7064 5.47478 25.1811 12.2283 25.1811C18.9817 25.1811 24.4565 19.7064 24.4565 12.9529C24.4565 6.19939 18.9817 0.724609 12.2283 0.724609ZM13.2473 8.87678C13.2473 8.31399 12.791 7.85776 12.2283 7.85776C11.6655 7.85776 11.2092 8.31399 11.2092 8.87678V13.4059C11.2092 13.7466 11.3796 14.0648 11.6631 14.2538L15.0608 16.5184C15.5291 16.8305 16.1618 16.7039 16.4739 16.2356C16.786 15.7673 16.6594 15.1346 16.1911 14.8225L13.2473 12.8604V8.87678Z" fill="#939393"/>
</g>
<defs>
<clipPath id="clip0_3_562">
<rect width="24.4565" height="24.4565" fill="white" transform="translate(0 0.724609)"/>
</clipPath>
</defs>
</svg>
