<svg width="17" height="17" viewBox="0 0 17 17" fill="none" xmlns="http://www.w3.org/2000/svg">
<g clip-path="url(#clip0_3_1834)">
<path fill-rule="evenodd" clip-rule="evenodd" d="M13.7277 2.67703C15.1759 3.77967 15.3806 5.84709 14.1757 7.20156L8.16378 13.9598L2.15195 7.20228C0.946844 5.8477 1.15153 3.77999 2.5999 2.67721C4.08226 1.54855 6.2343 1.90858 7.2498 3.45511L7.59048 3.97395C7.79444 4.28457 8.21697 4.37449 8.53422 4.1748C8.6336 4.11224 8.71086 4.02869 8.76384 3.93389L9.07791 3.45537C10.0931 1.90858 12.2453 1.54833 13.7277 2.67703ZM8.16392 2.40664C6.6375 0.477432 3.76916 0.0929201 1.76145 1.62158C-0.30593 3.19567 -0.598102 6.14709 1.12205 8.08062L7.64997 15.4183C7.8977 15.6967 8.32907 15.7258 8.61346 15.4833C8.65042 15.4518 8.68308 15.4172 8.71138 15.3803L15.2056 8.07985C16.9255 6.14644 16.6333 3.19533 14.5661 1.62139C12.5585 0.092745 9.69015 0.477397 8.16392 2.40664Z" fill="white"/>
</g>
<defs>
<clipPath id="clip0_3_1834">
<rect width="16.3279" height="16.3279" fill="white"/>
</clipPath>
</defs>
</svg>
