<svg width="6" height="6" viewBox="0 0 6 6" fill="none" xmlns="http://www.w3.org/2000/svg">
<path d="M0.599975 3.6C0.268617 3.6 -1.1665e-07 3.33137 -1.31134e-07 3C-1.45619e-07 2.66863 0.268617 2.4 0.599975 2.4L3.95156 2.4L2.57588 1.02426C2.34157 0.789949 2.34157 0.41005 2.57588 0.175735C2.81018 -0.0585791 3.19007 -0.0585791 3.42437 0.175735L5.82427 2.57574C5.93679 2.68826 6 2.84087 6 3C6 3.15913 5.93679 3.31174 5.82427 3.42426L3.42437 5.82426C3.19007 6.05858 2.81018 6.05858 2.57588 5.82426C2.34157 5.58995 2.34157 5.21005 2.57588 4.97574L3.95156 3.6L0.599975 3.6Z" fill="black"/>
</svg>
