<svg width="43" height="56" viewBox="0 0 43 56" fill="none" xmlns="http://www.w3.org/2000/svg">
<path d="M30.485 0H1.463C0.655 0 0 0.655 0 1.926V55C0 55.345 0.655 56 1.463 56H41.537C42.345 56 43 55.345 43 55V12.978C43 12.282 42.907 12.058 42.743 11.893L31.107 0.257C30.942 0.093 30.718 0 30.485 0Z" fill="#E4E4E4"/>
<path d="M41.537 56H1.463C0.655 56 0 55.345 0 54.537V39H43V54.537C43 55.345 42.345 56 41.537 56Z" fill="#BE3D53"/>
<path d="M13.567 53L17.094 42.937H18.721L22.222 53H20.527L19.802 50.908H16.015L15.276 53H13.567ZM16.397 49.801H19.405L17.915 45.453L16.397 49.801Z" fill="white"/>
<path d="M26.036 53H24.368V42.924H26.036V53Z" fill="white"/>
<path d="M31 11V11.461C27.929 12.429 25.497 14.843 24.498 17.901C23.811 17.346 22.95 17 22 17C20.141 17 18.589 18.28 18.142 20H15V18H9V24H15V22H17.921C17.585 24.663 15.936 26.978 13.532 28.163C12.864 26.884 11.54 26 10 26C7.794 26 6 27.794 6 30C6 32.206 7.794 34 10 34C12.146 34 13.888 32.298 13.982 30.175C16.637 29.024 18.629 26.788 19.506 24.102C20.192 24.655 21.052 25 22 25C23.859 25 25.411 23.72 25.858 22H29V24H35V18H29V20H26.069C26.448 16.981 28.513 14.486 31.291 13.482C31.883 14.955 33.318 16 35 16C37.206 16 39 14.206 39 12V11H31ZM13 22H11V20H13V22ZM10 32C8.897 32 8 31.103 8 30C8 28.897 8.897 28 10 28C11.103 28 12 28.897 12 30C12 31.103 11.103 32 10 32ZM31 20H33V22H31V20ZM22 23C20.897 23 20 22.103 20 21C20 19.897 20.897 19 22 19C23.103 19 24 19.897 24 21C24 22.103 23.103 23 22 23ZM35 14C34.277 14 33.647 13.611 33.296 13.036C33.528 13.015 33.762 13 34 13H36.731C36.386 13.597 35.739 14 35 14Z" fill="#808191"/>
<path d="M31 0.151001V12H42.849L31 0.151001Z" fill="#C7C7CF"/>
</svg>
