<svg width="256" height="256" viewBox="0 0 256 256" fill="none" xmlns="http://www.w3.org/2000/svg">
<path d="M256 128C256 198.692 198.692 256 128 256C57.308 256 0 198.692 0 128C0 57.3084 57.308 0.00012207 128 0.00012207C198.692 0.00012207 256 57.3084 256 128Z" fill="#6F5FA7"/>
<path d="M125.198 31.3126C100.278 31.3126 80.0832 51.5067 80.0833 76.4272C80.0833 80.7733 82.1087 92.8944 86.4896 99.6043C86.4896 99.6043 102.949 114.66 125.156 134.49C105.671 134.637 84.4872 134.724 68.3854 145.313C56.9323 152.845 48.2891 166.127 45.625 179.573C43.5182 190.207 35.1124 203.302 51.9375 211.469C58.8151 214.807 82.0797 233.603 108.76 254.552C115.038 255.499 121.459 256 128 256C195.931 256 251.47 203.07 255.708 136.208C207.303 89.5555 146.187 36.4793 146.187 36.4793C139.907 32.9513 129.007 31.3126 125.198 31.3126Z" fill="black" fill-opacity="0.196078"/>
<path d="M125.201 121.554C150.122 121.554 170.324 101.352 170.324 76.4316C170.324 51.5112 150.122 31.3092 125.201 31.3092C100.281 31.3092 80.079 51.5112 80.079 76.4316C80.079 101.352 100.281 121.554 125.201 121.554Z" fill="white"/>
<path d="M211.225 179.568C212.932 190.319 220.295 203.177 203.831 211.376C187.367 219.574 154.235 224.69 128.424 224.69C102.614 224.69 68.7587 219.637 51.9336 211.47C35.1086 203.303 43.5166 190.201 45.6234 179.568C48.2875 166.121 56.9288 152.848 68.3819 145.316C85.3759 134.14 108.086 134.64 128.424 134.445C149.207 134.248 172.751 132.753 189.977 144.381C201.333 152.047 209.077 166.036 211.225 179.568Z" fill="white"/>
<path d="M128 223.493L110.039 198.023L128 155.047L145.961 198.023L128 223.493ZM128 159.68L110.039 134.211H145.961L128 159.68Z" fill="#6F5FA7"/>
</svg>
