<svg width="12" height="12" viewBox="0 0 12 12" fill="none" xmlns="http://www.w3.org/2000/svg">
<g clip-path="url(#clip0)">
<path fill-rule="evenodd" clip-rule="evenodd" d="M5.45116 0.161627C5.72754 0.0234357 6.05285 0.0234355 6.32924 0.161627L11.122 2.558C11.8456 2.91979 11.8456 3.95237 11.122 4.31416L10.4238 4.66324L11.122 5.01231C11.8456 5.3741 11.8456 6.40669 11.122 6.76848L10.4238 7.11755L11.122 7.46663C11.8456 7.82842 11.8456 8.861 11.122 9.22279L6.32924 11.6192C6.05286 11.7574 5.72754 11.7574 5.45116 11.6192L0.658407 9.22279C-0.0651723 8.861 -0.0651715 7.82842 0.658406 7.46663L1.35656 7.11755L0.658407 6.76848C-0.0651723 6.40669 -0.0651715 5.3741 0.658406 5.01231L1.35656 4.66324L0.658407 4.31416C-0.0651731 3.95237 -0.0651713 2.91979 0.658407 2.558L5.45116 0.161627ZM2.67882 4.22677C2.67563 4.22513 2.67243 4.22353 2.66921 4.22197L1.09745 3.43608L5.8902 1.03971L10.6829 3.43608L9.1111 4.22201C9.10793 4.22355 9.10479 4.22512 9.10166 4.22673L5.8902 5.83246L2.67882 4.22677ZM2.45416 5.21204L1.09745 5.8904L2.66915 6.67625L2.67888 6.68111L5.8902 8.28677L9.10163 6.68105L9.11112 6.67631L10.6829 5.8904L9.32623 5.21204L6.32924 6.71054C6.05286 6.84873 5.72754 6.84873 5.45116 6.71054L2.45416 5.21204ZM1.09745 8.34471L2.45416 7.66635L5.45116 9.16485C5.72754 9.30304 6.05286 9.30304 6.32924 9.16485L9.32623 7.66635L10.6829 8.34471L5.8902 10.7411L1.09745 8.34471Z" fill="#8A94A6"/>
</g>
<defs>
<clipPath id="clip0">
<rect width="11.7807" height="11.7807" fill="white"/>
</clipPath>
</defs>
</svg>
