<svg width="16" height="16" viewBox="0 0 16 16" fill="none" xmlns="http://www.w3.org/2000/svg">
<path fill-rule="evenodd" clip-rule="evenodd" d="M1.98195 1.3213C1.61709 1.3213 1.3213 1.61709 1.3213 1.98195V13.8736C1.3213 14.2385 1.61709 14.5343 1.98195 14.5343H13.8736C14.2385 14.5343 14.5343 14.2385 14.5343 13.8736V1.98196C14.5343 1.61709 14.2385 1.32131 13.8736 1.32131L1.98195 1.3213ZM1.5594e-06 1.98195C1.70294e-06 0.887348 0.887352 -1e-07 1.98195 0L13.8736 1.60187e-06C14.9682 1.70187e-06 15.8556 0.887351 15.8556 1.98196V13.8736C15.8556 14.9682 14.9682 15.8556 13.8736 15.8556H1.98195C0.887349 15.8556 -1.4354e-07 14.9682 0 13.8736L1.5594e-06 1.98195ZM5.2844 8.58845C4.91953 8.58845 4.62375 8.29267 4.62375 7.9278C4.62375 7.56294 4.91953 7.26715 5.2844 7.26715H8.97492L8.12077 6.413C7.86277 6.155 7.86277 5.7367 8.12077 5.4787C8.37877 5.2207 8.79707 5.2207 9.05507 5.4787L11.037 7.46065C11.1609 7.58455 11.2305 7.75259 11.2305 7.9278C11.2305 8.10302 11.1609 8.27106 11.037 8.39495L9.05507 10.3769C8.79707 10.6349 8.37877 10.6349 8.12077 10.3769C7.86277 10.1189 7.86277 9.7006 8.12077 9.4426L8.97492 8.58845H5.2844Z" fill="url(#paint0_linear)"/>
<defs>
<linearGradient id="paint0_linear" x1="13.6151" y1="0.716369" x2="12.7501" y2="16.1759" gradientUnits="userSpaceOnUse">
<stop stop-color="#8A94A6"/>
<stop offset="1" stop-color="#8A94A6"/>
</linearGradient>
</defs>
</svg>
