<svg width="25" height="25" viewBox="0 0 25 25" fill="none" xmlns="http://www.w3.org/2000/svg">
<path fill-rule="evenodd" clip-rule="evenodd" d="M19.4574 7.64289H5.61459C4.22404 7.64289 3.12183 8.8161 3.20857 10.204L3.81125 19.8468C3.89066 21.1174 4.94426 22.1072 6.21727 22.1072H18.8547C20.1277 22.1072 21.1813 21.1174 21.2607 19.8468L21.8634 10.204C21.9501 8.8161 20.8479 7.64289 19.4574 7.64289ZM5.61459 5.23218C2.83349 5.23218 0.62907 7.57867 0.80255 10.3544L1.40523 19.9972C1.56405 22.5383 3.67125 24.5179 6.21727 24.5179H18.8547C21.4007 24.5179 23.5079 22.5383 23.6667 19.9972L24.2694 10.3544C24.4429 7.57867 22.2385 5.23218 19.4574 5.23218H5.61459Z" fill="url(#paint0_linear)"/>
<path fill-rule="evenodd" clip-rule="evenodd" d="M6.50879 6.43743C6.50879 3.10893 9.2071 0.410637 12.5356 0.410637C15.8641 0.410637 18.5624 3.10893 18.5624 6.43743V8.8481C18.5624 9.5138 18.0227 10.0535 17.357 10.0535C16.6913 10.0535 16.1516 9.5138 16.1516 8.8481V6.43743C16.1516 4.44033 14.5327 2.82136 12.5356 2.82136C10.5385 2.82136 8.9195 4.44033 8.9195 6.43743V8.8481C8.9195 9.5138 8.3798 10.0535 7.71415 10.0535C7.04845 10.0535 6.50879 9.5138 6.50879 8.8481V6.43743Z" fill="url(#paint1_linear)" fill-opacity="0.5"/>
<defs>
<linearGradient id="paint0_linear" x1="1.85408" y1="7.95734" x2="24.719" y2="9.5154" gradientUnits="userSpaceOnUse">
<stop stop-color="#6F5FA7"/>
<stop offset="1" stop-color="#6F5FA7"/>
</linearGradient>
<linearGradient id="paint1_linear" x1="7.05338" y1="1.77322" x2="18.7853" y2="2.59379" gradientUnits="userSpaceOnUse">
<stop stop-color="#6F5FA7"/>
<stop offset="1" stop-color="#6F5FA7"/>
</linearGradient>
</defs>
</svg>
