<svg width="25" height="25" viewBox="0 0 25 25" fill="none" xmlns="http://www.w3.org/2000/svg">
<path fill-rule="evenodd" clip-rule="evenodd" d="M15.5559 18.0821C13.923 19.3514 11.8712 20.1072 9.64286 20.1072C4.31725 20.1072 0 15.79 0 10.4644C0 5.13879 4.31725 0.821533 9.64286 0.821533C14.9685 0.821533 19.2857 5.13879 19.2857 10.4644C19.2857 12.6927 18.5299 14.7446 17.2605 16.3774L23.7541 22.871C24.2248 23.3417 24.2248 24.1049 23.7541 24.5756C23.2834 25.0464 22.5202 25.0464 22.0495 24.5756L15.5559 18.0821ZM16.875 10.4644C16.875 14.4586 13.6371 17.6965 9.64286 17.6965C5.64866 17.6965 2.41071 14.4586 2.41071 10.4644C2.41071 6.47019 5.64866 3.23225 9.64286 3.23225C13.6371 3.23225 16.875 6.47019 16.875 10.4644Z" fill="url(#paint0_linear)"/>
<defs>
<linearGradient id="paint0_linear" x1="1.08918" y1="4.22798" x2="24.5942" y2="5.54319" gradientUnits="userSpaceOnUse">
<stop stop-color="#6F5FA7"/>
<stop offset="1" stop-color="#6F5FA7"/>
</linearGradient>
</defs>
</svg>
