<svg width="7" height="12" viewBox="0 0 7 12" fill="none" xmlns="http://www.w3.org/2000/svg">
<path fill-rule="evenodd" clip-rule="evenodd" d="M0.170855 3.83752C-0.0569512 4.06533 -0.0569512 4.43467 0.170855 4.66248C0.39866 4.89028 0.768007 4.89028 0.995813 4.66248L3.5 2.15829L6.00419 4.66248C6.23199 4.89029 6.60134 4.89029 6.82915 4.66248C7.05695 4.43467 7.05695 4.06533 6.82915 3.83752L3.91248 0.920854C3.80308 0.811458 3.65471 0.75 3.5 0.75C3.34529 0.75 3.19692 0.811458 3.08752 0.920854L0.170855 3.83752ZM6.82915 8.16248C7.05695 7.93467 7.05695 7.56533 6.82915 7.33752C6.60134 7.10972 6.23199 7.10972 6.00419 7.33752L3.5 9.84171L0.995812 7.33752C0.768007 7.10972 0.39866 7.10972 0.170855 7.33752C-0.0569516 7.56533 -0.0569515 7.93467 0.170855 8.16248L3.08752 11.0791C3.31533 11.307 3.68467 11.307 3.91248 11.0791L6.82915 8.16248Z" fill="#17077C"/>
</svg>
