<svg width="20" height="20" viewBox="0 0 20 20" fill="none" xmlns="http://www.w3.org/2000/svg">
<path fill-rule="evenodd" clip-rule="evenodd" d="M16 3C16 3.55228 16.4477 4 17 4C17.5523 4 18 3.55228 18 3C18 2.44772 17.5523 2 17 2C16.4477 2 16 2.44772 16 3ZM17 0C15.3431 0 14 1.34315 14 3C14 3.46315 14.105 3.90178 14.2924 4.29342L12.7574 5.8284C11.967 5.30488 11.0191 5 10 5C8.98092 5 8.03304 5.30488 7.24261 5.8284L5.70763 4.29342C5.89505 3.90178 6 3.46315 6 3C6 1.34315 4.65685 0 3 0C1.34315 0 0 1.34315 0 3C0 4.65685 1.34315 6 3 6C3.46315 6 3.90178 5.89505 4.29342 5.70763L5.8284 7.24261C5.30488 8.03304 5 8.98092 5 10C5 11.0191 5.30488 11.967 5.8284 12.7574L4.29342 14.2924C3.90178 14.105 3.46315 14 3 14C1.34315 14 0 15.3431 0 17C0 18.6569 1.34315 20 3 20C4.65685 20 6 18.6569 6 17C6 16.5369 5.89505 16.0982 5.70763 15.7066L7.24261 14.1716C8.03304 14.6951 8.98092 15 10 15C11.0191 15 11.967 14.6951 12.7574 14.1716L14.2924 15.7066C14.105 16.0982 14 16.5369 14 17C14 18.6569 15.3431 20 17 20C18.6569 20 20 18.6569 20 17C20 15.3431 18.6569 14 17 14C16.5369 14 16.0982 14.105 15.7066 14.2924L14.1716 12.7574C14.6951 11.967 15 11.0191 15 10C15 8.98092 14.6951 8.03304 14.1716 7.24261L15.7066 5.70763C16.0982 5.89505 16.5369 6 17 6C18.6569 6 20 4.65685 20 3C20 1.34315 18.6569 0 17 0ZM7 10C7 11.6569 8.34315 13 10 13C11.6569 13 13 11.6569 13 10C13 8.34315 11.6569 7 10 7C8.34315 7 7 8.34315 7 10ZM17 18C16.4477 18 16 17.5523 16 17C16 16.4477 16.4477 16 17 16C17.5523 16 18 16.4477 18 17C18 17.5523 17.5523 18 17 18ZM2 17C2 17.5523 2.44772 18 3 18C3.55228 18 4 17.5523 4 17C4 16.4477 3.55228 16 3 16C2.44772 16 2 16.4477 2 17ZM3 4C2.44772 4 2 3.55228 2 3C2 2.44772 2.44772 2 3 2C3.55228 2 4 2.44772 4 3C4 3.55228 3.55228 4 3 4Z" fill="#8A94A6"/>
</svg>
