<svg width="77" height="77" viewBox="0 0 77 77" fill="none" xmlns="http://www.w3.org/2000/svg">
<path fill-rule="evenodd" clip-rule="evenodd" d="M60.9585 64.1667C62.7304 64.1667 64.1668 62.7303 64.1668 60.9583C64.1668 59.1864 62.7304 57.75 60.9585 57.75C59.1866 57.75 57.7502 59.1864 57.7502 60.9583C57.7502 62.7303 59.1866 64.1667 60.9585 64.1667ZM60.9585 70.5833C66.2742 70.5833 70.5835 66.2741 70.5835 60.9583C70.5835 55.6426 66.2742 51.3333 60.9585 51.3333C55.6428 51.3333 51.3335 55.6426 51.3335 60.9583C51.3335 66.2741 55.6428 70.5833 60.9585 70.5833Z" fill="#B0D4C9" fill-opacity="0.5"/>
<path fill-rule="evenodd" clip-rule="evenodd" d="M49.7293 12.8333C45.2995 12.8333 41.7085 16.4244 41.7085 20.8542V56.1458C41.7085 64.1194 35.2446 70.5833 27.271 70.5833C19.2974 70.5833 12.8335 64.1194 12.8335 56.1458V32.0833C12.8335 30.3114 14.2699 28.875 16.0418 28.875C17.8137 28.875 19.2502 30.3114 19.2502 32.0833V56.1458C19.2502 60.5756 22.8412 64.1667 27.271 64.1667C31.7008 64.1667 35.2918 60.5756 35.2918 56.1458V20.8542C35.2918 12.8805 41.7557 6.41666 49.7293 6.41666C57.7029 6.41666 64.1668 12.8805 64.1668 20.8542V41.7083C64.1668 43.4802 62.7304 44.9167 60.9585 44.9167C59.1866 44.9167 57.7502 43.4802 57.7502 41.7083V20.8542C57.7502 16.4244 54.1591 12.8333 49.7293 12.8333Z" fill="#B0D4C9"/>
<path d="M13.2708 7.95915C14.5088 5.83682 17.5753 5.83682 18.8133 7.95915L24.4567 17.6335C25.7044 19.7723 24.1616 22.4584 21.6854 22.4584H10.3987C7.92255 22.4584 6.37976 19.7723 7.62742 17.6334L13.2708 7.95915Z" fill="#B0D4C9" fill-opacity="0.5"/>
</svg>
