<svg width="20" height="18" viewBox="0 0 20 18" fill="none" xmlns="http://www.w3.org/2000/svg">
<path fill-rule="evenodd" clip-rule="evenodd" d="M11.0566 0C9.61467 0 8.48811 1.15519 8.41533 2.53329C8.38377 3.13097 8.33212 3.76912 8.25071 4.26802C8.22087 4.45094 8.12217 4.72386 7.94269 5.07026C7.76947 5.40458 7.54938 5.75378 7.32551 6.07804C7.10304 6.40028 6.88561 6.68529 6.72344 6.89001C6.69691 6.92351 6.67194 6.95475 6.64876 6.98355L5.21669 7.39995C4.88134 7.14882 4.46448 7 4.01274 7H2.00637C0.898283 7 0 7.89543 0 9V16C0 17.1046 0.898283 18 2.00637 18H4.01274C4.6252 18 5.17357 17.7264 5.54159 17.2952C6.4983 17.7589 7.54862 18 8.6124 18H16.2346C17.7283 18 18.996 16.9079 19.2124 15.4346L19.9677 10.2917C20.2336 8.48116 18.8255 6.85714 16.9899 6.85714H14.7198V3.65155C14.7198 1.63485 13.0798 0 11.0566 0ZM6.01912 15.3028L6.41928 15.4967C7.10264 15.8279 7.85256 16 8.6124 16H16.2346C16.7325 16 17.155 15.636 17.2272 15.1449L17.9825 10.002C18.0711 9.39848 17.6017 8.85714 16.9899 8.85714H13.7166C13.1626 8.85714 12.7135 8.40943 12.7135 7.85714V3.65155C12.7135 2.73942 11.9717 2 11.0566 2C10.7389 2 10.4387 2.26479 10.4189 2.63842C10.3862 3.25857 10.3301 3.98223 10.2311 4.58912C10.1517 5.07567 9.94398 5.56606 9.72533 5.98805C9.50043 6.42211 9.23065 6.84636 8.97831 7.21188C8.72457 7.57941 8.47945 7.9005 8.29811 8.12943C8.20713 8.24428 8.13144 8.3369 8.07776 8.40167C8.0509 8.43408 8.0295 8.45957 8.01439 8.47746L7.99652 8.49852L7.99132 8.50462L7.98888 8.50747C7.98878 8.50758 7.98869 8.50768 7.2268 7.85714L7.98888 8.50747C7.86211 8.65499 7.69479 8.76274 7.50772 8.81713L6.01912 9.24998V15.3028ZM4.01274 9H2.00637V16H4.01274V9Z" fill="url(#paint0_linear)"/>
<defs>
<linearGradient id="paint0_linear" x1="0.903614" y1="2.54348" x2="20.3898" y2="3.75497" gradientUnits="userSpaceOnUse">
<stop stop-color="#6F5FA7"/>
<stop offset="1" stop-color="#6F5FA7"/>
</linearGradient>
</defs>
</svg>
