<svg width="12" height="12" viewBox="0 0 12 12" fill="none" xmlns="http://www.w3.org/2000/svg">
<path fill-rule="evenodd" clip-rule="evenodd" d="M5.89035 0.981725C3.17939 0.981725 0.981725 3.17939 0.981725 5.89035C0.981725 7.16364 1.46654 8.3237 2.26163 9.196C2.67034 8.3076 3.38394 7.61471 4.24934 7.22454C3.75002 6.77528 3.43604 6.12405 3.43604 5.39949C3.43604 4.04401 4.53487 2.94518 5.89035 2.94518C7.24583 2.94518 8.34466 4.04401 8.34466 5.39949C8.34466 6.11254 8.04058 6.75457 7.55502 7.20298C8.43552 7.56901 9.18412 8.23342 9.54281 9.16977C10.3238 8.30051 10.799 7.15092 10.799 5.89035C10.799 3.17939 8.60131 0.981725 5.89035 0.981725ZM9.69387 10.3882C10.9703 9.30774 11.7807 7.69368 11.7807 5.89035C11.7807 2.6372 9.1435 0 5.89035 0C2.6372 0 0 2.6372 0 5.89035C0 7.69366 0.810351 9.30769 2.08677 10.3882C2.12022 10.426 2.15982 10.459 2.20478 10.4855C3.21384 11.2959 4.49547 11.7807 5.89035 11.7807C7.28519 11.7807 8.5668 11.2959 9.57584 10.4856C9.62075 10.4591 9.66038 10.4261 9.69387 10.3882ZM8.74856 9.88145L8.66025 9.61652C8.29993 8.53556 7.14229 7.8538 5.89035 7.8538C4.6233 7.8538 3.49161 8.64647 3.0586 9.83723L3.04038 9.88735C3.84386 10.4613 4.82767 10.799 5.89035 10.799C6.95667 10.799 7.94357 10.459 8.74856 9.88145ZM5.89035 6.87208C6.70364 6.87208 7.36294 6.21278 7.36294 5.39949C7.36294 4.5862 6.70364 3.9269 5.89035 3.9269C5.07706 3.9269 4.41776 4.5862 4.41776 5.39949C4.41776 6.21278 5.07706 6.87208 5.89035 6.87208Z" fill="#8A94A6"/>
</svg>
