<svg width="10" height="10" viewBox="0 0 10 10" fill="none" xmlns="http://www.w3.org/2000/svg">
<path d="M0.0143529 3.6223C0.048806 3.51623 0.140486 3.43894 0.250837 3.42291L3.35087 2.97242L4.73728 0.163301C4.78663 0.0633008 4.88847 0 4.99999 0C5.11149 0 5.21335 0.0633203 5.2627 0.163301L6.64919 2.97244L9.74916 3.42291C9.85951 3.43894 9.95119 3.51625 9.98565 3.6223C10.0201 3.72836 9.99137 3.84478 9.91153 3.92262L7.6684 6.10924L8.19786 9.1968C8.2167 9.3067 8.17151 9.41779 8.08129 9.48332C7.9911 9.54885 7.87153 9.5575 7.77276 9.50562L5.00001 8.04789L2.22734 9.50564C2.18447 9.52818 2.13767 9.5393 2.09103 9.5393C2.03029 9.5393 1.96982 9.52043 1.9188 9.48334C1.82859 9.41779 1.78339 9.30672 1.80224 9.1968L2.33185 6.10924L0.0884932 3.92264C0.00863006 3.84478 -0.0201197 3.72836 0.0143529 3.6223ZM2.85113 5.79715C2.92019 5.86445 2.95171 5.96144 2.93538 6.05648L2.48009 8.71074L4.86364 7.45758C4.94899 7.41271 5.05097 7.41271 5.13632 7.45758L7.52001 8.71076L7.06485 6.05646C7.04856 5.96142 7.08007 5.86447 7.14909 5.79717L9.07743 3.9174L6.41249 3.53012C6.31706 3.51625 6.2346 3.45633 6.1919 3.36986L5.00001 0.954902L3.80816 3.36984C3.76546 3.45631 3.683 3.51625 3.58757 3.53012L0.922593 3.91738L2.85113 5.79715Z" fill="#939393"/>
<path d="M3.54978 3.07677L4.65606 1.14076C4.80587 0.878606 5.1855 0.88339 5.32865 1.14924L6.26561 2.8893C6.31691 2.98458 6.40598 3.05384 6.51097 3.08009L8.82861 3.6595C9.10373 3.72828 9.21234 4.061 9.03079 4.27885L7.60688 5.98755C7.5387 6.06937 7.5075 6.1758 7.52071 6.28148L7.7983 8.50221C7.83582 8.80238 7.52813 9.02638 7.254 8.89845L5.16264 7.92248C5.05955 7.87437 4.94044 7.87437 4.83735 7.92248L2.79408 8.87601C2.51032 9.00843 2.1957 8.76437 2.2534 8.45659L2.65491 6.3152C2.67831 6.19042 2.63862 6.06213 2.54885 5.97236L0.900218 4.32373C0.681515 4.10502 0.797307 3.73073 1.1013 3.67374L3.28672 3.26397C3.39762 3.24318 3.49379 3.17473 3.54978 3.07677Z" fill="#939393"/>
</svg>
