<svg width="22" height="18" viewBox="0 0 22 18" fill="none" xmlns="http://www.w3.org/2000/svg">
<path fill-rule="evenodd" clip-rule="evenodd" d="M7.22936 5.30026C7.83007 3.94874 9.12646 2.04357 11.8695 2.04357C14.6369 2.04357 16.6521 4.3659 16.6521 6.62399C16.6521 7.10424 17.0415 7.49356 17.5217 7.49356C17.7513 7.49356 18.3294 7.63139 18.8419 8.02264C19.3163 8.38478 19.6956 8.93063 19.6956 9.76821C19.6956 10.4335 19.4764 11.13 19.0744 11.6422C18.6887 12.1336 18.1349 12.4621 17.3768 12.4621C16.8883 12.4621 16.6138 12.4631 16.4788 12.4647C16.4452 12.4651 16.4163 12.4656 16.3936 12.4662C16.3828 12.4665 16.3684 12.4669 16.3533 12.4677L16.3417 12.4684C16.3351 12.4688 16.3269 12.4694 16.3179 12.4702C16.3166 12.4703 16.2636 12.4742 16.2005 12.4883C16.1816 12.4926 16.1441 12.5016 16.0984 12.5179L16.0971 12.5183C16.0686 12.5285 15.9497 12.5709 15.8289 12.673C15.7638 12.734 15.6337 12.9084 15.5787 13.0248C15.5345 13.1834 15.5378 13.5085 15.5844 13.6636C15.7082 13.9692 15.9581 14.0933 15.9927 14.1105L15.9954 14.1118C16.1091 14.1698 16.2123 14.1885 16.2195 14.1898L16.2199 14.1899C16.249 14.1957 16.2723 14.1988 16.2829 14.2002C16.3177 14.2046 16.3483 14.2062 16.3544 14.2065L16.3551 14.2066C16.3646 14.2071 16.3747 14.2075 16.3845 14.2079C16.3968 14.2084 16.4089 14.2087 16.4194 14.209C16.4995 14.2113 16.6398 14.2134 16.7539 14.2149L16.9051 14.2167L16.9517 14.2173L16.9646 14.2174L16.9679 14.2174L16.9688 14.2174L16.9691 14.2174H16.9691L16.9693 14.2015H16.9693L16.9692 14.2174C17.0297 14.2181 17.0889 14.2125 17.1461 14.2013L17.3768 14.2012C18.7186 14.2012 19.759 13.5867 20.4425 12.7159C21.1098 11.8657 21.4348 10.7804 21.4348 9.76821C21.4348 8.30003 20.7271 7.27377 19.8972 6.64024C19.4007 6.26125 18.8444 6.00926 18.3408 5.87401C17.9501 2.95975 15.3288 0.304443 11.8695 0.304443C8.4795 0.304443 6.72463 2.48275 5.89143 4.07397C4.03463 4.12989 2.71035 4.86499 1.84442 5.85859C0.922766 6.91614 0.565186 8.21418 0.565186 9.13899C0.565186 9.154 0.565575 9.16902 0.566352 9.18402C0.66378 11.0629 1.34678 12.3479 2.27341 13.1564C3.17726 13.9449 4.24171 14.2175 5.02171 14.2175C5.32065 14.2175 5.50135 14.2165 5.60258 14.2148C5.64242 14.2142 5.69868 14.2132 5.74395 14.2095C5.74784 14.2091 5.799 14.2056 5.85975 14.1927C5.878 14.1888 5.91245 14.181 5.95447 14.167L5.95464 14.1669C5.98167 14.1579 6.08462 14.1237 6.19508 14.0426C6.28299 13.978 6.64486 13.671 6.52928 13.1524C6.44474 12.773 6.15304 12.6095 6.11423 12.5877L6.11159 12.5862C6.03135 12.5404 5.96214 12.5182 5.93738 12.5106C5.90461 12.5004 5.87768 12.4942 5.86199 12.4908C5.83063 12.4841 5.8054 12.4805 5.79402 12.4789C5.76934 12.4756 5.74889 12.4738 5.74006 12.4731C5.6859 12.4687 5.5952 12.4662 5.54976 12.465L5.47203 12.463L5.44758 12.4625L5.44068 12.4623L5.43878 12.4623L5.43824 12.4623L5.43808 12.4623L5.43803 12.4623L5.43772 12.4773H5.43768L5.43799 12.4623C5.37473 12.461 5.31291 12.4665 5.25323 12.4781C5.18661 12.4783 5.10985 12.4784 5.02171 12.4784C4.60605 12.4784 3.96398 12.3233 3.41674 11.8459C2.89513 11.3908 2.38519 10.5778 2.30443 9.11786C2.31029 8.57381 2.5417 7.70554 3.15552 7.00122C3.74526 6.32453 4.73548 5.743 6.39668 5.8158C6.75383 5.83146 7.08416 5.62693 7.22936 5.30026ZM5.43708 12.5069L5.43711 12.5069L5.42026 13.3317L5.43708 12.5069ZM11.8695 9.86966C11.8695 9.38941 11.4802 9.0001 11 9.0001C10.5197 9.0001 10.1304 9.38941 10.1304 9.86966L10.1304 14.7272L9.00615 13.603C8.66656 13.2634 8.11598 13.2634 7.7764 13.603C7.43681 13.9426 7.43681 14.4931 7.7764 14.8327L10.3851 17.4414C10.5482 17.6045 10.7693 17.6961 11 17.6961C11.2306 17.6961 11.4518 17.6045 11.6148 17.4414L14.2235 14.8327C14.5631 14.4931 14.5631 13.9426 14.2235 13.603C13.884 13.2634 13.3334 13.2634 12.9938 13.603L11.8695 14.7272L11.8695 9.86966Z" fill="white"/>
</svg>
